<svg width="21" height="15" viewBox="0 0 21 15" fill="none" xmlns="http://www.w3.org/2000/svg">
<path d="M12.5505 14.643C13.022 15.1145 13.7923 15.1244 14.2637 14.6403L20.5507 8.35271C21.0308 7.88597 21.0301 7.11357 20.5509 6.64684L14.2639 0.359842C13.7929 -0.124651 13.0221 -0.114148 12.551 0.356583C12.0804 0.826062 12.0895 1.59053 12.5445 2.06141L12.5509 2.06787L16.7834 6.29248L1.20244 6.29248C0.525644 6.29248 -2.55083e-05 6.8469 -2.54508e-05 7.50506C-2.53924e-05 8.17274 0.535697 8.70708 1.20244 8.70816L16.785 8.70816L12.5505 12.9426C12.0837 13.4088 12.0844 14.1769 12.5505 14.643Z" fill="white"/>
</svg>
