<svg width="9" height="7" viewBox="0 0 9 7" fill="none" xmlns="http://www.w3.org/2000/svg">
<path d="M1.70711 3.07067C1.31658 2.68015 0.683417 2.68015 0.292893 3.07067C-0.0976311 3.4612 -0.0976311 4.09436 0.292893 4.48488L1.70711 3.07067ZM8.00309 1.6247C8.3481 1.19343 8.27818 0.564141 7.84692 0.219131C7.41566 -0.125878 6.78636 -0.055957 6.44135 0.375305L8.00309 1.6247ZM0.292893 4.48488L2.1201 6.31209L3.53432 4.89788L1.70711 3.07067L0.292893 4.48488ZM4.35207 6.18848L8.00309 1.6247L6.44135 0.375305L2.79033 4.93909L4.35207 6.18848ZM2.1201 6.31209C2.75227 6.94426 3.79358 6.88658 4.35207 6.18848L2.79033 4.93909C2.97649 4.70638 3.32359 4.68716 3.53432 4.89788L2.1201 6.31209Z" fill="white"/>
</svg>
