<svg width="26" height="26" viewBox="0 0 26 26" fill="none" xmlns="http://www.w3.org/2000/svg">
<path d="M24 0.234375H2.00002C0.878668 0.234375 0 1.11304 0 2.23439V23.7677C0 24.8891 0.878668 25.7678 2.00002 25.7678H24C25.1214 25.7678 26 24.8891 26 23.7677V2.23439C26 1.11304 25.1213 0.234375 24 0.234375ZM24 23.7677H2.00002L1.98468 2.23571C1.98468 2.23571 1.98936 2.23439 2.00002 2.23439H24L24 23.7677Z" fill="#481E8C"/>
<path d="M21 5.72727C21 5.32561 20.6744 5 20.2727 5H5.72727C5.32561 5 5 5.32561 5 5.72727C5 6.12893 5.32561 6.45455 5.72727 6.45455H20.2727C20.6744 6.45455 21 6.12893 21 5.72727Z" fill="#481E8C"/>
<path d="M21 13C21 12.5983 20.6744 12.2727 20.2727 12.2727H5.72727C5.32561 12.2727 5 12.5983 5 13C5 13.4017 5.32561 13.7273 5.72727 13.7273H20.2727C20.6744 13.7273 21 13.4017 21 13Z" fill="#481E8C"/>
<path d="M15.6667 9.36364C15.6667 8.96197 15.3411 8.63636 14.9394 8.63636H5.72727C5.32561 8.63636 5 8.96197 5 9.36364C5 9.7653 5.32561 10.0909 5.72727 10.0909H14.9394C15.3411 10.0909 15.6667 9.7653 15.6667 9.36364Z" fill="#481E8C"/>
<path d="M15.6667 16.6364C15.6667 16.2347 15.3411 15.9091 14.9394 15.9091H5.72727C5.32561 15.9091 5 16.2347 5 16.6364C5 17.038 5.32561 17.3636 5.72727 17.3636H14.9394C15.3411 17.3636 15.6667 17.038 15.6667 16.6364Z" fill="#481E8C"/>
<path d="M21 20.2727C21 19.8711 20.6744 19.5455 20.2727 19.5455H5.72727C5.32561 19.5455 5 19.8711 5 20.2727C5 20.6744 5.32561 21 5.72727 21H20.2727C20.6744 21 21 20.6744 21 20.2727Z" fill="#481E8C"/>
</svg>
