<svg width="26" height="26" viewBox="0 0 26 26" fill="none" xmlns="http://www.w3.org/2000/svg">
<path d="M8.93694 19.357C8.79649 19.357 8.65603 19.3205 8.53071 19.2483C8.27919 19.1032 8.12449 18.8349 8.12449 18.5445V7.31318C8.12449 7.02276 8.27919 6.75538 8.52993 6.61019C8.78146 6.46501 9.09091 6.46262 9.34243 6.60941L19.0925 12.2223C19.344 12.3667 19.4995 12.6357 19.4995 12.9261C19.4995 13.2165 19.3448 13.4847 19.0925 13.6299L9.34243 19.2484C9.21701 19.3206 9.07656 19.357 8.93694 19.357ZM9.74944 8.71838V17.1385L17.0588 12.9261C17.0587 12.9261 9.74944 8.71838 9.74944 8.71838Z" fill="#481E8C"/>
<path d="M13 26C5.83192 26 0 20.1681 0 13C0 5.83186 5.83192 0 13 0C20.1681 0 26.0001 5.83192 26.0001 13C26.0001 20.1681 20.1681 26 13 26ZM13 1.625C6.72777 1.625 1.625 6.72772 1.625 13C1.625 19.2723 6.72772 24.375 13 24.375C19.2723 24.375 24.375 19.2723 24.375 13C24.375 6.72777 19.2723 1.625 13 1.625Z" fill="#481E8C"/>
</svg>
