<svg width="26" height="26" viewBox="0 0 26 26" fill="none" xmlns="http://www.w3.org/2000/svg">
<path d="M26 1C26 0.447715 25.5523 0 25 0H1C0.447715 0 0 0.447715 0 1V1.36364C0 1.91592 0.447716 2.36364 1 2.36364H25C25.5523 2.36364 26 1.91592 26 1.36364V1Z" fill="#481E8C"/>
<path d="M26 12.8182C26 12.2659 25.5523 11.8182 25 11.8182H1C0.447715 11.8182 0 12.2659 0 12.8182V13.1818C0 13.7341 0.447716 14.1818 1 14.1818H25C25.5523 14.1818 26 13.7341 26 13.1818V12.8182Z" fill="#481E8C"/>
<path d="M17.3333 6.90909C17.3333 6.35681 16.8856 5.90909 16.3333 5.90909H1C0.447715 5.90909 0 6.35681 0 6.90909V7.27273C0 7.82501 0.447716 8.27273 1 8.27273H16.3333C16.8856 8.27273 17.3333 7.82501 17.3333 7.27273V6.90909Z" fill="#481E8C"/>
<path d="M17.3333 18.7273C17.3333 18.175 16.8856 17.7273 16.3333 17.7273H1C0.447715 17.7273 0 18.175 0 18.7273V19.0909C0 19.6432 0.447716 20.0909 1 20.0909H16.3333C16.8856 20.0909 17.3333 19.6432 17.3333 19.0909V18.7273Z" fill="#481E8C"/>
<path d="M26 24.6364C26 24.0841 25.5523 23.6364 25 23.6364H1C0.447715 23.6364 0 24.0841 0 24.6364V25C0 25.5523 0.447716 26 1 26H25C25.5523 26 26 25.5523 26 25V24.6364Z" fill="#481E8C"/>
</svg>
