<svg width="26" height="26" viewBox="0 0 26 26" fill="none" xmlns="http://www.w3.org/2000/svg">
<path d="M9.88657 1.72566L9.03299 0.4453C8.84752 0.167101 8.53529 0 8.20094 0H1C0.447716 0 0 0.447715 0 1V25C0 25.5523 0.447715 26 1 26H25C25.5523 26 26 25.5523 26 25V2.72566C26 2.17338 25.5523 1.72566 25 1.72566H9.88657ZM24.2743 24.2743H1.72566V1.72566H7.81255L10.967 6.45736C11.1525 6.73555 11.4647 6.90266 11.7991 6.90266H24.2743V24.2743ZM24.2743 5.17699H12.1874L11.037 3.45133H24.2743V5.17699Z" fill="#481E8C"/>
</svg>
