<svg width="29" height="29" viewBox="0 0 29 29" fill="none" xmlns="http://www.w3.org/2000/svg">
<path d="M24 0.234375H2.00002C0.878668 0.234375 0 1.11304 0 2.23439V23.7677C0 24.8891 0.878668 25.7678 2.00002 25.7678H24C25.1214 25.7678 26 24.8891 26 23.7677V2.23439C26 1.11304 25.1213 0.234375 24 0.234375ZM24 23.7677H2.00002L1.98468 2.23571C1.98468 2.23571 1.98936 2.23439 2.00002 2.23439H24L24 23.7677Z" fill="#481E8C"/>
<path d="M9.93694 8.59631C9.5996 8.18864 9.00226 8.11531 8.57494 8.42863L0.408295 14.4286L1.59262 16.0406L8.99926 10.599L19.5309 25.306L21.0703 24.0296L9.93694 8.59631Z" fill="#481E8C"/>
<path d="M19.5535 9.48406C19.1892 9.19573 18.6745 9.19674 18.3105 9.48574L13 13.5L14.2453 15.065L18.9352 11.5447L24.3795 15.8524L25.6202 14.284L19.5535 9.48406Z" fill="#481E8C"/>
<path fill-rule="evenodd" clip-rule="evenodd" d="M27 3.23438L27 5.23439L27 26.7677H5.00002H3C3 27.8891 3.87867 28.7678 5.00002 28.7678H27C28.1214 28.7678 29 27.8891 29 26.7677V5.23439C29 4.11304 28.1213 3.23438 27 3.23438Z" fill="#481E8C"/>
</svg>
