<svg width="17" height="18" viewBox="0 0 17 18" fill="none" xmlns="http://www.w3.org/2000/svg">
<path d="M15.4739 2.17779H14.1056V1.24388C14.1056 0.556912 13.5487 0 12.8618 0H12.812C12.125 0 11.5681 0.556912 11.5681 1.24388V2.17779H5.14968V1.24388C5.14968 0.556912 4.59277 0 3.90579 0H3.85604C3.16907 0 2.61215 0.556912 2.61215 1.24388V2.17779H1.24388C0.556911 2.17779 0 2.7347 0 3.42168V16.7561C0 17.4432 0.556911 18 1.24388 18H15.4739C16.1609 18 16.7178 17.4432 16.7178 16.7561V3.42168C16.7178 2.7347 16.1608 2.17779 15.4739 2.17779ZM14.6281 16.0347H2.08972V5.93432H14.6281V16.0347Z" fill="#C3C2C9"/>
<path d="M3.79375 10.5051H5.95801C6.06791 10.5051 6.15703 10.416 6.15703 10.3061V8.14181C6.15703 8.0319 6.06791 7.94279 5.95801 7.94279H3.79375C3.68384 7.94279 3.59473 8.0319 3.59473 8.14181V10.3061C3.59473 10.416 3.68384 10.5051 3.79375 10.5051Z" fill="#C3C2C9"/>
<path d="M7.27685 10.5051H9.44111C9.55102 10.5051 9.64013 10.416 9.64013 10.3061V8.14181C9.64013 8.0319 9.55102 7.94279 9.44111 7.94279H7.27685C7.16694 7.94279 7.07783 8.0319 7.07783 8.14181V10.3061C7.07783 10.416 7.16694 10.5051 7.27685 10.5051Z" fill="#C3C2C9"/>
<path d="M10.76 10.5051H12.9242C13.0341 10.5051 13.1233 10.416 13.1233 10.3061V8.14181C13.1233 8.0319 13.0341 7.94279 12.9242 7.94279H10.76C10.6501 7.94279 10.5609 8.0319 10.5609 8.14181V10.3061C10.5609 10.416 10.6501 10.5051 10.76 10.5051Z" fill="#C3C2C9"/>
<path d="M3.79375 13.9879H5.95801C6.06791 13.9879 6.15703 13.8988 6.15703 13.7889V11.6246C6.15703 11.5147 6.06791 11.4256 5.95801 11.4256H3.79375C3.68384 11.4256 3.59473 11.5147 3.59473 11.6246V13.7889C3.59473 13.8988 3.68384 13.9879 3.79375 13.9879Z" fill="#C3C2C9"/>
<path d="M7.27685 13.9879H9.44111C9.55102 13.9879 9.64013 13.8988 9.64013 13.7889V11.6246C9.64013 11.5147 9.55102 11.4256 9.44111 11.4256H7.27685C7.16694 11.4256 7.07783 11.5147 7.07783 11.6246V13.7889C7.07783 13.8988 7.16694 13.9879 7.27685 13.9879Z" fill="#C3C2C9"/>
<path d="M10.76 13.9879H12.9242C13.0341 13.9879 13.1233 13.8988 13.1233 13.7889V11.6246C13.1233 11.5147 13.0341 11.4256 12.9242 11.4256H10.76C10.6501 11.4256 10.5609 11.5147 10.5609 11.6246V13.7889C10.5609 13.8988 10.6501 13.9879 10.76 13.9879Z" fill="#C3C2C9"/>
</svg>
