<svg width="28" height="17" viewBox="0 0 28 17" fill="none" xmlns="http://www.w3.org/2000/svg">
<path d="M23.7656 7H26.5195C27.0502 7 27.4805 7.43023 27.4805 7.96094V7.96094C27.4805 8.49165 27.0502 8.92188 26.5195 8.92188H23.7656H21.7266H18.9609C18.4302 8.92188 18 8.49165 18 7.96094V7.96094C18 7.43023 18.4302 7 18.9609 7H21.7266H23.7656Z" fill="#B4B3BB"/>
<path d="M23.7656 4H26.5195C27.0502 4 27.4805 4.43023 27.4805 4.96094V4.96094C27.4805 5.49165 27.0502 5.92188 26.5195 5.92188H23.7656H21.7266H18.9609C18.4302 5.92188 18 5.49165 18 4.96094V4.96094C18 4.43023 18.4302 4 18.9609 4H21.7266H23.7656Z" fill="#B4B3BB"/>
<path d="M23.7656 10H26.5195C27.0502 10 27.4805 10.4302 27.4805 10.9609V10.9609C27.4805 11.4916 27.0502 11.9219 26.5195 11.9219H23.7656H21.7266H18.9609C18.4302 11.9219 18 11.4916 18 10.9609V10.9609C18 10.4302 18.4302 10 18.9609 10H21.7266H23.7656Z" fill="#B4B3BB"/>
<path d="M4.29428 6.81525H8.98103C9.18272 6.81525 9.34619 6.64814 9.34619 6.44195C9.34619 6.23577 9.18272 6.06866 8.98103 6.06866H4.29428C4.09259 6.06866 3.92912 6.23577 3.92912 6.44195C3.92912 6.64814 4.09259 6.81525 4.29428 6.81525Z" fill="#C3C2C9"/>
<path d="M8.98103 9.41038H4.29428C4.09259 9.41038 3.92912 9.24327 3.92912 9.03709C3.92912 8.8309 4.09259 8.66379 4.29428 8.66379H8.98103C9.18272 8.66379 9.34619 8.8309 9.34619 9.03709C9.34619 9.24327 9.18272 9.41038 8.98103 9.41038Z" fill="#C3C2C9"/>
<path fill-rule="evenodd" clip-rule="evenodd" d="M12.1054 1H1.36516C1.16347 1 1 1.16711 1 1.3733V15.6268C1 15.7749 1.08573 15.9091 1.21853 15.9686C1.35147 16.0281 1.50609 16.0017 1.61264 15.9012L2.88314 14.7035C3.02108 14.5725 3.2339 14.5708 3.37383 14.6994L4.20656 15.4592C4.62364 15.8406 5.25497 15.8388 5.66991 15.4552L6.49052 14.6982C6.62946 14.5695 6.84113 14.5695 6.97992 14.6982L7.80068 15.4552C8.21562 15.8389 8.84695 15.8407 9.26388 15.4592L10.0968 14.6994C10.2367 14.5708 10.4495 14.5725 10.5874 14.7035L11.8578 15.9012C11.9645 16.0017 12.1191 16.0281 12.2519 15.9686C12.3847 15.9091 12.4706 15.7749 12.4706 15.6268V1.3733C12.4706 1.16711 12.307 1 12.1054 1ZM11.7403 14.7746L11.0826 14.1546C10.6688 13.7621 10.0304 13.7567 9.61036 14.1422L8.77762 14.9021C8.63855 15.0292 8.42815 15.0286 8.28979 14.9008L7.46918 14.1438C7.05281 13.758 6.41806 13.758 6.00155 14.1438L5.1808 14.9009C5.04244 15.0286 4.83204 15.0292 4.69311 14.9022L3.86023 14.1423C3.4403 13.7567 2.80198 13.7621 2.38818 14.1546L1.73046 14.7748V1.74674H11.7403V14.7746Z" fill="#C3C2C9"/>
<path d="M4.29428 6.81525H8.98103C9.18272 6.81525 9.34619 6.64814 9.34619 6.44195C9.34619 6.23577 9.18272 6.06866 8.98103 6.06866H4.29428C4.09259 6.06866 3.92912 6.23577 3.92912 6.44195C3.92912 6.64814 4.09259 6.81525 4.29428 6.81525Z" stroke="#B4B3BB" stroke-width="0.8"/>
<path d="M8.98103 9.41038H4.29428C4.09259 9.41038 3.92912 9.24327 3.92912 9.03709C3.92912 8.8309 4.09259 8.66379 4.29428 8.66379H8.98103C9.18272 8.66379 9.34619 8.8309 9.34619 9.03709C9.34619 9.24327 9.18272 9.41038 8.98103 9.41038Z" stroke="#B4B3BB" stroke-width="0.8"/>
<path fill-rule="evenodd" clip-rule="evenodd" d="M12.1054 1H1.36516C1.16347 1 1 1.16711 1 1.3733V15.6268C1 15.7749 1.08573 15.9091 1.21853 15.9686C1.35147 16.0281 1.50609 16.0017 1.61264 15.9012L2.88314 14.7035C3.02108 14.5725 3.2339 14.5708 3.37383 14.6994L4.20656 15.4592C4.62364 15.8406 5.25497 15.8388 5.66991 15.4552L6.49052 14.6982C6.62946 14.5695 6.84113 14.5695 6.97992 14.6982L7.80068 15.4552C8.21562 15.8389 8.84695 15.8407 9.26388 15.4592L10.0968 14.6994C10.2367 14.5708 10.4495 14.5725 10.5874 14.7035L11.8578 15.9012C11.9645 16.0017 12.1191 16.0281 12.2519 15.9686C12.3847 15.9091 12.4706 15.7749 12.4706 15.6268V1.3733C12.4706 1.16711 12.307 1 12.1054 1ZM11.7403 14.7746L11.0826 14.1546C10.6688 13.7621 10.0304 13.7567 9.61036 14.1422L8.77762 14.9021C8.63855 15.0292 8.42815 15.0286 8.28979 14.9008L7.46918 14.1438C7.05281 13.758 6.41806 13.758 6.00155 14.1438L5.1808 14.9009C5.04244 15.0286 4.83204 15.0292 4.69311 14.9022L3.86023 14.1423C3.4403 13.7567 2.80198 13.7621 2.38818 14.1546L1.73046 14.7748V1.74674H11.7403V14.7746Z" stroke="#B4B3BB" stroke-width="0.8"/>
</svg>
