<svg width="16" height="16" viewBox="0 0 16 16" fill="none" xmlns="http://www.w3.org/2000/svg">
<path d="M13.5314 2.47072C12.0533 0.993412 10.0903 0.177778 7.99944 0.177778C5.90858 0.177778 3.94553 0.993412 2.46751 2.47072C-0.383663 5.32053 -0.590127 9.87367 1.94971 12.9593C1.59905 13.6767 1.18612 14.1549 0.71748 14.3842C0.432362 14.5251 0.271779 14.833 0.31766 15.1474C0.366818 15.4652 0.609332 15.7109 0.927221 15.76C1.10091 15.7862 1.28771 15.8026 1.48107 15.8026C2.44129 15.8026 3.45067 15.4717 4.29291 14.8919C5.42683 15.5012 6.70166 15.8222 7.99944 15.8222C10.0903 15.8222 12.0533 15.0099 13.5314 13.5326C15.0094 12.0552 15.8221 10.0899 15.8221 8.00328C15.8221 5.91669 15.0094 3.94804 13.5314 2.47072ZM12.9054 12.9036C11.5945 14.2139 9.85106 14.9345 7.99944 14.9345C6.76065 14.9345 5.54481 14.6037 4.48627 13.9813C4.41745 13.942 4.3388 13.9191 4.26342 13.9191C4.16838 13.9191 4.07007 13.9518 3.99141 14.0108C2.98859 14.7871 1.97921 14.9018 1.53678 14.9116C2.06441 14.5185 2.50684 13.9093 2.87716 13.0609C2.94598 12.9036 2.91649 12.7202 2.80178 12.5892C0.376649 9.85073 0.504461 5.67757 3.09346 3.08982C4.40434 1.77956 6.14782 1.05892 7.99944 1.05892C9.85106 1.05892 11.5945 1.77956 12.9054 3.08982C15.6124 5.79877 15.6124 10.2012 12.9054 12.9036Z" fill="#BFC0C4"/>
<path d="M11.2768 5.4188H4.72243C4.47664 5.4188 4.28 5.61533 4.28 5.86101C4.28 6.10668 4.47664 6.30322 4.72243 6.30322H11.2768C11.5226 6.30322 11.7193 6.10668 11.7193 5.86101C11.7193 5.61533 11.5194 5.4188 11.2768 5.4188Z" fill="#BFC0C4"/>
<path d="M11.2768 7.55779H4.72243C4.47664 7.55779 4.28 7.75433 4.28 8.00001C4.28 8.24569 4.47664 8.44223 4.72243 8.44223H11.2768C11.5226 8.44223 11.7193 8.24569 11.7193 8.00001C11.7193 7.75433 11.5194 7.55779 11.2768 7.55779Z" fill="#BFC0C4"/>
<path d="M9.14351 9.69678H4.72243C4.47664 9.69678 4.28 9.89332 4.28 10.139C4.28 10.3847 4.47664 10.5812 4.72243 10.5812H9.14351C9.3893 10.5812 9.58594 10.3847 9.58594 10.139C9.58594 9.89332 9.38603 9.69678 9.14351 9.69678Z" fill="#BFC0C4"/>
<path fill-rule="evenodd" clip-rule="evenodd" d="M2.34174 2.34502C3.853 0.834479 5.86125 0 7.99944 0C10.1376 0 12.1459 0.834479 13.6571 2.34502C15.1686 3.85577 16 5.86969 16 8.00328C16 10.1369 15.1686 12.1476 13.6571 13.6583C12.1457 15.1689 10.1374 16 7.99944 16C6.70858 16 5.43975 15.6894 4.30396 15.0989C3.45313 15.6599 2.44622 15.9803 1.48107 15.9803C1.27777 15.9803 1.08205 15.9631 0.900675 15.9358C0.505051 15.8746 0.202721 15.5678 0.141886 15.1746L0.141659 15.1731C0.0847286 14.7829 0.284048 14.4 0.638671 14.2248C1.03671 14.0301 1.40954 13.6235 1.73931 12.9822C-0.781328 9.828 -0.546649 5.23202 2.34174 2.34502ZM7.99944 0.355556C5.95591 0.355556 4.03806 1.15234 2.59328 2.59643C-0.193062 5.38144 -0.394681 9.8313 2.08706 12.8464L2.15973 12.9346L2.10952 13.0374C1.75037 13.7721 1.3146 14.2899 0.795987 14.5437C0.58079 14.6502 0.459102 14.8827 0.493552 15.121C0.531275 15.3628 0.714266 15.547 0.953947 15.5842C1.11991 15.6093 1.29772 15.6248 1.48107 15.6248C2.40217 15.6248 3.37681 15.3067 4.19203 14.7455L4.28147 14.684L4.37713 14.7354C5.48507 15.3307 6.73096 15.6444 7.99944 15.6444C10.0432 15.6444 11.961 14.8508 13.4056 13.4068C14.8502 11.9629 15.6443 10.0428 15.6443 8.00328C15.6443 5.9637 14.8502 4.0403 13.4056 2.59643C11.9608 1.15234 10.043 0.355556 7.99944 0.355556ZM7.99944 1.2367C6.19494 1.2367 4.49672 1.93865 3.21922 3.21553C0.696665 5.73688 0.572207 9.80334 2.93497 12.4713C3.09404 12.653 3.13717 12.9104 3.04011 13.1321C2.76104 13.7714 2.43799 14.2868 2.06254 14.6808C2.54992 14.5963 3.21738 14.3851 3.8825 13.8702L3.88468 13.8686C3.99359 13.7869 4.12924 13.7413 4.26342 13.7413C4.37352 13.7413 4.4823 13.7743 4.57452 13.827L4.57646 13.8281C5.60753 14.4343 6.79222 14.7567 7.99944 14.7567C9.80394 14.7567 11.5022 14.0548 12.7797 12.7779C15.417 10.1451 15.4173 5.85516 12.7797 3.21553C11.5022 1.93865 9.80394 1.2367 7.99944 1.2367ZM2.96769 2.96411C4.31196 1.62048 6.10069 0.881146 7.99944 0.881146C9.89819 0.881146 11.6869 1.62048 13.0312 2.96411C15.8074 5.74239 15.8077 10.2575 13.0311 13.0294C11.6868 14.373 9.89815 15.1123 7.99944 15.1123C6.72951 15.1123 5.48292 14.7733 4.39717 14.1352L4.48627 13.9813L4.39609 14.1345L4.39717 14.1352C4.35199 14.1096 4.30381 14.0969 4.26342 14.0969C4.20789 14.0969 4.14732 14.1165 4.09907 14.1523L4.10032 14.1513L3.99141 14.0108L4.09813 14.153L4.09907 14.1523C3.05655 14.9588 2.00607 15.079 1.54073 15.0893L0.983983 15.1017L1.43049 14.7691C1.92539 14.4004 2.35152 13.8205 2.71414 12.9898C2.75466 12.8972 2.73831 12.7869 2.66826 12.7066C0.181104 9.89775 0.312377 5.61815 2.96769 2.96411ZM4.10214 5.86101C4.10214 5.51715 4.37841 5.24102 4.72243 5.24102H11.2768C11.6167 5.24102 11.8971 5.51629 11.8971 5.86101C11.8971 6.20486 11.6209 6.481 11.2768 6.481H4.72243C4.37841 6.481 4.10214 6.20486 4.10214 5.86101ZM4.72243 5.59657C4.57487 5.59657 4.45787 5.71352 4.45787 5.86101C4.45787 6.0085 4.57487 6.12544 4.72243 6.12544H11.2768C11.4244 6.12544 11.5414 6.0085 11.5414 5.86101C11.5414 5.71437 11.422 5.59657 11.2768 5.59657H4.72243ZM4.10214 8.00001C4.10214 7.65615 4.3784 7.38001 4.72243 7.38001H11.2768C11.6167 7.38001 11.8971 7.6553 11.8971 8.00001C11.8971 8.34387 11.6209 8.62 11.2768 8.62H4.72243C4.3784 8.62 4.10214 8.34387 4.10214 8.00001ZM4.72243 7.73557C4.57487 7.73557 4.45787 7.85252 4.45787 8.00001C4.45787 8.1475 4.57487 8.26445 4.72243 8.26445H11.2768C11.4244 8.26445 11.5414 8.1475 11.5414 8.00001C11.5414 7.85337 11.422 7.73557 11.2768 7.73557H4.72243ZM4.10214 10.139C4.10214 9.79513 4.37841 9.519 4.72243 9.519H9.14351C9.4834 9.519 9.7638 9.79427 9.7638 10.139C9.7638 10.4828 9.48753 10.759 9.14351 10.759H4.72243C4.37841 10.759 4.10214 10.4828 4.10214 10.139ZM4.72243 9.87455C4.57487 9.87455 4.45787 9.9915 4.45787 10.139C4.45787 10.2865 4.57487 10.4034 4.72243 10.4034H9.14351C9.29107 10.4034 9.40807 10.2865 9.40807 10.139C9.40807 9.99236 9.28866 9.87455 9.14351 9.87455H4.72243Z" fill="#BFC0C4"/>
</svg>
