<svg width="14" height="14" viewBox="0 0 14 14" fill="none" xmlns="http://www.w3.org/2000/svg">
<path d="M6.75586 7.9505C6.76642 7.9505 6.77698 7.9505 6.78966 7.9505C6.79388 7.9505 6.7981 7.9505 6.80233 7.9505C6.80867 7.9505 6.81712 7.9505 6.82345 7.9505C7.2835 7.94265 7.67819 7.82042 8.00232 7.5873C8.0448 7.55674 8.08606 7.52428 8.12611 7.48993C8.19159 7.43375 8.25379 7.37251 8.31267 7.30622C9.12594 6.38945 8.99075 4.81785 8.97596 4.66787C8.92315 3.54197 8.39083 3.00332 7.95146 2.75195C7.62404 2.56394 7.2417 2.46255 6.815 2.4541H6.80022C6.7981 2.4541 6.79388 2.4541 6.79177 2.4541H6.77909C6.54462 2.4541 6.08412 2.49212 5.64264 2.7435C5.19904 2.99487 4.65827 3.53352 4.60546 4.66787C4.59068 4.81785 4.45549 6.38945 5.26875 7.30622C5.32477 7.36965 5.38389 7.42847 5.44604 7.48264C5.49292 7.52349 5.54152 7.56171 5.59182 7.59726C5.91247 7.82391 6.30241 7.94276 6.75586 7.9505ZM5.16947 4.72068C5.16947 4.71434 5.17158 4.708 5.17158 4.70378C5.24129 3.18921 6.31648 3.02655 6.77698 3.02655H6.78543C6.78966 3.02655 6.79599 3.02655 6.80233 3.02655C7.37267 3.03923 8.34225 3.27159 8.40773 4.70378C8.40773 4.71012 8.40773 4.71645 8.40984 4.72068C8.41196 4.73546 8.55982 6.17188 7.88809 6.92811C7.62193 7.22806 7.26705 7.37593 6.80022 7.38015C6.79599 7.38015 6.79388 7.38015 6.78966 7.38015C6.78543 7.38015 6.78332 7.38015 6.77909 7.38015C6.31437 7.37593 5.95738 7.22806 5.69334 6.92811C5.02371 6.1761 5.16736 4.73335 5.16947 4.72068Z" fill="#C3C2C9"/>
<path d="M5.59182 7.59726C5.54152 7.56171 5.49292 7.52349 5.44604 7.48264C5.36241 7.45344 5.26659 7.46352 5.18858 7.51852C5.18013 7.52485 4.39221 8.07407 3.43531 8.31699C3.42686 8.31911 3.42052 8.32122 3.41418 8.32333C2.49974 8.63727 2.4701 9.61113 2.45737 10.0291L2.45728 10.0322C2.45728 10.0513 2.45728 10.0682 2.45516 10.0851V10.0914C2.45305 10.2012 2.45094 12.2198 2.5629 12.5028C2.58402 12.5578 2.62204 12.6042 2.67274 12.6359L3.18186 12.9996C3.14806 12.8306 3.01917 10.2921 3.02339 10.102C3.02339 10.0851 3.02551 10.0682 3.02551 10.0491C3.04029 9.56752 3.09521 9.04154 3.5874 8.86621C4.63936 8.59583 5.48008 8.00859 5.51599 7.98535C5.64186 7.89662 5.67501 7.72526 5.59182 7.59726Z" fill="#C3C2C9"/>
<path d="M8.12611 7.48993C8.08606 7.52428 8.0448 7.55674 8.00232 7.5873L8.00014 7.59034C7.90931 7.71919 7.941 7.89663 8.06985 7.98746C8.10576 8.01281 8.94649 8.59794 9.99845 8.86832C10.4906 9.04365 10.5456 9.56963 10.5603 10.0513C10.5603 10.0703 10.5603 10.0872 10.5625 10.1041C10.5646 10.2942 10.4884 12.8306 10.4546 12.9996L10.9194 12.6359C10.968 12.6042 11.0082 12.5578 11.0293 12.5028C11.1349 12.2219 11.1328 10.2033 11.1307 10.0935V10.0872C11.1307 10.0703 11.1286 10.0534 11.1286 10.0344L11.1285 10.0314C11.1158 9.61145 11.0863 8.63733 10.1717 8.32544C10.1653 8.32333 10.1569 8.32122 10.1505 8.31911C9.19786 8.07618 8.40572 7.52696 8.39727 7.52063C8.31496 7.46261 8.21283 7.45458 8.12611 7.48993Z" fill="#C3C2C9"/>
<path d="M11.1307 10.0935C11.1307 10.0914 11.1307 10.0893 11.1307 10.0872M11.1307 10.0935C11.1328 10.2033 11.1349 12.2219 11.0293 12.5028C11.0082 12.5578 10.968 12.6042 10.9194 12.6359L10.4546 12.9996C10.4884 12.8306 10.5646 10.2942 10.5625 10.1041C10.5603 10.0872 10.5603 10.0703 10.5603 10.0513C10.5456 9.56963 10.4906 9.04365 9.99845 8.86832C8.94649 8.59794 8.10576 8.01281 8.06985 7.98746C7.941 7.89663 7.90931 7.71919 8.00014 7.59034L8.00232 7.5873M11.1307 10.0935V10.0872M11.1307 10.0872C11.1307 10.0703 11.1286 10.0534 11.1286 10.0344L11.1285 10.0314C11.1158 9.61145 11.0863 8.63733 10.1717 8.32544C10.1653 8.32333 10.1569 8.32122 10.1505 8.31911C9.19786 8.07618 8.40572 7.52696 8.39727 7.52063C8.31496 7.46261 8.21283 7.45458 8.12611 7.48993M2.45516 10.0851C2.45728 10.0682 2.45728 10.0513 2.45728 10.0322L2.45737 10.0291C2.4701 9.61113 2.49974 8.63727 3.41418 8.32333C3.42052 8.32122 3.42686 8.31911 3.43531 8.31699C4.39221 8.07407 5.18013 7.52485 5.18858 7.51852C5.26659 7.46352 5.36241 7.45344 5.44604 7.48264M2.45516 10.0851C2.45516 10.0872 2.45516 10.0893 2.45516 10.0914M2.45516 10.0851V10.0914M2.45516 10.0914C2.45305 10.2012 2.45094 12.2198 2.5629 12.5028C2.58402 12.5578 2.62204 12.6042 2.67274 12.6359L3.18186 12.9996C3.14806 12.8306 3.01917 10.2921 3.02339 10.102C3.02339 10.0851 3.02551 10.0682 3.02551 10.0491C3.04029 9.56752 3.09521 9.04154 3.5874 8.86621C4.63936 8.59583 5.48008 8.00859 5.51599 7.98535C5.64186 7.89662 5.67501 7.72526 5.59182 7.59726M5.59182 7.59726C5.54152 7.5617 5.49292 7.52349 5.44604 7.48264M5.59182 7.59726C5.58985 7.59423 5.58781 7.59121 5.5857 7.58822C5.54986 7.53738 5.50054 7.50167 5.44604 7.48264M5.59182 7.59726C5.91246 7.82391 6.30241 7.94276 6.75586 7.9505C6.76642 7.9505 6.77698 7.9505 6.78966 7.9505C6.79388 7.9505 6.7981 7.9505 6.80233 7.9505C6.80867 7.9505 6.81712 7.9505 6.82345 7.9505C7.2835 7.94265 7.67819 7.82042 8.00232 7.5873M5.44604 7.48264C5.38389 7.42847 5.32477 7.36965 5.26875 7.30622C4.45549 6.38945 4.59068 4.81785 4.60546 4.66787C4.65827 3.53352 5.19904 2.99487 5.64264 2.7435C6.08412 2.49212 6.54462 2.4541 6.77909 2.4541H6.79177C6.79388 2.4541 6.7981 2.4541 6.80022 2.4541H6.815C7.2417 2.46255 7.62404 2.56394 7.95146 2.75195C8.39083 3.00332 8.92315 3.54197 8.97596 4.66787C8.99075 4.81785 9.12594 6.38945 8.31267 7.30622C8.25379 7.37251 8.19159 7.43375 8.12611 7.48993M8.12611 7.48993C8.08606 7.52429 8.0448 7.55674 8.00232 7.5873M8.12611 7.48993C8.07814 7.50949 8.03489 7.54231 8.00232 7.5873M5.16947 4.72068C5.16947 4.71434 5.17158 4.708 5.17158 4.70378C5.24129 3.18921 6.31648 3.02655 6.77698 3.02655H6.78543C6.78966 3.02655 6.79599 3.02655 6.80233 3.02655C7.37267 3.03923 8.34225 3.27159 8.40773 4.70378C8.40773 4.71012 8.40773 4.71645 8.40984 4.72068C8.41196 4.73546 8.55982 6.17188 7.88809 6.92811C7.62193 7.22806 7.26705 7.37593 6.80022 7.38015C6.79599 7.38015 6.79388 7.38015 6.78966 7.38015C6.78543 7.38015 6.78332 7.38015 6.77909 7.38015C6.31437 7.37593 5.95738 7.22806 5.69334 6.92811C5.02371 6.1761 5.16736 4.73335 5.16947 4.72068Z" stroke="#C3C2C9" stroke-width="0.3"/>
<rect x="0.5" y="0.5" width="12.6364" height="12.6364" rx="2.5" stroke="#C3C2C9"/>
</svg>
