<svg width="15" height="14" viewBox="0 0 15 14" fill="none" xmlns="http://www.w3.org/2000/svg">
<path d="M7.20172 0.960078C3.76008 0.960078 0.960343 3.75982 0.960343 7.20146C0.960343 8.47325 1.34348 9.65673 1.99928 10.6443L0.926491 12.7829C0.718351 13.1978 0.885931 13.7026 1.30076 13.9105C1.42173 13.9712 1.55016 14 1.6767 14C1.98445 14 2.28117 13.8303 2.42831 13.5362L3.20416 11.9898C4.28776 12.896 5.68198 13.4426 7.20199 13.4426C8.64374 13.4426 9.97172 12.95 11.0296 12.1259L11.7371 13.5362C11.8842 13.8303 12.1809 14 12.4887 14C12.6152 14 12.7436 13.9712 12.8646 13.9105C13.2795 13.7026 13.447 13.1975 13.2389 12.7829L12.2659 10.8436C13.0057 9.81782 13.4434 8.5602 13.4434 7.2015C13.4431 3.75982 10.6434 0.960078 7.20172 0.960078ZM7.20172 11.7625C4.6867 11.7625 2.64073 9.71649 2.64073 7.20146C2.64073 4.68643 4.6867 2.64043 7.20172 2.64043C9.71675 2.64043 11.7627 4.68639 11.7627 7.20142C11.7627 9.71644 9.71675 11.7625 7.20172 11.7625Z" fill="#A2A2A3"/>
<path d="M7.20172 4.87581C6.93669 4.87581 6.72162 5.09088 6.72162 5.35591V7.17599L4.78366 9.456C4.6118 9.65788 4.63652 9.96108 4.83865 10.1325C4.92891 10.2093 5.03933 10.2469 5.14927 10.2469C5.28517 10.2469 5.42031 10.1896 5.51511 10.0777L7.50754 7.73359C7.61315 7.6455 7.68182 7.51469 7.68182 7.3663V5.35587C7.68182 5.09088 7.46698 4.87581 7.20172 4.87581Z" fill="#A2A2A3"/>
<path d="M4.13214 0.708994C3.18682 -0.236331 1.65432 -0.236331 0.708994 0.708994C-0.236331 1.65432 -0.236331 3.18682 0.708994 4.13214L4.13214 0.708994Z" fill="#A2A2A3"/>
<path d="M13.7456 0.708994C12.8002 -0.236331 11.2677 -0.236331 10.3224 0.708994L13.7456 4.13214C14.6909 3.18682 14.6909 1.65405 13.7456 0.708994Z" fill="#A2A2A3"/>
</svg>
