<svg width="13" height="13" viewBox="0 0 13 13" fill="none" xmlns="http://www.w3.org/2000/svg">
<path d="M8.25352 6.50015L12.6369 10.8835C13.1211 11.3677 13.1211 12.1527 12.6369 12.6369C12.1527 13.121 11.3677 13.121 10.8835 12.6369L6.50017 8.25352L2.11681 12.6369C1.63262 13.121 0.847605 13.121 0.363427 12.6369C-0.120745 12.1527 -0.120739 11.3677 0.36344 10.8835L4.74682 6.50015L0.363138 2.11651C-0.121041 1.63233 -0.121047 0.847327 0.363125 0.363144C0.847302 -0.121044 1.63232 -0.121049 2.1165 0.363133L6.50017 4.74678L10.8838 0.363133C11.368 -0.121049 12.153 -0.121044 12.6372 0.363144C13.1214 0.847327 13.1214 1.63233 12.6372 2.11651L8.25352 6.50015Z" fill="black"/>
</svg>
