<svg width="14" height="16" viewBox="0 0 14 16" fill="none" xmlns="http://www.w3.org/2000/svg">
<path d="M10.3158 0.727273C10.3158 0.325611 9.99018 0 9.58852 0H1.47368C0.663158 0 0 0.654545 0 1.45455V10.8995C0 11.3065 0.329896 11.6364 0.736842 11.6364C1.14379 11.6364 1.47368 11.3065 1.47368 10.8995V1.45455H9.58852C9.99018 1.45455 10.3158 1.12893 10.3158 0.727273ZM12.5263 2.90909H4.42105C3.61053 2.90909 2.94737 3.56364 2.94737 4.36364V14.5455C2.94737 15.3455 3.61053 16 4.42105 16H12.5263C13.3368 16 14 15.3455 14 14.5455V4.36364C14 3.56364 13.3368 2.90909 12.5263 2.90909ZM12.5263 14.5455H4.42105V4.36364H12.5263V14.5455Z" fill="#BFC0C4"/>
</svg>
