<svg width="31" height="30" viewBox="0 0 31 30" fill="none" xmlns="http://www.w3.org/2000/svg">
<path d="M16.9245 7.4596C18.8599 7.98612 21.002 8.3893 22.7734 7.44854L26.5851 5.42427C23.5437 1.76744 18.8152 -0.388212 13.7133 0.0581404C5.44967 0.781118 -0.664072 8.0569 0.0578991 16.3091C0.77987 24.5612 8.06416 30.6648 16.3278 29.9419C24.5915 29.2189 30.7052 21.9431 29.9833 13.6909C29.8937 12.6675 29.7033 11.6771 29.4225 10.7287L29.3848 10.7321L24.988 12.959C23.2496 13.8395 22.3388 15.7373 21.6675 17.5667C20.6877 20.2372 18.2714 22.234 15.2938 22.4945C11.1619 22.856 7.89437 19.7137 7.52617 15.5051C7.15796 11.2965 10.209 7.59172 14.3408 7.23023C15.2341 7.15208 16.1047 7.23659 16.9245 7.4596Z" fill="url(#paint0_linear)"/>
<defs>
<linearGradient id="paint0_linear" x1="15.0206" y1="0" x2="15.0206" y2="30" gradientUnits="userSpaceOnUse">
<stop stop-color="white"/>
<stop offset="1" stop-color="white"/>
</linearGradient>
</defs>
</svg>
