<svg width="156" height="40" viewBox="0 0 156 40" fill="none" xmlns="http://www.w3.org/2000/svg">
<path d="M114.394 0H121.824V39.9983H118.484C116.225 39.9983 114.394 38.1674 114.394 35.9088C112.206 38.6351 109.096 39.9983 105.065 39.9983C101.187 39.9983 97.866 38.5791 95.1017 35.7408C92.3757 32.8651 91.0128 29.3545 91.0128 25.209C91.0128 21.0635 92.3757 17.5716 95.1017 14.7333C97.866 11.8576 101.187 10.4197 105.065 10.4197C109.096 10.4197 112.206 11.7829 114.394 14.5092V0ZM100.688 30.9231C102.224 32.3796 104.143 33.1078 106.447 33.1078C108.751 33.1078 110.651 32.3796 112.148 30.9231C113.646 29.4292 114.394 27.5245 114.394 25.209C114.394 22.8935 113.646 21.0075 112.148 19.551C110.651 18.0571 108.751 17.3102 106.447 17.3102C104.143 17.3102 102.224 18.0571 100.688 19.551C99.1906 21.0075 98.4419 22.8935 98.4419 25.209C98.4419 27.5245 99.1906 29.4292 100.688 30.9231Z" fill="white"/>
<path d="M147.797 9.23208H155.567V40H151.987C149.673 40 147.797 38.124 147.797 35.8098C145.91 38.6033 142.918 40 138.823 40C135.53 40 132.799 38.9026 130.631 36.7077C128.503 34.5129 127.439 31.48 127.439 27.609V9.23208H135.209V26.6513C135.209 28.6466 135.751 30.183 136.835 31.2605C137.919 32.298 139.365 32.8168 141.172 32.8168C143.179 32.8168 144.785 32.1983 145.99 30.9612C147.195 29.7241 147.797 27.8684 147.797 25.3942V9.23208Z" fill="white"/>
<path d="M17.359 16.8809C19.3441 17.421 21.5411 17.8345 23.358 16.8696L27.2676 14.7934C24.148 11.0427 19.2982 8.83167 14.0654 9.28948C5.58956 10.031 -0.681119 17.4936 0.0593854 25.9576C0.79989 34.4216 8.27116 40.6819 16.747 39.9403C25.2228 39.1988 31.4934 31.7362 30.7529 23.2722C30.6611 22.2225 30.4657 21.2067 30.1778 20.234L30.1391 20.2374L25.6294 22.5215C23.8464 23.4246 22.9122 25.3711 22.2237 27.2475C21.2188 29.9865 18.7404 32.0346 15.6864 32.3018C11.4485 32.6726 8.09702 29.4496 7.71936 25.133C7.34171 20.8163 10.471 17.0164 14.7089 16.6457C15.6251 16.5655 16.5181 16.6522 17.359 16.8809Z" fill="white"/>
<path d="M55.9196 10.9086C55.9196 11.0322 55.8736 11.1513 55.7917 11.2439C54.4213 12.7943 53.3448 14.4924 52.5621 16.3383C52.1629 17.2799 51.303 17.9639 50.2871 18.0815C48.18 18.3252 46.149 18.7531 45.2429 19.3652C43.4362 20.612 42.5329 22.6833 42.5329 25.5791V39.9978H34.9332V9.83314H42.5329V15.0215C43.2399 13.0909 44.3985 11.643 46.0087 10.6778C47.6583 9.71248 53.9166 9.22985 55.9196 9.22985V10.9086Z" fill="white"/>
<path fill-rule="evenodd" clip-rule="evenodd" d="M72.3107 33.1375C67.7417 33.1375 64.9407 31.3116 63.9077 27.6598H86.3752C86.5738 26.5721 86.6731 25.5426 86.6731 24.5714C86.6731 20.2204 85.2429 16.5686 82.3823 13.6162C79.5614 10.6637 75.9658 9.18744 71.5955 9.18744C66.9868 9.18744 63.2124 10.6637 60.2724 13.6162C57.3324 16.5298 55.8623 20.1815 55.8623 24.5714C55.8623 29.0001 57.3522 32.6713 60.332 35.5849C63.3118 38.4985 67.2649 39.9554 72.1915 39.9554C77.888 39.9554 82.206 37.8948 85.1453 33.7737L81.498 32.2277C79.6172 31.4304 77.4671 32.0149 75.529 32.6602C74.5733 32.9784 73.5006 33.1375 72.3107 33.1375ZM78.9853 21.8326H63.7885C64.2256 19.9679 65.1195 18.5305 66.4703 17.5204C67.8211 16.4715 69.5295 15.9471 71.5955 15.9471C73.3436 15.9471 74.8931 16.4327 76.2439 17.4039C77.6345 18.3751 78.5483 19.8513 78.9853 21.8326Z" fill="white"/>
</svg>
