<svg width="1208" height="322" viewBox="0 0 1208 322" fill="none" xmlns="http://www.w3.org/2000/svg">
<path d="M890.622 2H888.622V4V112.165C871.297 93.0632 847.538 83.5738 817.582 83.5738C786.663 83.5738 760.148 95.0648 738.141 117.958L738.141 117.958C716.422 140.573 705.572 168.416 705.572 201.356C705.572 234.296 716.421 262.279 738.132 285.183L738.141 285.193L738.15 285.202C760.159 307.8 786.672 319.138 817.582 319.138C847.75 319.138 871.634 309.514 888.989 290.14C891.415 306.547 905.556 319.138 922.637 319.138H948.783H950.783V317.138V4V2H948.783H890.622ZM871.626 158.476L871.635 158.485L871.644 158.494C882.935 169.478 888.622 183.704 888.622 201.356C888.622 219.004 882.937 233.385 871.633 244.667C860.326 255.66 845.97 261.194 828.403 261.194C810.841 261.194 796.326 255.663 784.712 244.657C773.415 233.377 767.733 218.999 767.733 201.356C767.733 183.704 773.42 169.478 784.711 158.494C796.331 147.191 810.846 141.518 828.403 141.518C845.96 141.518 860.314 147.19 871.626 158.476ZM1143.17 74.2585H1141.17V76.2585V202.788C1141.17 221.863 1136.53 235.8 1127.59 244.976C1118.6 254.211 1106.58 258.898 1091.3 258.898C1077.57 258.898 1066.79 254.97 1058.75 247.281C1050.75 239.327 1046.62 227.879 1046.62 212.63V76.2585V74.2585H1044.62H983.793H981.793V76.2585V220.128C981.793 250.807 990.236 275.103 1007.35 292.752L1007.35 292.758L1007.36 292.765C1024.74 310.356 1046.64 319.134 1072.91 319.134C1103.27 319.134 1126.29 309.451 1141.61 289.875C1144.27 306.461 1158.64 319.134 1175.98 319.134H1204H1206V317.134V76.2585V74.2585H1204H1143.17ZM218.41 121.582L220.583 120.429L219.009 118.537C194.186 88.6907 155.587 71.0914 113.94 74.735C46.4874 80.6364 -3.42122 140.027 2.47253 207.393C8.36627 274.758 67.8297 324.58 135.283 318.679C202.736 312.777 252.644 253.387 246.75 186.021C246.02 177.669 244.465 169.585 242.173 161.842L241.709 160.275L240.081 160.417L239.778 160.444L239.393 160.478L239.049 160.652L203.744 178.534C189.024 185.989 181.496 201.942 176.107 216.628C168.491 237.385 149.724 252.873 126.631 254.893C94.7174 257.685 69.3009 233.453 66.4256 200.588C63.5623 167.86 87.2846 139.113 119.327 136.31C126.261 135.703 133.016 136.359 139.374 138.089C154.875 142.306 172.807 145.801 187.803 137.837L218.41 121.582ZM363.164 85.8805C352.754 92.1209 344.695 100.851 338.981 112.007V80.9836V78.9836H336.981H277.485H275.485V80.9836V317.136V319.136H277.485H336.981H338.981V317.136V204.255C338.981 182.014 345.893 166.533 359.324 157.26C362.561 155.076 368.013 153.108 374.886 151.446C381.706 149.796 389.72 148.493 397.917 147.545C406.635 146.536 413.953 140.679 417.339 132.692C423.379 118.446 431.689 105.334 442.28 93.3527C443.237 92.2699 443.782 90.8689 443.782 89.403V76.2605V74.2605H441.782C433.843 74.2605 417.592 75.2125 401.713 77.1085C393.768 78.057 385.878 79.2463 379.142 80.6805C372.476 82.0999 366.712 83.8039 363.182 85.8697L363.173 85.875L363.164 85.8805ZM518.976 251.047C509.123 244.625 502.139 235.175 498.067 222.56H671.265H672.933L673.233 220.92C674.807 212.301 675.598 204.121 675.598 196.382C675.598 161.835 664.223 132.74 641.448 109.23C618.959 85.6932 590.275 73.9439 555.559 73.9439C519.01 73.9439 488.931 85.6703 465.498 109.201C442.082 132.411 430.387 161.52 430.387 196.382C430.387 231.554 442.242 260.822 465.981 284.034C489.749 307.275 521.235 318.819 560.224 318.819C605.374 318.819 639.827 302.447 663.265 269.586L664.713 267.556L662.417 266.583L633.863 254.48C618.355 247.906 600.817 252.783 585.721 257.81C578.476 260.222 570.296 261.444 561.157 261.444C543.523 261.444 529.517 257.918 518.976 251.047ZM610.883 172.94H497.006C500.519 159.936 507.078 149.927 516.632 142.783L516.647 142.772L516.661 142.761C526.817 134.875 539.734 130.864 555.559 130.864C568.848 130.864 580.565 134.547 590.783 141.892L590.794 141.9L590.805 141.908C600.637 148.775 607.36 159.055 610.883 172.94Z" stroke="white" stroke-opacity="0.04" stroke-width="4"/>
</svg>
