<svg width="21" height="16" viewBox="0 0 21 16" fill="none" xmlns="http://www.w3.org/2000/svg">
<path d="M-0.000108719 14.3076V15.3292C-0.000108719 15.6996 0.30015 16 0.670713 16H8.67389C9.04445 16 9.34471 15.6996 9.34471 15.3292V14.3076C9.34471 13.9371 9.04445 13.6367 8.67389 13.6367H0.670713C0.30015 13.6367 -0.000108719 13.9371 -0.000108719 14.3076ZM1.13769 9.11361L1.40701 8.45898C1.56165 8.08314 1.92041 7.83842 2.32523 7.82965C2.33364 7.78753 2.34589 7.74549 2.36288 7.70426L2.57567 7.18692C2.44293 7.11411 2.33775 6.99837 2.2789 6.85723C2.21038 6.69301 2.20994 6.50832 2.27756 6.34374L3.34649 3.74524C3.47761 3.42656 3.8259 3.26333 4.14986 3.35536L4.36274 2.83793C4.37955 2.79706 4.4003 2.75824 4.42445 2.72193C4.15317 2.44009 4.05711 2.01381 4.21525 1.6292L4.48456 0.97457C4.72811 0.382547 5.29912 0 5.93935 0C6.14507 0 6.34622 0.0398916 6.53736 0.118512L9.97716 1.5335C10.7791 1.86336 11.1632 2.78418 10.8333 3.58621L10.5639 4.24112C10.4091 4.61713 10.0497 4.86185 9.64461 4.87017C9.6362 4.91221 9.62395 4.95407 9.60705 4.99512L9.39444 5.51192C9.5286 5.58464 9.63477 5.70118 9.69407 5.84331C9.75141 5.98087 9.76035 6.13257 9.72225 6.27496L9.88807 6.3432C10.0526 6.41082 10.1836 6.54114 10.252 6.70536C10.2984 6.81671 10.3128 6.93746 10.2966 7.05508L12.8288 8.09673C12.8821 8.05067 12.9425 8.01248 13.0087 7.98484C13.173 7.91633 13.3576 7.91588 13.5221 7.98359L20.0627 10.6743C20.4053 10.8153 20.5688 11.2072 20.4279 11.5499L19.9064 12.8177C19.8387 12.9823 19.7084 13.1131 19.5442 13.1817C19.4615 13.2161 19.3738 13.2333 19.2859 13.2333C19.1992 13.2333 19.1125 13.2165 19.0307 13.1829L12.4899 10.4923C12.248 10.3928 12.0961 10.1681 12.0768 9.92405L9.54479 8.88249C9.4736 8.97739 9.37843 9.05306 9.26698 9.09957C9.18434 9.134 9.09659 9.15126 9.00876 9.15126C8.922 9.15126 8.83533 9.13445 8.75349 9.10082L8.58731 9.03239C8.4662 9.24482 8.2417 9.37121 8.00539 9.37121C7.94368 9.37121 7.88115 9.36235 7.81962 9.34446L7.60692 9.86144C7.59011 9.90223 7.56954 9.94087 7.54548 9.977C7.81738 10.2588 7.91371 10.6856 7.75549 11.0704L7.48608 11.7252C7.24244 12.3172 6.67153 12.6997 6.0313 12.6997C5.82567 12.6997 5.62442 12.6598 5.43328 12.5812L1.99348 11.1662C1.19181 10.8365 0.807739 9.91564 1.13769 9.11361Z" fill="#481E8C"/>
</svg>
