<svg width="27" height="17" viewBox="0 0 27 17" fill="none" xmlns="http://www.w3.org/2000/svg">
<path d="M4.29428 6.81525H8.98103C9.18272 6.81525 9.34619 6.64814 9.34619 6.44195C9.34619 6.23577 9.18272 6.06866 8.98103 6.06866H4.29428C4.09259 6.06866 3.92912 6.23577 3.92912 6.44195C3.92912 6.64814 4.09259 6.81525 4.29428 6.81525Z" fill="#C3C2C9"/>
<path d="M8.98103 9.41038H4.29428C4.09259 9.41038 3.92912 9.24327 3.92912 9.03709C3.92912 8.8309 4.09259 8.66379 4.29428 8.66379H8.98103C9.18272 8.66379 9.34619 8.8309 9.34619 9.03709C9.34619 9.24327 9.18272 9.41038 8.98103 9.41038Z" fill="#C3C2C9"/>
<path fill-rule="evenodd" clip-rule="evenodd" d="M12.1054 1H1.36516C1.16347 1 1 1.16711 1 1.3733V15.6268C1 15.7749 1.08573 15.9091 1.21853 15.9686C1.35147 16.0281 1.50609 16.0017 1.61264 15.9012L2.88314 14.7035C3.02108 14.5725 3.2339 14.5708 3.37383 14.6994L4.20656 15.4592C4.62364 15.8406 5.25497 15.8388 5.66991 15.4552L6.49052 14.6982C6.62946 14.5695 6.84113 14.5695 6.97992 14.6982L7.80068 15.4552C8.21562 15.8389 8.84695 15.8407 9.26388 15.4592L10.0968 14.6994C10.2367 14.5708 10.4495 14.5725 10.5874 14.7035L11.8578 15.9012C11.9645 16.0017 12.1191 16.0281 12.2519 15.9686C12.3847 15.9091 12.4706 15.7749 12.4706 15.6268V1.3733C12.4706 1.16711 12.307 1 12.1054 1ZM11.7403 14.7746L11.0826 14.1546C10.6688 13.7621 10.0304 13.7567 9.61036 14.1422L8.77762 14.9021C8.63855 15.0292 8.42815 15.0286 8.28979 14.9008L7.46918 14.1438C7.05281 13.758 6.41806 13.758 6.00155 14.1438L5.1808 14.9009C5.04244 15.0286 4.83204 15.0292 4.69311 14.9022L3.86023 14.1423C3.4403 13.7567 2.80198 13.7621 2.38818 14.1546L1.73046 14.7748V1.74674H11.7403V14.7746Z" fill="#C3C2C9"/>
<path d="M4.29428 6.81525H8.98103C9.18272 6.81525 9.34619 6.64814 9.34619 6.44195C9.34619 6.23577 9.18272 6.06866 8.98103 6.06866H4.29428C4.09259 6.06866 3.92912 6.23577 3.92912 6.44195C3.92912 6.64814 4.09259 6.81525 4.29428 6.81525Z" stroke="#B4B3BB" stroke-width="0.8"/>
<path d="M8.98103 9.41038H4.29428C4.09259 9.41038 3.92912 9.24327 3.92912 9.03709C3.92912 8.8309 4.09259 8.66379 4.29428 8.66379H8.98103C9.18272 8.66379 9.34619 8.8309 9.34619 9.03709C9.34619 9.24327 9.18272 9.41038 8.98103 9.41038Z" stroke="#B4B3BB" stroke-width="0.8"/>
<path fill-rule="evenodd" clip-rule="evenodd" d="M12.1054 1H1.36516C1.16347 1 1 1.16711 1 1.3733V15.6268C1 15.7749 1.08573 15.9091 1.21853 15.9686C1.35147 16.0281 1.50609 16.0017 1.61264 15.9012L2.88314 14.7035C3.02108 14.5725 3.2339 14.5708 3.37383 14.6994L4.20656 15.4592C4.62364 15.8406 5.25497 15.8388 5.66991 15.4552L6.49052 14.6982C6.62946 14.5695 6.84113 14.5695 6.97992 14.6982L7.80068 15.4552C8.21562 15.8389 8.84695 15.8407 9.26388 15.4592L10.0968 14.6994C10.2367 14.5708 10.4495 14.5725 10.5874 14.7035L11.8578 15.9012C11.9645 16.0017 12.1191 16.0281 12.2519 15.9686C12.3847 15.9091 12.4706 15.7749 12.4706 15.6268V1.3733C12.4706 1.16711 12.307 1 12.1054 1ZM11.7403 14.7746L11.0826 14.1546C10.6688 13.7621 10.0304 13.7567 9.61036 14.1422L8.77762 14.9021C8.63855 15.0292 8.42815 15.0286 8.28979 14.9008L7.46918 14.1438C7.05281 13.758 6.41806 13.758 6.00155 14.1438L5.1808 14.9009C5.04244 15.0286 4.83204 15.0292 4.69311 14.9022L3.86023 14.1423C3.4403 13.7567 2.80198 13.7621 2.38818 14.1546L1.73046 14.7748V1.74674H11.7403V14.7746Z" stroke="#B4B3BB" stroke-width="0.8"/>
<path d="M26.9425 4.72518C26.9042 4.68621 26.8551 4.66662 26.7955 4.66662H24.8203L24.3729 3.57944C24.309 3.41881 24.1939 3.28208 24.0278 3.16923C23.8616 3.05639 23.6931 3 23.5227 3H21.4773C21.3069 3 21.1385 3.05639 20.9723 3.16923C20.8061 3.28208 20.691 3.41879 20.6271 3.57944L20.1796 4.66662H18.2045C18.1448 4.66662 18.0959 4.68621 18.0575 4.72518C18.0192 4.76424 18 4.81418 18 4.87493V5.29164C18 5.35239 18.0191 5.40233 18.0575 5.44133C18.0959 5.48037 18.1449 5.49989 18.2045 5.49989H18.8181V11.6979C18.8181 12.0583 18.9182 12.3653 19.1185 12.6191C19.3188 12.8731 19.5596 13 19.8409 13H25.1591C25.4404 13 25.6812 12.8687 25.8815 12.6062C26.0818 12.3435 26.1818 12.0322 26.1818 11.6719V5.49989H26.7955C26.8551 5.49989 26.9042 5.48037 26.9425 5.44133C26.9807 5.40235 27 5.35239 27 5.29164V4.87493C27 4.81418 26.9807 4.76424 26.9425 4.72518ZM21.3814 3.9048C21.4112 3.86576 21.4475 3.84182 21.4901 3.8332H23.5163C23.5589 3.84188 23.5952 3.86581 23.625 3.9048L23.9319 4.66653H21.0682L21.3814 3.9048ZM25.3637 11.672C25.3637 11.7674 25.3489 11.8554 25.319 11.9356C25.2891 12.0158 25.2581 12.0744 25.2263 12.1113C25.1942 12.1483 25.172 12.1667 25.1591 12.1667H19.8409C19.8281 12.1667 19.8058 12.1483 19.7738 12.1113C19.7418 12.0744 19.7109 12.0158 19.6811 11.9356C19.6513 11.8554 19.6363 11.7674 19.6363 11.672V5.49989H25.3637V11.672H25.3637Z" fill="#B4B3BB"/>
<path d="M20.6591 10.9168H21.0682C21.1279 10.9168 21.177 10.8973 21.2152 10.8582C21.2535 10.819 21.2727 10.7693 21.2727 10.7084V6.95826C21.2727 6.89754 21.2535 6.8476 21.2152 6.80851C21.1768 6.76954 21.1279 6.75002 21.0682 6.75002H20.6591C20.5994 6.75002 20.5505 6.76952 20.5121 6.80851C20.4738 6.8476 20.4546 6.89754 20.4546 6.95826V10.7084C20.4546 10.7693 20.4737 10.8191 20.5121 10.8582C20.5505 10.8972 20.5994 10.9168 20.6591 10.9168Z" fill="#B4B3BB"/>
<path d="M22.2955 10.9168H22.7046C22.7642 10.9168 22.8133 10.8973 22.8515 10.8582C22.89 10.819 22.909 10.7693 22.909 10.7084V6.95826C22.909 6.89754 22.89 6.8476 22.8515 6.80851C22.8133 6.76954 22.7642 6.75002 22.7046 6.75002H22.2955C22.2358 6.75002 22.1868 6.76952 22.1485 6.80851C22.1101 6.8476 22.091 6.89754 22.091 6.95826V10.7084C22.091 10.7693 22.1101 10.8191 22.1485 10.8582C22.1868 10.8972 22.2358 10.9168 22.2955 10.9168Z" fill="#B4B3BB"/>
<path d="M23.9319 10.9168H24.3409C24.4007 10.9168 24.4497 10.8973 24.488 10.8582C24.5263 10.819 24.5454 10.7693 24.5454 10.7084V6.95826C24.5454 6.89754 24.5263 6.8476 24.488 6.80851C24.4497 6.76954 24.4007 6.75002 24.3409 6.75002H23.9319C23.8721 6.75002 23.8232 6.76952 23.7848 6.80851C23.7465 6.8476 23.7273 6.89754 23.7273 6.95826V10.7084C23.7273 10.7693 23.7465 10.8191 23.7848 10.8582C23.8232 10.8972 23.8721 10.9168 23.9319 10.9168Z" fill="#B4B3BB"/>
</svg>
