<svg width="20" height="20" viewBox="0 0 20 20" fill="none" xmlns="http://www.w3.org/2000/svg">
<path d="M19.8722 3.45036C19.7871 3.37242 19.6781 3.33324 19.5457 3.33324H15.1563L14.162 1.15888C14.02 0.83762 13.7643 0.56416 13.3951 0.33845C13.0257 0.112786 12.6514 0 12.2728 0H7.72723C7.34856 0 6.97442 0.112786 6.60511 0.33845C6.23574 0.56416 5.98006 0.837575 5.83797 1.15888L4.84367 3.33324H0.45449C0.3218 3.33324 0.213041 3.37242 0.127765 3.45036C0.0427375 3.52849 0 3.62837 0 3.74986V4.58329C0 4.70478 0.0425385 4.80466 0.127765 4.88265C0.213041 4.96073 0.321999 4.99977 0.45449 4.99977H1.81801V17.3958C1.81801 18.1165 2.04055 18.7305 2.48559 19.2382C2.93073 19.7462 3.46577 20 4.09081 20H15.9091C16.5343 20 17.0693 19.7375 17.5144 19.2125C17.9594 18.6871 18.1818 18.0643 18.1818 17.3439V4.99977H19.5456C19.6781 4.99977 19.7871 4.96073 19.8721 4.88265C19.9571 4.80471 20 4.70478 20 4.58329V3.74986C20.0001 3.62837 19.9572 3.52849 19.8722 3.45036ZM7.51424 1.8096C7.58046 1.73152 7.66101 1.68363 7.75569 1.66639H12.2585C12.3532 1.68377 12.4339 1.73161 12.5 1.8096L13.1821 3.33306H6.8182L7.51424 1.8096ZM16.3638 17.344C16.3638 17.5349 16.3308 17.7107 16.2644 17.8712C16.198 18.0317 16.1292 18.1489 16.0583 18.2227C15.9872 18.2967 15.9378 18.3334 15.9092 18.3334H4.09086C4.06245 18.3334 4.013 18.2967 3.9418 18.2227C3.8707 18.1489 3.80199 18.0317 3.73567 17.8712C3.66945 17.7107 3.63632 17.5347 3.63632 17.344V4.99977H16.3638V17.344H16.3638Z" fill="#B4B3BB"/>
<path d="M5.90917 15.8335H6.8182C6.95089 15.8335 7.0599 15.7945 7.14492 15.7164C7.22995 15.6381 7.27269 15.5385 7.27269 15.4168V7.91653C7.27269 7.79508 7.22995 7.6952 7.14492 7.61703C7.05965 7.53909 6.95094 7.50005 6.8182 7.50005H5.90917C5.77648 7.50005 5.66767 7.53904 5.58244 7.61703C5.49732 7.6952 5.45468 7.79508 5.45468 7.91653V15.4168C5.45468 15.5385 5.49717 15.6381 5.58244 15.7164C5.66767 15.7945 5.77648 15.8335 5.90917 15.8335Z" fill="#B4B3BB"/>
<path d="M9.54554 15.8335H10.4546C10.5872 15.8335 10.6962 15.7945 10.7811 15.7164C10.8666 15.6381 10.909 15.5385 10.909 15.4168V7.91653C10.909 7.79508 10.8666 7.6952 10.7811 7.61703C10.6962 7.53909 10.5872 7.50005 10.4546 7.50005H9.54554C9.41299 7.50005 9.30404 7.53904 9.21881 7.61703C9.13353 7.6952 9.09105 7.79508 9.09105 7.91653V15.4168C9.09105 15.5385 9.13353 15.6381 9.21881 15.7164C9.30399 15.7945 9.41299 15.8335 9.54554 15.8335Z" fill="#B4B3BB"/>
<path d="M13.182 15.8335H14.0909C14.2237 15.8335 14.3326 15.7945 14.4178 15.7164C14.5029 15.6381 14.5452 15.5385 14.5452 15.4168V7.91653C14.5452 7.79508 14.5028 7.6952 14.4178 7.61703C14.3326 7.53909 14.2237 7.50005 14.0909 7.50005H13.182C13.0492 7.50005 12.9406 7.53904 12.8551 7.61703C12.77 7.6952 12.7274 7.79508 12.7274 7.91653V15.4168C12.7274 15.5385 12.77 15.6381 12.8551 15.7164C12.9406 15.7945 13.0492 15.8335 13.182 15.8335Z" fill="#B4B3BB"/>
</svg>
