<svg width="23" height="20" viewBox="0 0 23 20" fill="none" xmlns="http://www.w3.org/2000/svg">
<path d="M0 12.857V1.42856C0 0.639641 0.639555 0 1.42856 0H5.71423V14.2856H1.42856C0.639555 14.2856 0 13.646 0 12.857Z" fill="#FF284F"/>
<path d="M20.2188 12.8573H15.9987C15.6297 12.8573 15.4449 13.1035 15.3828 13.2096C15.3207 13.3149 15.1952 13.596 15.3737 13.9183L16.8616 16.5975C17.188 17.1841 17.2215 17.874 16.9543 18.4899C16.6872 19.1066 16.1599 19.5537 15.5076 19.7162L14.4586 19.9785C14.2033 20.0427 13.9326 19.961 13.7547 19.7636L8.05865 13.4356C7.46783 12.7778 7.14278 11.9296 7.14278 11.0465V3.5717C7.14278 1.60255 8.74502 0.00030899 10.7142 0.00030899L17.82 0.00100708C19.4243 0.00100708 20.841 1.08149 21.2644 2.62794L22.7892 9.62564C22.8339 9.82025 22.8569 10.0197 22.8569 10.2192C22.8569 11.6736 21.6732 12.8573 20.2188 12.8573Z" fill="#FF284F"/>
</svg>
