<svg width="14" height="14" viewBox="0 0 14 14" fill="none" xmlns="http://www.w3.org/2000/svg">
<path fill-rule="evenodd" clip-rule="evenodd" d="M12.4916 3.19922L10.7359 1.4387L6.29221 5.89573L8.04718 7.65625L12.4916 3.19922ZM13.0411 0.227163L13.824 1.01382C13.9098 1.10006 13.9643 1.20523 13.9874 1.31671C14.0272 1.50811 13.9729 1.71424 13.824 1.86358L12.949 2.74069L11.1933 0.980168L11.9432 0.227163C12.2471 -0.0757212 12.7383 -0.0757212 13.0411 0.227163ZM5.61513 8.60907C5.47121 8.64483 5.34146 8.51442 5.37344 8.3714L5.8167 6.3732L7.57168 8.13371L5.61513 8.60907ZM10.9317 6.46154C10.9317 6.08293 11.2376 5.77584 11.6151 5.77584C11.9923 5.77584 12.2982 6.08293 12.2984 6.46154V13.3143C12.2984 13.5057 12.2208 13.6782 12.0955 13.8023C11.9721 13.9243 11.8025 14 11.6151 14H0.683115C0.305908 14 0 13.6929 0 13.3143V2.34946C0 1.97085 0.305908 1.66376 0.683115 1.66376H7.51558C7.89305 1.66376 8.19896 1.97085 8.19896 2.34946C8.19896 2.72807 7.89305 3.03516 7.51558 3.03516H1.36649V12.6286H10.9317V6.46154Z" fill="#29006C"/>
</svg>
