<svg width="28" height="27" viewBox="0 0 28 27" fill="none" xmlns="http://www.w3.org/2000/svg">
<path d="M14.3275 14.3872L26.2692 14.3872C26.6752 14.3872 27 14.0624 27 13.6564C27 13.2504 26.6752 12.9256 26.2692 12.9256L14.3275 12.9256C13.9865 11.2312 12.487 9.94829 10.6898 9.94829C8.89257 9.94829 7.39309 11.2312 7.05205 12.9256L1.73621 12.9256C1.33021 12.9256 1.00541 13.2504 1.00541 13.6564C1.00541 14.0624 1.33021 14.3872 1.73621 14.3872L7.05205 14.3872C7.39309 16.0815 8.89257 17.3645 10.6898 17.3645C12.4816 17.3645 13.9865 16.087 14.3275 14.3872ZM8.44326 13.6564C8.44326 12.4167 9.45014 11.4099 10.6898 11.4099C11.9294 11.4099 12.9363 12.4167 12.9363 13.6564C12.9363 14.896 11.9294 15.9029 10.6898 15.9029C9.45014 15.9029 8.44326 14.896 8.44326 13.6564Z" fill="#B4B3BB"/>
<path d="M20.4553 5.43889L26.2692 5.43889C26.6752 5.43889 27 5.11409 27 4.7081C27 4.3021 26.6752 3.97731 26.2692 3.97731L20.4553 3.97731C20.1143 2.28295 18.6148 1 16.8176 1C15.0204 0.999999 13.5209 2.28295 13.1799 3.9773L1.73621 3.9773C1.33021 3.9773 1.00541 4.3021 1.00541 4.7081C1.00541 5.11409 1.33021 5.43889 1.73621 5.43889L13.1853 5.43889C13.5263 7.13325 15.0258 8.4162 16.823 8.4162C18.6202 8.4162 20.1143 7.13325 20.4553 5.43889ZM14.5711 4.7081C14.5711 3.46846 15.578 2.46159 16.8176 2.46159C18.0573 2.46159 19.0641 3.46846 19.0641 4.7081C19.0641 5.94774 18.0573 6.95461 16.8176 6.95461C15.578 6.95461 14.5711 5.94233 14.5711 4.7081Z" fill="#B4B3BB"/>
<path d="M20.4553 23.2809L26.2692 23.2809C26.6752 23.2809 27 22.9561 27 22.5501C27 22.1441 26.6752 21.8193 26.2692 21.8193L20.4553 21.8193C20.1143 20.1249 18.6148 18.842 16.8176 18.842C15.0204 18.842 13.5209 20.1249 13.1799 21.8193L1.73079 21.8193C1.3248 21.8193 1 22.1441 1 22.5501C1 22.9561 1.3248 23.2809 1.73079 23.2809L13.1853 23.2809C13.5263 24.9752 15.0258 26.2582 16.823 26.2582C18.6202 26.2582 20.1143 24.9807 20.4553 23.2809ZM14.5711 22.5501C14.5711 21.3104 15.578 20.3036 16.8176 20.3036C18.0573 20.3036 19.0641 21.3104 19.0641 22.5501C19.0641 23.7897 18.0573 24.7966 16.8176 24.7966C15.578 24.7966 14.5711 23.7897 14.5711 22.5501Z" fill="#B4B3BB"/>
<path d="M14.3275 14.3872L14.3275 14.1372L14.1227 14.1372L14.0824 14.338L14.3275 14.3872ZM14.3275 12.9256L14.0824 12.9749L14.1228 13.1756L14.3275 13.1756L14.3275 12.9256ZM7.05205 12.9256L7.05205 13.1756L7.25674 13.1756L7.29713 12.9749L7.05205 12.9256ZM7.05205 14.3872L7.29713 14.3379L7.25674 14.1372L7.05205 14.1372L7.05205 14.3872ZM20.4553 5.43889L20.4553 5.18889L20.2506 5.18889L20.2103 5.38956L20.4553 5.43889ZM20.4553 3.97731L20.2103 4.02664L20.2506 4.22731L20.4553 4.22731L20.4553 3.97731ZM13.1799 3.9773L13.1799 4.2273L13.3846 4.2273L13.425 4.02664L13.1799 3.9773ZM13.1853 5.43889L13.4304 5.38956L13.39 5.18889L13.1853 5.18889L13.1853 5.43889ZM20.4553 23.2809L20.4553 23.0309L20.2505 23.0309L20.2102 23.2317L20.4553 23.2809ZM20.4553 21.8193L20.2103 21.8686L20.2506 22.0693L20.4553 22.0693L20.4553 21.8193ZM13.1799 21.8193L13.1799 22.0693L13.3846 22.0693L13.425 21.8686L13.1799 21.8193ZM13.1853 23.2809L13.4304 23.2316L13.39 23.0309L13.1853 23.0309L13.1853 23.2809ZM14.3275 14.6372L26.2692 14.6372L26.2692 14.1372L14.3275 14.1372L14.3275 14.6372ZM26.2692 14.6372C26.8133 14.6372 27.25 14.2005 27.25 13.6564L26.75 13.6564C26.75 13.9243 26.5371 14.1372 26.2692 14.1372L26.2692 14.6372ZM27.25 13.6564C27.25 13.1123 26.8133 12.6756 26.2692 12.6756L26.2692 13.1756C26.5371 13.1756 26.75 13.3885 26.75 13.6564L27.25 13.6564ZM26.2692 12.6756L14.3275 12.6756L14.3275 13.1756L26.2692 13.1756L26.2692 12.6756ZM14.5726 12.8763C14.2086 11.0678 12.6087 9.69829 10.6898 9.69829L10.6898 10.1983C12.3652 10.1983 13.7643 11.3946 14.0824 12.9749L14.5726 12.8763ZM10.6898 9.69829C8.77082 9.69829 7.17096 11.0678 6.80696 12.8763L7.29713 12.9749C7.61521 11.3946 9.01431 10.1983 10.6898 10.1983L10.6898 9.69829ZM7.05205 12.6756L1.73621 12.6756L1.73621 13.1756L7.05205 13.1756L7.05205 12.6756ZM1.73621 12.6756C1.19214 12.6756 0.755411 13.1123 0.755411 13.6564L1.25541 13.6564C1.25541 13.3885 1.46828 13.1756 1.73621 13.1756L1.73621 12.6756ZM0.755411 13.6564C0.755411 14.2005 1.19214 14.6372 1.73621 14.6372L1.73621 14.1372C1.46828 14.1372 1.25541 13.9243 1.25541 13.6564L0.755411 13.6564ZM1.73621 14.6372L7.05205 14.6372L7.05205 14.1372L1.73621 14.1372L1.73621 14.6372ZM6.80696 14.4365C7.17096 16.2449 8.77082 17.6145 10.6898 17.6145L10.6898 17.1145C9.01431 17.1145 7.61521 15.9182 7.29713 14.3379L6.80696 14.4365ZM10.6898 17.6145C12.6028 17.6145 14.2086 16.2509 14.5726 14.4364L14.0824 14.338C13.7644 15.923 12.3604 17.1145 10.6898 17.1145L10.6898 17.6145ZM8.69326 13.6564C8.69326 12.5548 9.58821 11.6599 10.6898 11.6599L10.6898 11.1599C9.31206 11.1599 8.19326 12.2787 8.19326 13.6564L8.69326 13.6564ZM10.6898 11.6599C11.7913 11.6599 12.6863 12.5548 12.6863 13.6564L13.1863 13.6564C13.1863 12.2787 12.0675 11.1599 10.6898 11.1599L10.6898 11.6599ZM12.6863 13.6564C12.6863 14.758 11.7913 15.6529 10.6898 15.6529L10.6898 16.1529C12.0675 16.1529 13.1863 15.0341 13.1863 13.6564L12.6863 13.6564ZM10.6898 15.6529C9.58821 15.6529 8.69326 14.758 8.69326 13.6564L8.19326 13.6564C8.19326 15.0341 9.31206 16.1529 10.6898 16.1529L10.6898 15.6529ZM20.4553 5.68889L26.2692 5.68889L26.2692 5.18889L20.4553 5.18889L20.4553 5.68889ZM26.2692 5.68889C26.8133 5.68889 27.25 5.25217 27.25 4.7081L26.75 4.7081C26.75 4.97602 26.5371 5.18889 26.2692 5.18889L26.2692 5.68889ZM27.25 4.7081C27.25 4.16403 26.8133 3.72731 26.2692 3.72731L26.2692 4.22731C26.5371 4.22731 26.75 4.44017 26.75 4.7081L27.25 4.7081ZM26.2692 3.72731L20.4553 3.72731L20.4553 4.22731L26.2692 4.22731L26.2692 3.72731ZM20.7004 3.92797C20.3364 2.11956 18.7366 0.75 16.8176 0.75L16.8176 1.25C18.4931 1.25 19.8922 2.44634 20.2103 4.02664L20.7004 3.92797ZM16.8176 0.75C14.8987 0.749999 13.2988 2.11956 12.9348 3.92797L13.425 4.02664C13.7431 2.44634 15.1421 1.25 16.8176 1.25L16.8176 0.75ZM13.1799 3.7273L1.73621 3.7273L1.73621 4.2273L13.1799 4.2273L13.1799 3.7273ZM1.73621 3.7273C1.19214 3.7273 0.755411 4.16403 0.755411 4.7081L1.25541 4.7081C1.25541 4.44017 1.46828 4.2273 1.73621 4.2273L1.73621 3.7273ZM0.755411 4.7081C0.755411 5.25217 1.19214 5.68889 1.73621 5.68889L1.73621 5.18889C1.46828 5.18889 1.25541 4.97602 1.25541 4.7081L0.755411 4.7081ZM1.73621 5.68889L13.1853 5.68889L13.1853 5.18889L1.73621 5.18889L1.73621 5.68889ZM12.9402 5.48822C13.3042 7.29664 14.9041 8.6662 16.823 8.6662L16.823 8.1662C15.1476 8.1662 13.7485 6.96986 13.4304 5.38956L12.9402 5.48822ZM16.823 8.6662C18.7424 8.6662 20.3365 7.2962 20.7004 5.48822L20.2103 5.38956C19.8921 6.9703 18.4981 8.1662 16.823 8.1662L16.823 8.6662ZM14.8211 4.7081C14.8211 3.60653 15.716 2.71159 16.8176 2.71159L16.8176 2.21159C15.4399 2.21159 14.3211 3.33038 14.3211 4.7081L14.8211 4.7081ZM16.8176 2.71159C17.9192 2.71159 18.8141 3.60653 18.8141 4.7081L19.3141 4.7081C19.3141 3.33039 18.1953 2.21159 16.8176 2.21159L16.8176 2.71159ZM18.8141 4.7081C18.8141 5.80967 17.9192 6.70461 16.8176 6.70461L16.8176 7.20461C18.1953 7.20461 19.3141 6.08581 19.3141 4.7081L18.8141 4.7081ZM16.8176 6.70461C15.7164 6.70461 14.8211 5.80465 14.8211 4.7081L14.3211 4.7081C14.3211 6.08001 15.4395 7.20461 16.8176 7.20461L16.8176 6.70461ZM20.4553 23.5309L26.2692 23.5309L26.2692 23.0309L20.4553 23.0309L20.4553 23.5309ZM26.2692 23.5309C26.8133 23.5309 27.25 23.0942 27.25 22.5501L26.75 22.5501C26.75 22.818 26.5371 23.0309 26.2692 23.0309L26.2692 23.5309ZM27.25 22.5501C27.25 22.006 26.8133 21.5693 26.2692 21.5693L26.2692 22.0693C26.5371 22.0693 26.75 22.2822 26.75 22.5501L27.25 22.5501ZM26.2692 21.5693L20.4553 21.5693L20.4553 22.0693L26.2692 22.0693L26.2692 21.5693ZM20.7004 21.77C20.3364 19.9616 18.7366 18.592 16.8176 18.592L16.8176 19.092C18.4931 19.092 19.8922 20.2883 20.2103 21.8686L20.7004 21.77ZM16.8176 18.592C14.8987 18.592 13.2988 19.9616 12.9348 21.77L13.425 21.8686C13.7431 20.2883 15.1421 19.092 16.8176 19.092L16.8176 18.592ZM13.1799 21.5693L1.73079 21.5693L1.73079 22.0693L13.1799 22.0693L13.1799 21.5693ZM1.73079 21.5693C1.18672 21.5693 0.750001 22.006 0.750001 22.5501L1.25 22.5501C1.25 22.2822 1.46287 22.0693 1.73079 22.0693L1.73079 21.5693ZM0.750001 22.5501C0.750001 23.0942 1.18672 23.5309 1.73079 23.5309L1.73079 23.0309C1.46287 23.0309 1.25 22.818 1.25 22.5501L0.750001 22.5501ZM1.73079 23.5309L13.1853 23.5309L13.1853 23.0309L1.73079 23.0309L1.73079 23.5309ZM12.9402 23.3302C13.3042 25.1386 14.9041 26.5082 16.823 26.5082L16.823 26.0082C15.1476 26.0082 13.7485 24.8119 13.4304 23.2316L12.9402 23.3302ZM16.823 26.5082C18.7421 26.5082 20.3365 25.1439 20.7005 23.3301L20.2102 23.2317C19.8921 24.8174 18.4984 26.0082 16.823 26.0082L16.823 26.5082ZM14.8211 22.5501C14.8211 21.4485 15.716 20.5536 16.8176 20.5536L16.8176 20.0536C15.4399 20.0536 14.3211 21.1724 14.3211 22.5501L14.8211 22.5501ZM16.8176 20.5536C17.9192 20.5536 18.8141 21.4485 18.8141 22.5501L19.3141 22.5501C19.3141 21.1724 18.1953 20.0536 16.8176 20.0536L16.8176 20.5536ZM18.8141 22.5501C18.8141 23.6517 17.9192 24.5466 16.8176 24.5466L16.8176 25.0466C18.1953 25.0466 19.3141 23.9278 19.3141 22.5501L18.8141 22.5501ZM16.8176 24.5466C15.716 24.5466 14.8211 23.6517 14.8211 22.5501L14.3211 22.5501C14.3211 23.9278 15.4399 25.0466 16.8176 25.0466L16.8176 24.5466Z" fill="#B4B3BB"/>
</svg>
