<svg width="14" height="14" viewBox="0 0 14 14" fill="none" xmlns="http://www.w3.org/2000/svg">
<path d="M13.3638 0H8.27286C7.92141 0 7.63649 0.284922 7.63649 0.636372C7.63649 0.987821 7.92141 1.27274 8.27286 1.27274H11.8275L5.27746 7.82278C5.02893 8.07131 5.02893 8.47419 5.27746 8.72272C5.40168 8.84697 5.56454 8.90909 5.7274 8.90909C5.89026 8.90909 6.05315 8.84699 6.1774 8.72269L12.7274 2.17268V5.72729C12.7274 6.07874 13.0124 6.36366 13.3638 6.36366C13.7153 6.36366 14.0002 6.07874 14.0002 5.72729V0.636372C14.0001 0.284922 13.7152 0 13.3638 0Z" fill="#B4B3BB"/>
<path d="M10.8182 6.36407C10.4667 6.36407 10.1818 6.64899 10.1818 7.00044V12.7277H1.27272V3.81861H7C7.35145 3.81861 7.63638 3.53369 7.63638 3.18224C7.63638 2.83079 7.35145 2.5459 7 2.5459H0.636372C0.284922 2.5459 0 2.83082 0 3.18227V13.3641C0 13.7155 0.284922 14.0004 0.636372 14.0004H10.8182C11.1697 14.0004 11.4546 13.7155 11.4546 13.3641V7.00044C11.4546 6.64899 11.1696 6.36407 10.8182 6.36407Z" fill="#B4B3BB"/>
</svg>
