<svg width="19" height="18" viewBox="0 0 19 18" fill="none" xmlns="http://www.w3.org/2000/svg">
<path d="M18.4588 8.28138C17.4864 6.69108 16.179 5.41327 14.5367 4.44801C12.8943 3.48271 11.16 3 9.33352 3C7.50708 3 5.77269 3.48252 4.13029 4.44801C2.48785 5.41327 1.18049 6.69108 0.20826 8.28138C0.0694323 8.52441 0 8.76401 0 9.00018C0 9.23635 0.0694323 9.47596 0.20826 9.71891C1.18049 11.3093 2.48785 12.5872 4.13029 13.5522C5.77269 14.5177 7.50708 15 9.33352 15C11.16 15 12.8943 14.5193 14.5367 13.5575C16.179 12.5957 17.4866 11.3161 18.4588 9.71891C18.5976 9.47596 18.667 9.23646 18.667 9.00018C18.667 8.76401 18.5976 8.52441 18.4588 8.28138ZM7.09895 5.43232C7.72045 4.81082 8.46523 4.49996 9.33341 4.49996C9.47223 4.49996 9.59038 4.54871 9.68765 4.64587C9.78477 4.74307 9.83359 4.86117 9.83359 5.00004C9.83359 5.13901 9.78477 5.25704 9.68786 5.35409C9.59074 5.4514 9.47253 5.5 9.33366 5.5C8.73646 5.5 8.22588 5.71191 7.80232 6.13543C7.37861 6.55922 7.16689 7.06958 7.16689 7.66678C7.16689 7.80582 7.11814 7.92378 7.02098 8.02105C6.92367 8.1184 6.80568 8.16696 6.66681 8.16696C6.52784 8.16696 6.40981 8.11829 6.31254 8.02105C6.21523 7.92378 6.16663 7.80568 6.16663 7.66678C6.16663 6.79878 6.47749 6.05385 7.09895 5.43232ZM13.8597 12.4015C12.4673 13.245 10.9586 13.667 9.33352 13.667C7.70848 13.667 6.1998 13.2453 4.80743 12.4015C3.41506 11.5576 2.25704 10.4239 1.33344 9.00018C2.38901 7.36121 3.71195 6.1354 5.30225 5.32304C4.87865 6.04517 4.66678 6.82651 4.66678 7.66674C4.66678 8.95162 5.12347 10.0503 6.0366 10.9637C6.94972 11.877 8.04882 12.3335 9.33352 12.3335C10.6183 12.3335 11.7171 11.8768 12.6304 10.9637C13.5438 10.0506 14.0003 8.95162 14.0003 7.66674C14.0003 6.82651 13.7884 6.04506 13.3647 5.32304C14.955 6.1354 16.278 7.36132 17.3335 9.00018C16.4101 10.4239 15.2522 11.5576 13.8597 12.4015Z" fill="white"/>
<path d="M2.02091 15.2402C1.54073 15.7204 1.54073 16.4989 2.02091 16.9791L17.9791 1.02091C17.4989 0.540731 16.7204 0.540732 16.2402 1.02091L2.02091 15.2402Z" fill="white" stroke="#FF284F" stroke-width="1.2"/>
</svg>
