<svg width="18" height="18" viewBox="0 0 18 18" fill="none" xmlns="http://www.w3.org/2000/svg">
<path fill-rule="evenodd" clip-rule="evenodd" d="M9 4.36207C6.44249 4.36207 4.36186 6.4427 4.36186 9.00021C4.36186 11.5576 6.44249 13.6381 9 13.6381C11.5575 13.6381 13.6381 11.5576 13.6381 9.00021C13.6381 6.4427 11.5575 4.36207 9 4.36207ZM9 12.041C7.32321 12.041 5.9589 10.6769 5.9589 9.00011C5.9589 7.32321 7.3231 5.95901 9 5.95901C10.6769 5.95901 12.0411 7.32321 12.0411 9.00011C12.0411 10.6769 10.6768 12.041 9 12.041Z" fill="white"/>
<path d="M13.0054 3.35071C13.2227 3.13245 13.525 3.00788 13.8327 3.00788C14.1414 3.00788 14.4438 3.13245 14.661 3.35071C14.8793 3.56791 15.0038 3.87028 15.0038 4.17905C15.0038 4.48674 14.8793 4.78912 14.661 5.00738C14.4427 5.22458 14.1414 5.35021 13.8327 5.35021C13.525 5.35021 13.2226 5.22458 13.0054 5.00738C12.7871 4.78912 12.6615 4.48685 12.6615 4.17905C12.6615 3.87028 12.787 3.56791 13.0054 3.35071Z" fill="white"/>
<path fill-rule="evenodd" clip-rule="evenodd" d="M13.0325 0H4.96724C2.22831 0 0 2.22841 0 4.96735V13.0327C0 15.7717 2.22831 18 4.96724 18H13.0325C15.7717 18 18 15.7716 18 13.0327V4.96735C18.0001 2.22841 15.7717 0 13.0325 0ZM16.4031 13.0327C16.4031 14.8911 14.8911 16.403 13.0327 16.403H4.96724C3.10892 16.4031 1.59705 14.8911 1.59705 13.0327V4.96735C1.59705 3.10903 3.10892 1.59705 4.96724 1.59705H13.0325C14.891 1.59705 16.403 3.10903 16.403 4.96735V13.0327H16.4031Z" fill="white"/>
</svg>
