<svg width="23" height="20" viewBox="0 0 23 20" fill="none" xmlns="http://www.w3.org/2000/svg">
<path d="M0 7.14299V18.5714C0 19.3604 0.639555 20 1.42856 20H5.71423V5.71443H1.42856C0.639555 5.71443 0 6.35398 0 7.14299Z" fill="white"/>
<path d="M20.2188 7.14269H15.9987C15.6297 7.14269 15.4449 6.89646 15.3828 6.79043C15.3207 6.6851 15.1952 6.40399 15.3737 6.08173L16.8616 3.40249C17.188 2.81586 17.2215 2.12599 16.9543 1.51006C16.6872 0.89344 16.1599 0.446318 15.5076 0.283792L14.4586 0.0215176C14.2033 -0.0426559 13.9326 0.0389562 13.7547 0.23636L8.05865 6.56442C7.46783 7.2222 7.14278 8.07041 7.14278 8.95349V16.4283C7.14278 18.3974 8.74502 19.9997 10.7142 19.9997L17.82 19.999C19.4243 19.999 20.841 18.9185 21.2644 17.3721L22.7892 10.3744C22.8339 10.1797 22.8569 9.98025 22.8569 9.78076C22.8569 8.32639 21.6732 7.14269 20.2188 7.14269Z" fill="white"/>
</svg>
