<svg width="130" height="30" viewBox="0 0 130 30" fill="none" xmlns="http://www.w3.org/2000/svg">
<path d="M108.239 10.5235V6.39258H95.736H91.7812V10.5235V12.9283V17.0473V19.464V23.5831H95.736H108.239V19.464H95.736V17.0473H105.606V12.9283H95.736V10.5235H108.239Z" fill="white"/>
<path d="M84.5201 6.39258L80.7477 17.0711L76.9753 6.39258H76.9639H72.3481H72.3367L68.5757 17.0235L64.8033 6.39258H60.1875L66.2621 23.5592L66.2507 23.5831H66.2621H70.8779H70.8893V23.5592L74.6503 12.9164L78.4341 23.5831H83.0499H83.0613L89.1473 6.39258H84.5201Z" fill="white"/>
<path d="M32.5738 6.39258H22.043V23.5831H25.9863V18.7735H32.5738C35.8448 18.7735 38.5003 15.9997 38.5003 12.5831C38.5003 9.16639 35.8448 6.39258 32.5738 6.39258ZM32.5738 14.6426H25.9863V10.5235H32.5738C33.6679 10.5235 34.5455 11.4521 34.5455 12.5831C34.5455 13.714 33.6565 14.6426 32.5738 14.6426Z" fill="white"/>
<path d="M50.671 6.39258H48.6994C44.1747 6.39258 40.4707 10.2616 40.4707 14.9878C40.4707 19.714 44.1747 23.5831 48.6994 23.5831H50.671C55.1957 23.5831 58.8997 19.714 58.8997 14.9878C58.8997 10.2616 55.1957 6.39258 50.671 6.39258ZM54.4776 14.9878C54.4776 17.4402 52.5515 19.4521 50.2038 19.4521H49.178C46.8302 19.4521 44.9041 17.4402 44.9041 14.9878C44.9041 12.5354 46.8302 10.5235 49.178 10.5235H50.2038C52.5515 10.5235 54.4776 12.5354 54.4776 14.9878Z" fill="white"/>
<path d="M129.231 23.5832L124.911 18.0237C126.769 16.9761 128.023 14.9285 128.023 12.5713C128.023 9.15467 125.367 6.38086 122.096 6.38086H111.565V23.5713H115.52V18.7618H120.888L124.626 23.5713H129.231V23.5832ZM115.509 14.6428V10.5237H122.096C123.19 10.5237 124.068 11.4523 124.068 12.5832C124.068 13.7142 123.179 14.6428 122.096 14.6428H117.013H115.509Z" fill="white"/>
<path d="M0 17.4048L13.7904 0L9.64188 12.5357H17.6198L3.86359 30L8.0235 17.4048H0Z" fill="white"/>
</svg>
