<svg width="502" height="322" viewBox="0 0 502 322" fill="none" xmlns="http://www.w3.org/2000/svg">
<mask id="path-1-outside-1" maskUnits="userSpaceOnUse" x="0.950012" y="0.280273" width="501" height="322" fill="white">
<rect fill="white" x="0.950012" y="0.280273" width="501" height="322"/>
<path d="M8.02001 2.28027H128.27V99.0003H97.98V25.6803H38.31V99.0003H8.02001V2.28027Z"/>
<path d="M228.526 24.3803H182.506C182.506 32.2669 182.42 39.1569 182.246 45.0503C182.073 50.8569 181.77 55.9269 181.336 60.2603C180.99 64.5069 180.556 68.1036 180.036 71.0503C179.603 73.9103 179.04 76.3803 178.346 78.4603C177.74 80.4536 177.046 82.1869 176.266 83.6603C175.573 85.0469 174.836 86.3469 174.056 87.5603C172.843 89.3803 171.456 91.0269 169.896 92.5003C168.423 93.8869 166.646 95.1003 164.566 96.1403C162.486 97.0936 160.016 97.8303 157.156 98.3503C154.296 98.7836 150.916 99.0003 147.016 99.0003H138.566V74.9503H140.516C142.856 74.9503 144.763 74.7336 146.236 74.3003C147.796 73.8669 149.14 72.9569 150.266 71.5703C151.22 70.3569 152.043 68.4503 152.736 65.8503C153.43 63.2503 153.95 59.3503 154.296 54.1503C154.73 48.9503 155.033 42.1903 155.206 33.8703C155.38 25.5503 155.466 15.0203 155.466 2.28027H258.816V99.0003H228.526V24.3803Z"/>
<path d="M331.994 23.2103L314.054 59.4803H350.714L331.994 23.2103ZM361.894 81.3203H303.264L294.554 99.0003H263.744L312.624 2.28027H351.884L403.624 99.0003H370.994L361.894 81.3203Z"/>
<path d="M427.48 25.1603H385.88V2.28027H499.76V25.1603H458.03V99.0003H427.48V25.1603Z"/>
<path d="M74.19 111.98H104.48V120.69H129.31C135.03 120.69 140.663 121.427 146.21 122.9C151.757 124.287 156.697 126.497 161.03 129.53C165.45 132.564 169.003 136.507 171.69 141.36C174.377 146.214 175.72 152.064 175.72 158.91V160.34C175.72 167.274 174.377 173.167 171.69 178.02C169.003 182.874 165.493 186.86 161.16 189.98C156.827 193.014 151.887 195.267 146.34 196.74C140.793 198.127 135.16 198.82 129.44 198.82H104.48V211.3H74.19V198.82H49.23C43.51 198.82 37.8767 198.127 32.33 196.74C26.7833 195.267 21.8433 193.014 17.51 189.98C13.1767 186.86 9.66668 182.874 6.98001 178.02C4.29335 173.167 2.95001 167.274 2.95001 160.34V159.04C2.95001 152.194 4.29335 146.344 6.98001 141.49C9.66668 136.637 13.1767 132.694 17.51 129.66C21.93 126.54 26.9133 124.287 32.46 122.9C38.0067 121.427 43.64 120.69 49.36 120.69H74.19V111.98ZM104.48 176.72H122.55C129.743 176.72 135.29 175.247 139.19 172.3C143.177 169.354 145.17 165.28 145.17 160.08V159.04C145.17 153.84 143.177 149.854 139.19 147.08C135.203 144.22 129.657 142.79 122.55 142.79H104.48V176.72ZM56.12 142.79C48.9267 142.79 43.3367 144.22 39.35 147.08C35.45 149.854 33.5 153.84 33.5 159.04V160.08C33.5 165.28 35.45 169.354 39.35 172.3C43.3367 175.247 48.9267 176.72 56.12 176.72H74.19V142.79H56.12Z"/>
<path d="M254.939 111.59C265.079 111.59 273.789 112.37 281.069 113.93C288.349 115.49 294.502 117.57 299.529 120.17C304.642 122.77 308.715 125.76 311.749 129.14C314.782 132.434 317.122 135.857 318.769 139.41C320.502 142.877 321.629 146.387 322.149 149.94C322.669 153.407 322.929 156.57 322.929 159.43V163.33C322.929 166.19 322.669 169.354 322.149 172.82C321.629 176.287 320.545 179.84 318.899 183.48C317.252 187.034 314.869 190.5 311.749 193.88C308.715 197.26 304.685 200.294 299.659 202.98C294.632 205.58 288.435 207.704 281.069 209.35C273.789 210.91 265.079 211.69 254.939 211.69H249.349C239.122 211.69 230.325 210.91 222.959 209.35C215.679 207.704 209.525 205.58 204.499 202.98C199.472 200.294 195.399 197.26 192.279 193.88C189.245 190.5 186.905 187.034 185.259 183.48C183.612 179.84 182.529 176.287 182.009 172.82C181.489 169.354 181.229 166.19 181.229 163.33V159.43C181.229 156.57 181.489 153.407 182.009 149.94C182.529 146.387 183.612 142.877 185.259 139.41C186.905 135.857 189.245 132.434 192.279 129.14C195.399 125.76 199.472 122.77 204.499 120.17C209.525 117.57 215.679 115.49 222.959 113.93C230.325 112.37 239.122 111.59 249.349 111.59H254.939ZM291.209 160.34C291.209 157.567 290.689 154.707 289.649 151.76C288.695 148.727 286.789 145.997 283.929 143.57C281.069 141.057 277.082 139.02 271.969 137.46C266.855 135.814 260.225 134.99 252.079 134.99C243.759 134.99 237.042 135.814 231.929 137.46C226.815 139.02 222.829 141.057 219.969 143.57C217.195 145.997 215.332 148.727 214.379 151.76C213.425 154.707 212.949 157.567 212.949 160.34V161.9C212.949 164.674 213.425 167.62 214.379 170.74C215.419 173.774 217.369 176.59 220.229 179.19C223.089 181.79 227.075 183.957 232.189 185.69C237.302 187.337 243.932 188.16 252.079 188.16C260.225 188.16 266.812 187.337 271.839 185.69C276.952 184.044 280.939 181.964 283.799 179.45C286.659 176.85 288.609 174.034 289.649 171C290.689 167.88 291.209 164.934 291.209 162.16V160.34Z"/>
<path d="M363.319 177.76V210H333.029V113.28H405.569C414.236 113.28 421.473 114.104 427.279 115.75C433.086 117.31 437.722 119.52 441.189 122.38C444.656 125.24 447.082 128.577 448.469 132.39C449.942 136.204 450.679 140.32 450.679 144.74V146.04C450.679 150.374 449.942 154.49 448.469 158.39C446.996 162.204 444.526 165.54 441.059 168.4C437.592 171.26 432.956 173.557 427.149 175.29C421.429 176.937 414.236 177.76 405.569 177.76H363.319ZM363.319 156.05H405.049C409.816 156.05 413.326 155.184 415.579 153.45C417.919 151.717 419.089 149.204 419.089 145.91V145.52C419.089 142.227 417.962 139.714 415.709 137.98C413.456 136.16 409.902 135.25 405.049 135.25H363.319V156.05Z"/>
<path d="M8.41001 223.28H51.44L84.85 283.47L118.39 223.28H159.86V320H129.96V253.05L91.87 320H75.62L37.53 253.05V320H8.41001V223.28Z"/>
<path d="M232.717 244.21L214.777 280.48H251.437L232.717 244.21ZM262.617 302.32H203.987L195.277 320H164.467L213.347 223.28H252.607L304.347 320H271.717L262.617 302.32Z"/>
</mask>
<path d="M8.02001 2.28027H128.27V99.0003H97.98V25.6803H38.31V99.0003H8.02001V2.28027Z" fill="white"/>
<path d="M228.526 24.3803H182.506C182.506 32.2669 182.42 39.1569 182.246 45.0503C182.073 50.8569 181.77 55.9269 181.336 60.2603C180.99 64.5069 180.556 68.1036 180.036 71.0503C179.603 73.9103 179.04 76.3803 178.346 78.4603C177.74 80.4536 177.046 82.1869 176.266 83.6603C175.573 85.0469 174.836 86.3469 174.056 87.5603C172.843 89.3803 171.456 91.0269 169.896 92.5003C168.423 93.8869 166.646 95.1003 164.566 96.1403C162.486 97.0936 160.016 97.8303 157.156 98.3503C154.296 98.7836 150.916 99.0003 147.016 99.0003H138.566V74.9503H140.516C142.856 74.9503 144.763 74.7336 146.236 74.3003C147.796 73.8669 149.14 72.9569 150.266 71.5703C151.22 70.3569 152.043 68.4503 152.736 65.8503C153.43 63.2503 153.95 59.3503 154.296 54.1503C154.73 48.9503 155.033 42.1903 155.206 33.8703C155.38 25.5503 155.466 15.0203 155.466 2.28027H258.816V99.0003H228.526V24.3803Z" fill="white"/>
<path d="M331.994 23.2103L314.054 59.4803H350.714L331.994 23.2103ZM361.894 81.3203H303.264L294.554 99.0003H263.744L312.624 2.28027H351.884L403.624 99.0003H370.994L361.894 81.3203Z" fill="white"/>
<path d="M427.48 25.1603H385.88V2.28027H499.76V25.1603H458.03V99.0003H427.48V25.1603Z" fill="white"/>
<path d="M74.19 111.98H104.48V120.69H129.31C135.03 120.69 140.663 121.427 146.21 122.9C151.757 124.287 156.697 126.497 161.03 129.53C165.45 132.564 169.003 136.507 171.69 141.36C174.377 146.214 175.72 152.064 175.72 158.91V160.34C175.72 167.274 174.377 173.167 171.69 178.02C169.003 182.874 165.493 186.86 161.16 189.98C156.827 193.014 151.887 195.267 146.34 196.74C140.793 198.127 135.16 198.82 129.44 198.82H104.48V211.3H74.19V198.82H49.23C43.51 198.82 37.8767 198.127 32.33 196.74C26.7833 195.267 21.8433 193.014 17.51 189.98C13.1767 186.86 9.66668 182.874 6.98001 178.02C4.29335 173.167 2.95001 167.274 2.95001 160.34V159.04C2.95001 152.194 4.29335 146.344 6.98001 141.49C9.66668 136.637 13.1767 132.694 17.51 129.66C21.93 126.54 26.9133 124.287 32.46 122.9C38.0067 121.427 43.64 120.69 49.36 120.69H74.19V111.98ZM104.48 176.72H122.55C129.743 176.72 135.29 175.247 139.19 172.3C143.177 169.354 145.17 165.28 145.17 160.08V159.04C145.17 153.84 143.177 149.854 139.19 147.08C135.203 144.22 129.657 142.79 122.55 142.79H104.48V176.72ZM56.12 142.79C48.9267 142.79 43.3367 144.22 39.35 147.08C35.45 149.854 33.5 153.84 33.5 159.04V160.08C33.5 165.28 35.45 169.354 39.35 172.3C43.3367 175.247 48.9267 176.72 56.12 176.72H74.19V142.79H56.12Z" fill="white"/>
<path d="M254.939 111.59C265.079 111.59 273.789 112.37 281.069 113.93C288.349 115.49 294.502 117.57 299.529 120.17C304.642 122.77 308.715 125.76 311.749 129.14C314.782 132.434 317.122 135.857 318.769 139.41C320.502 142.877 321.629 146.387 322.149 149.94C322.669 153.407 322.929 156.57 322.929 159.43V163.33C322.929 166.19 322.669 169.354 322.149 172.82C321.629 176.287 320.545 179.84 318.899 183.48C317.252 187.034 314.869 190.5 311.749 193.88C308.715 197.26 304.685 200.294 299.659 202.98C294.632 205.58 288.435 207.704 281.069 209.35C273.789 210.91 265.079 211.69 254.939 211.69H249.349C239.122 211.69 230.325 210.91 222.959 209.35C215.679 207.704 209.525 205.58 204.499 202.98C199.472 200.294 195.399 197.26 192.279 193.88C189.245 190.5 186.905 187.034 185.259 183.48C183.612 179.84 182.529 176.287 182.009 172.82C181.489 169.354 181.229 166.19 181.229 163.33V159.43C181.229 156.57 181.489 153.407 182.009 149.94C182.529 146.387 183.612 142.877 185.259 139.41C186.905 135.857 189.245 132.434 192.279 129.14C195.399 125.76 199.472 122.77 204.499 120.17C209.525 117.57 215.679 115.49 222.959 113.93C230.325 112.37 239.122 111.59 249.349 111.59H254.939ZM291.209 160.34C291.209 157.567 290.689 154.707 289.649 151.76C288.695 148.727 286.789 145.997 283.929 143.57C281.069 141.057 277.082 139.02 271.969 137.46C266.855 135.814 260.225 134.99 252.079 134.99C243.759 134.99 237.042 135.814 231.929 137.46C226.815 139.02 222.829 141.057 219.969 143.57C217.195 145.997 215.332 148.727 214.379 151.76C213.425 154.707 212.949 157.567 212.949 160.34V161.9C212.949 164.674 213.425 167.62 214.379 170.74C215.419 173.774 217.369 176.59 220.229 179.19C223.089 181.79 227.075 183.957 232.189 185.69C237.302 187.337 243.932 188.16 252.079 188.16C260.225 188.16 266.812 187.337 271.839 185.69C276.952 184.044 280.939 181.964 283.799 179.45C286.659 176.85 288.609 174.034 289.649 171C290.689 167.88 291.209 164.934 291.209 162.16V160.34Z" fill="white"/>
<path d="M363.319 177.76V210H333.029V113.28H405.569C414.236 113.28 421.473 114.104 427.279 115.75C433.086 117.31 437.722 119.52 441.189 122.38C444.656 125.24 447.082 128.577 448.469 132.39C449.942 136.204 450.679 140.32 450.679 144.74V146.04C450.679 150.374 449.942 154.49 448.469 158.39C446.996 162.204 444.526 165.54 441.059 168.4C437.592 171.26 432.956 173.557 427.149 175.29C421.429 176.937 414.236 177.76 405.569 177.76H363.319ZM363.319 156.05H405.049C409.816 156.05 413.326 155.184 415.579 153.45C417.919 151.717 419.089 149.204 419.089 145.91V145.52C419.089 142.227 417.962 139.714 415.709 137.98C413.456 136.16 409.902 135.25 405.049 135.25H363.319V156.05Z" fill="white"/>
<path d="M8.41001 223.28H51.44L84.85 283.47L118.39 223.28H159.86V320H129.96V253.05L91.87 320H75.62L37.53 253.05V320H8.41001V223.28Z" fill="white"/>
<path d="M232.717 244.21L214.777 280.48H251.437L232.717 244.21ZM262.617 302.32H203.987L195.277 320H164.467L213.347 223.28H252.607L304.347 320H271.717L262.617 302.32Z" fill="white"/>
<path d="M8.02001 2.28027H128.27V99.0003H97.98V25.6803H38.31V99.0003H8.02001V2.28027Z" stroke="white" stroke-width="4" mask="url(#path-1-outside-1)"/>
<path d="M228.526 24.3803H182.506C182.506 32.2669 182.42 39.1569 182.246 45.0503C182.073 50.8569 181.77 55.9269 181.336 60.2603C180.99 64.5069 180.556 68.1036 180.036 71.0503C179.603 73.9103 179.04 76.3803 178.346 78.4603C177.74 80.4536 177.046 82.1869 176.266 83.6603C175.573 85.0469 174.836 86.3469 174.056 87.5603C172.843 89.3803 171.456 91.0269 169.896 92.5003C168.423 93.8869 166.646 95.1003 164.566 96.1403C162.486 97.0936 160.016 97.8303 157.156 98.3503C154.296 98.7836 150.916 99.0003 147.016 99.0003H138.566V74.9503H140.516C142.856 74.9503 144.763 74.7336 146.236 74.3003C147.796 73.8669 149.14 72.9569 150.266 71.5703C151.22 70.3569 152.043 68.4503 152.736 65.8503C153.43 63.2503 153.95 59.3503 154.296 54.1503C154.73 48.9503 155.033 42.1903 155.206 33.8703C155.38 25.5503 155.466 15.0203 155.466 2.28027H258.816V99.0003H228.526V24.3803Z" stroke="white" stroke-width="4" mask="url(#path-1-outside-1)"/>
<path d="M331.994 23.2103L314.054 59.4803H350.714L331.994 23.2103ZM361.894 81.3203H303.264L294.554 99.0003H263.744L312.624 2.28027H351.884L403.624 99.0003H370.994L361.894 81.3203Z" stroke="white" stroke-width="4" mask="url(#path-1-outside-1)"/>
<path d="M427.48 25.1603H385.88V2.28027H499.76V25.1603H458.03V99.0003H427.48V25.1603Z" stroke="white" stroke-width="4" mask="url(#path-1-outside-1)"/>
<path d="M74.19 111.98H104.48V120.69H129.31C135.03 120.69 140.663 121.427 146.21 122.9C151.757 124.287 156.697 126.497 161.03 129.53C165.45 132.564 169.003 136.507 171.69 141.36C174.377 146.214 175.72 152.064 175.72 158.91V160.34C175.72 167.274 174.377 173.167 171.69 178.02C169.003 182.874 165.493 186.86 161.16 189.98C156.827 193.014 151.887 195.267 146.34 196.74C140.793 198.127 135.16 198.82 129.44 198.82H104.48V211.3H74.19V198.82H49.23C43.51 198.82 37.8767 198.127 32.33 196.74C26.7833 195.267 21.8433 193.014 17.51 189.98C13.1767 186.86 9.66668 182.874 6.98001 178.02C4.29335 173.167 2.95001 167.274 2.95001 160.34V159.04C2.95001 152.194 4.29335 146.344 6.98001 141.49C9.66668 136.637 13.1767 132.694 17.51 129.66C21.93 126.54 26.9133 124.287 32.46 122.9C38.0067 121.427 43.64 120.69 49.36 120.69H74.19V111.98ZM104.48 176.72H122.55C129.743 176.72 135.29 175.247 139.19 172.3C143.177 169.354 145.17 165.28 145.17 160.08V159.04C145.17 153.84 143.177 149.854 139.19 147.08C135.203 144.22 129.657 142.79 122.55 142.79H104.48V176.72ZM56.12 142.79C48.9267 142.79 43.3367 144.22 39.35 147.08C35.45 149.854 33.5 153.84 33.5 159.04V160.08C33.5 165.28 35.45 169.354 39.35 172.3C43.3367 175.247 48.9267 176.72 56.12 176.72H74.19V142.79H56.12Z" stroke="white" stroke-width="4" mask="url(#path-1-outside-1)"/>
<path d="M254.939 111.59C265.079 111.59 273.789 112.37 281.069 113.93C288.349 115.49 294.502 117.57 299.529 120.17C304.642 122.77 308.715 125.76 311.749 129.14C314.782 132.434 317.122 135.857 318.769 139.41C320.502 142.877 321.629 146.387 322.149 149.94C322.669 153.407 322.929 156.57 322.929 159.43V163.33C322.929 166.19 322.669 169.354 322.149 172.82C321.629 176.287 320.545 179.84 318.899 183.48C317.252 187.034 314.869 190.5 311.749 193.88C308.715 197.26 304.685 200.294 299.659 202.98C294.632 205.58 288.435 207.704 281.069 209.35C273.789 210.91 265.079 211.69 254.939 211.69H249.349C239.122 211.69 230.325 210.91 222.959 209.35C215.679 207.704 209.525 205.58 204.499 202.98C199.472 200.294 195.399 197.26 192.279 193.88C189.245 190.5 186.905 187.034 185.259 183.48C183.612 179.84 182.529 176.287 182.009 172.82C181.489 169.354 181.229 166.19 181.229 163.33V159.43C181.229 156.57 181.489 153.407 182.009 149.94C182.529 146.387 183.612 142.877 185.259 139.41C186.905 135.857 189.245 132.434 192.279 129.14C195.399 125.76 199.472 122.77 204.499 120.17C209.525 117.57 215.679 115.49 222.959 113.93C230.325 112.37 239.122 111.59 249.349 111.59H254.939ZM291.209 160.34C291.209 157.567 290.689 154.707 289.649 151.76C288.695 148.727 286.789 145.997 283.929 143.57C281.069 141.057 277.082 139.02 271.969 137.46C266.855 135.814 260.225 134.99 252.079 134.99C243.759 134.99 237.042 135.814 231.929 137.46C226.815 139.02 222.829 141.057 219.969 143.57C217.195 145.997 215.332 148.727 214.379 151.76C213.425 154.707 212.949 157.567 212.949 160.34V161.9C212.949 164.674 213.425 167.62 214.379 170.74C215.419 173.774 217.369 176.59 220.229 179.19C223.089 181.79 227.075 183.957 232.189 185.69C237.302 187.337 243.932 188.16 252.079 188.16C260.225 188.16 266.812 187.337 271.839 185.69C276.952 184.044 280.939 181.964 283.799 179.45C286.659 176.85 288.609 174.034 289.649 171C290.689 167.88 291.209 164.934 291.209 162.16V160.34Z" stroke="white" stroke-width="4" mask="url(#path-1-outside-1)"/>
<path d="M363.319 177.76V210H333.029V113.28H405.569C414.236 113.28 421.473 114.104 427.279 115.75C433.086 117.31 437.722 119.52 441.189 122.38C444.656 125.24 447.082 128.577 448.469 132.39C449.942 136.204 450.679 140.32 450.679 144.74V146.04C450.679 150.374 449.942 154.49 448.469 158.39C446.996 162.204 444.526 165.54 441.059 168.4C437.592 171.26 432.956 173.557 427.149 175.29C421.429 176.937 414.236 177.76 405.569 177.76H363.319ZM363.319 156.05H405.049C409.816 156.05 413.326 155.184 415.579 153.45C417.919 151.717 419.089 149.204 419.089 145.91V145.52C419.089 142.227 417.962 139.714 415.709 137.98C413.456 136.16 409.902 135.25 405.049 135.25H363.319V156.05Z" stroke="white" stroke-width="4" mask="url(#path-1-outside-1)"/>
<path d="M8.41001 223.28H51.44L84.85 283.47L118.39 223.28H159.86V320H129.96V253.05L91.87 320H75.62L37.53 253.05V320H8.41001V223.28Z" stroke="white" stroke-width="4" mask="url(#path-1-outside-1)"/>
<path d="M232.717 244.21L214.777 280.48H251.437L232.717 244.21ZM262.617 302.32H203.987L195.277 320H164.467L213.347 223.28H252.607L304.347 320H271.717L262.617 302.32Z" stroke="white" stroke-width="4" mask="url(#path-1-outside-1)"/>
</svg>
