<svg width="30" height="30" viewBox="0 0 30 30" fill="none" xmlns="http://www.w3.org/2000/svg">
<circle cx="15" cy="15" r="15" fill="#FF284F"/>
<path d="M18.3004 20.2142V21.855L20.0193 20.2142H18.3004Z" fill="white"/>
<path d="M17.5386 19.4525H20.0861V9H10V22H17.5386V19.4525ZM16.3972 11.3274V12.0891H13.6889V11.3274H16.3972ZM12.2247 18.2084C12.2247 17.2517 13.003 16.4734 13.9597 16.4734C14.9165 16.4734 15.6947 17.2517 15.6947 18.2084C15.6947 19.1651 14.9165 19.9434 13.9597 19.9434C13.003 19.9434 12.2247 19.1651 12.2247 18.2084ZM17.8628 15.3392H12.2234V14.5775H17.8628V15.3392ZM17.8628 13.7142H12.2234V12.9525H17.8628V13.7142Z" fill="white"/>
<path d="M12.9864 18.2084C12.9864 18.745 13.4231 19.1816 13.9597 19.1816C14.4964 19.1816 14.933 18.745 14.933 18.2084C14.933 17.6717 14.4964 17.2351 13.9597 17.2351C13.4231 17.235 12.9864 17.6717 12.9864 18.2084Z" fill="white"/>
</svg>
