<svg width="30" height="30" viewBox="0 0 30 30" fill="none" xmlns="http://www.w3.org/2000/svg">
<circle cx="15" cy="15" r="15" fill="#29006C"/>
<path d="M20.4818 15.3C20.4006 15.2725 20.1824 15.1844 20.1224 15.0986C20.1129 15.085 20.0981 15.0556 20.0793 15.0185C19.969 14.8001 19.7106 14.2888 19.1889 14.2888C19.1069 14.2888 19.0209 14.3018 18.9333 14.3274C18.4428 14.4705 18.2075 14.7958 18.0356 15.0334C17.9367 15.1702 17.8585 15.2782 17.7705 15.2951C17.7427 15.3005 17.7168 15.3031 17.6932 15.3031C17.6092 15.3031 17.5622 15.2712 17.5534 15.2082C17.5203 14.9717 17.5279 14.6767 17.5359 14.3643C17.5491 13.8476 17.564 13.262 17.3923 12.8026C17.1122 12.0535 16.487 11.45 15.9846 10.9651C15.8591 10.8439 15.7405 10.7295 15.6388 10.6242C15.5998 10.576 15.5592 10.5321 15.5199 10.4897C15.463 10.4281 15.4091 10.3699 15.3698 10.3086C15.2012 10.0457 15.0831 9.74756 14.981 9.46591C14.9714 9.43509 14.9618 9.404 14.9523 9.37261C14.937 9.32231 14.9202 9.28396 14.901 9.25551C14.8454 9.12238 14.7799 9 14.6788 9C14.663 9 14.6469 9.00308 14.6308 9.00917C14.457 9.0749 14.4188 9.43529 14.3851 9.75328C14.3678 9.9166 14.3515 10.0709 14.3197 10.1467C14.2786 10.2446 14.2148 10.3025 14.1474 10.3637C14.0676 10.4362 13.9851 10.5111 13.9465 10.6523C13.9079 10.7935 13.9465 10.8748 13.984 10.9533C14.0155 11.0195 14.0453 11.0819 14.0291 11.1861C14.0121 11.2954 13.9594 11.3544 13.9036 11.4169C13.8441 11.4836 13.7826 11.5525 13.7721 11.6787C13.7613 11.8089 13.8298 11.8935 13.896 11.9753C13.954 12.0468 14.0087 12.1144 14.0074 12.2105C14.0062 12.2921 13.9579 12.3327 13.8967 12.3841C13.8166 12.4514 13.7169 12.5351 13.7496 12.7367C13.7712 12.8699 13.8592 12.9395 13.9368 13.0008C14.0114 13.0598 14.057 13.0994 14.0537 13.1667C14.0512 13.2179 14.0355 13.2726 14.0188 13.3304C13.979 13.4686 13.9338 13.6252 14.0507 13.7968C14.0928 13.8586 14.2329 13.9826 14.3886 14.1095C13.9612 13.9138 13.3264 13.6667 12.6625 13.5625C11.5736 13.3916 10.5176 12.9693 9.95028 12.7423C9.68322 12.6355 9.56312 12.5882 9.51576 12.5882C9.48507 12.5882 9.47497 12.6071 9.47202 12.6152C9.46074 12.6464 9.48782 12.6758 9.55281 12.7298L9.72763 12.8749C9.96213 13.0693 10.1462 13.2219 10.2244 13.2987C10.1861 13.2851 10.1314 13.2628 10.0605 13.232C10.0231 13.2157 9.99298 13.2222 9.97635 13.2464C9.96835 13.2581 9.96447 13.2729 9.96447 13.2915C9.96447 13.4985 10.5605 14.5162 11.3838 15.4982C11.978 16.2068 13.1196 17.3958 14.0892 17.3958C14.1471 17.3958 14.204 17.3915 14.2594 17.3831C13.8738 17.782 12.4723 18.8331 11.2297 19.3489C9.72814 19.9722 9.05028 20.2924 9.00286 20.5426C8.99209 20.5995 9.01176 20.6526 9.06136 20.7005C9.12739 20.7643 9.189 20.794 9.2553 20.794C9.30208 20.794 9.34502 20.7791 9.38652 20.7646C9.42902 20.7498 9.47296 20.7345 9.52269 20.7345C9.57824 20.7345 9.63594 20.7539 9.69902 20.7939C9.85648 20.8936 10.0456 21 10.2979 21C10.5608 21 10.8509 20.885 11.1848 20.6484C11.2473 20.6041 11.304 20.5843 11.3688 20.5843C11.4053 20.5843 11.4412 20.5904 11.4791 20.5968C11.5204 20.6038 11.5631 20.6111 11.6104 20.6111C11.7178 20.6111 11.8201 20.5711 11.9321 20.4852C12.7586 19.8517 13.6599 19.7331 14.6142 19.6075C15.7398 19.4593 16.9038 19.3062 18.1556 18.3434C19.2209 17.5242 19.4311 16.8206 19.5703 16.3551C19.5849 16.306 19.5987 16.2598 19.6127 16.2167C19.752 15.7846 19.8338 15.6837 19.9358 15.6486C20.0035 15.6253 20.1711 15.5576 20.319 15.4979C20.4231 15.4559 20.513 15.4196 20.5379 15.411C20.5746 15.3984 20.5789 15.3759 20.5782 15.3636C20.5775 15.351 20.5759 15.3216 20.4818 15.3Z" fill="white"/>
</svg>
