<svg width="30" height="30" viewBox="0 0 30 30" fill="none" xmlns="http://www.w3.org/2000/svg">
<circle cx="15" cy="15" r="15" fill="#002987"/>
<path d="M23.4468 14.5389C23.343 12.7194 22.0168 11.1974 20.2169 10.832C20.1255 8.6924 18.352 7.0035 16.1932 7H11.296C10.8861 6.99963 10.5411 7.30433 10.4941 7.70827L9.0054 20.5083C8.95432 20.9472 9.2716 21.3441 9.71408 21.3947C9.74493 21.3983 9.77598 21.4 9.80703 21.4H12.3813L12.2684 22.0685C12.1952 22.5044 12.492 22.9165 12.9314 22.9891C12.9753 22.9964 13.0198 23 13.0644 23H15.7184C16.1252 23 16.4683 22.6996 16.5187 22.2992L16.9682 18.7333H19.4191C21.6461 18.7334 23.4515 16.9427 23.4516 14.7335C23.4516 14.6686 23.45 14.6038 23.4468 14.5389ZM12.4611 20.8667H9.80703C9.73055 20.8669 9.65766 20.8345 9.60702 20.7776C9.55561 20.7209 9.53131 20.645 9.54035 20.5693L11.0296 7.76933C11.0453 7.63507 11.1598 7.53367 11.296 7.53333H16.1932C18.0238 7.53623 19.5424 8.93923 19.6753 10.7504C19.5554 10.7403 19.4333 10.7333 19.3123 10.7333H14.5216C14.112 10.7334 13.7675 11.038 13.7206 11.4416L13.4633 13.6533C13.4463 13.7997 13.5521 13.9319 13.6996 13.9488C13.8471 13.9657 13.9804 13.8607 13.9974 13.7144L14.2547 11.5027C14.2704 11.3682 14.3852 11.2667 14.5216 11.2667H19.3115C19.4332 11.2667 19.5536 11.2724 19.6726 11.284C19.5224 13.0805 18.0104 14.4635 16.1932 14.4667H13.9797C13.5729 14.4666 13.2298 14.7671 13.1794 15.1675L12.4611 20.8667ZM21.9484 17.1253L21.949 17.1243C21.2916 17.814 20.3759 18.2033 19.4191 18.2H16.7308C16.5953 18.2 16.481 18.3002 16.4642 18.4336L15.9854 22.2331C15.9686 22.3666 15.8541 22.4668 15.7184 22.4667H13.0644C12.9159 22.4666 12.7956 22.3472 12.7957 22.1999C12.7957 22.1853 12.7969 22.1707 12.7993 22.1563L12.9635 21.1773C12.9635 21.1755 12.9635 21.1736 12.9635 21.172C12.9635 21.1704 12.9635 21.1683 12.9652 21.1664L13.7128 15.2336C13.7296 15.1001 13.844 14.9999 13.9797 15H16.1932C18.2714 14.9973 20.008 13.4298 20.2062 11.3776C21.7198 11.7279 22.8202 13.025 22.9097 14.5643C22.9596 15.513 22.6116 16.4399 21.9484 17.1253Z" fill="white"/>
</svg>
