<svg width="30" height="30" viewBox="0 0 30 30" fill="none" xmlns="http://www.w3.org/2000/svg">
<circle cx="15" cy="15" r="15" fill="#FF8C00"/>
<path d="M20.7097 18.7552C20.7511 19.0654 20.658 19.1999 20.5546 19.1999C20.4512 19.1999 20.3064 19.0758 20.1513 18.8276C19.9962 18.5794 19.9341 18.3002 20.0169 18.1554C20.0686 18.0623 20.172 18.0209 20.3168 18.0726C20.5753 18.1657 20.6787 18.569 20.7097 18.7552ZM19.2412 19.4377C19.5618 19.7066 19.6549 20.0272 19.4894 20.2444C19.3964 20.3685 19.2412 20.4305 19.0654 20.4305C18.8896 20.4305 18.7035 20.3685 18.5794 20.2547C18.2898 20.0065 18.2071 19.5928 18.3932 19.3653C18.4656 19.2723 18.5897 19.2206 18.7242 19.2206C18.9 19.2309 19.0861 19.3033 19.2412 19.4377ZM18.7138 22.0231C20.0789 22.0231 21.5577 22.4885 23.1917 23.9466C23.3572 24.0914 23.5743 23.9156 23.4296 23.7295C21.8163 21.6922 20.3271 21.3095 18.8483 20.9786C17.0385 20.5753 16.0974 19.5618 15.4459 18.4346C15.3115 18.2071 15.2597 18.2485 15.2494 18.538C15.2391 18.8896 15.2597 19.355 15.3425 19.81C15.2701 19.81 15.1977 19.81 15.1253 19.81C12.5296 19.81 10.4199 17.7003 10.4199 15.1046C10.4199 12.5089 12.5296 10.3992 15.1253 10.3992C17.721 10.3992 19.8307 12.5089 19.8307 15.1046C19.8307 15.2908 19.8204 15.4769 19.7997 15.6527C19.4584 15.5907 18.7759 15.5803 18.3002 15.6217C18.1244 15.632 18.145 15.7251 18.2795 15.7458C19.8307 16.025 20.9062 16.9868 21.1441 18.7448C21.1544 18.7862 21.2061 18.7966 21.2268 18.7655C21.868 17.7003 22.2299 16.449 22.2299 15.115C22.2299 11.1852 19.0447 8 15.115 8C11.1852 8 8 11.1748 8 15.1046C8 19.0344 11.1852 22.2196 15.115 22.2196C16.1595 22.2299 17.1936 22.0231 18.7138 22.0231Z" fill="white"/>
</svg>
