<svg width="30" height="30" viewBox="0 0 30 30" fill="none" xmlns="http://www.w3.org/2000/svg">
<circle cx="15" cy="15" r="15" fill="#3B9E40"/>
<path fill-rule="evenodd" clip-rule="evenodd" d="M20.2181 8.58997L19.5476 7.97701L11.7509 12.4405L8.03453 10.3141L7.6514 11.0803L11.7509 13.4558L20.2181 8.58997ZM18.7431 7.45974L17.8427 7L11.7509 10.5056L9.0498 8.95402L8.49428 9.6245L11.7509 11.4826L18.7431 7.45974ZM21.3101 9.89267L20.812 9.22219L11.7509 14.4327L7.34488 11.9041L7.13413 12.747L11.7509 15.3906L21.3101 9.89267ZM22.6127 14.1837C22.6127 13.3151 22.4721 12.4853 22.1912 11.6934L21.7698 10.6206L11.7508 16.3676L7 13.6665V14.1837C7 15.2308 7.20419 16.2462 7.61305 17.23C7.99618 18.1622 8.55171 18.9925 9.27962 19.7204C10.0203 20.4353 10.844 20.9847 11.7508 21.3679C12.7214 21.7889 13.7366 22 14.7968 22C15.8442 22 16.8595 21.7893 17.8427 21.3679C18.7752 20.9847 19.605 20.4353 20.3331 19.7204C21.0483 18.9925 21.6039 18.1622 21.9996 17.23L22.1912 16.7124C22.4721 15.8952 22.6127 15.0523 22.6127 14.1837Z" fill="white"/>
</svg>
