<svg width="30" height="30" viewBox="0 0 30 30" fill="none" xmlns="http://www.w3.org/2000/svg">
<circle cx="15" cy="15" r="15" fill="#036CB5"/>
<path fill-rule="evenodd" clip-rule="evenodd" d="M16.5269 21.1338L18.387 19.4187L19.9961 21.2581C19.677 21.5054 19.3274 21.7405 18.9437 21.9573C17.7804 22.6212 16.4319 23 15.0006 23C10.5947 23 7 19.4066 7 15.0006C7 10.5935 10.5947 7 15.0006 7C16.2553 7 17.4466 7.29237 18.5076 7.81128C18.6048 7.85739 18.7011 7.90638 18.7971 7.95801C18.8659 7.99507 18.9346 8.03344 19.0033 8.07314L18.2676 8.73218L17.164 7.58834L15.2966 9.25473L14.1906 8.04392L10.708 11.1794L12.9396 13.6388L12.0613 14.4086L14.26 16.8704L13.3866 17.6391L16.5269 21.1338ZM18.8187 9.65841L19.7688 8.80211L20.6251 9.75215L19.675 10.6085L18.8187 9.65841ZM17.0982 9.03798L15.6705 10.3231L16.9556 11.7508L18.3833 10.4656L17.0982 9.03798ZM21.2564 15.3196L22.2065 14.4633L23.0628 15.4133L22.1127 16.2697L21.2564 15.3196ZM19.6338 14.9169L18.2075 16.2055L19.4954 17.6309L20.9216 16.3422L19.6338 14.9169ZM16.7916 16.0761L14.8896 17.7882L16.6025 19.6912L18.5046 17.979L16.7916 16.0761ZM20.0419 12.4809L20.99 11.6243L21.8475 12.5734L20.8993 13.43L20.0419 12.4809ZM15.4417 12.7796L13.5379 14.4934L15.2508 16.3964L17.1547 14.6826L15.4417 12.7796ZM12.1791 11.2498L14.082 9.53681L15.795 11.4398L13.892 13.1527L12.1791 11.2498ZM18.4094 11.909L16.9853 13.1944L18.2732 14.6212L19.6973 13.3358L18.4094 11.909ZM20.8905 17.801L19.4634 19.0869L20.7501 20.515L22.1773 19.2291L20.8905 17.801Z" fill="white"/>
</svg>
