<svg width="30" height="30" viewBox="0 0 30 30" fill="none" xmlns="http://www.w3.org/2000/svg">
<circle cx="15" cy="15" r="15" fill="#292825"/>
<path fill-rule="evenodd" clip-rule="evenodd" d="M6.62025 18.7975H7.09283L5.47257 11H5L6.62025 18.7975ZM7.49785 11L9.15186 18.8312H12.3249L12.325 18.8313H12.5951L13.287 13.889L13.9789 18.8312H14.0128L14.0128 18.8313H17.3883L19.0423 11.0338H19.0013L19.0084 11H16.848H16.308L15.5827 15.8465L14.8904 11.0338H14.8278L14.8227 11H11.6835L10.9902 15.5062L10.3334 11.0338V11.6906L10.232 11H7.49785ZM8.34166 18.7975H7.90284L6.24883 11H6.7214L8.34166 18.7975ZM21.0338 16.6371C21.1688 16.4684 21.2363 16.1983 21.2363 15.8945V11H22.3503H24.2743V15.7595C24.2743 16.8734 23.9705 17.6835 23.3629 18.2236C22.7774 18.7115 21.8786 18.98 20.6965 18.9989L20.6962 19H20.5612C19.8186 19 19.211 18.9325 18.7384 18.7637C18.3334 18.6624 17.9958 18.4599 17.7258 18.2236L19.2448 11H19.6498H19.8186V15.8608C19.8186 16.1983 19.8524 16.4684 19.9874 16.6371C20.1224 16.8059 20.2912 16.9072 20.5275 16.9072C20.73 16.9072 20.8988 16.8059 21.0338 16.6371Z" fill="white"/>
</svg>
