<svg width="21" height="24" viewBox="0 0 21 24" fill="none" xmlns="http://www.w3.org/2000/svg">
<path d="M18.9221 1H2.30234C1.5842 1 1 1.58425 1 2.30234V21.6976C1 22.4158 1.58425 23 2.30234 23H18.9221C19.6402 23 20.2244 22.4157 20.2244 21.6976V2.30234C20.2244 1.58425 19.6402 1 18.9221 1ZM2.04186 2.30234C2.04186 2.15874 2.1587 2.04186 2.30234 2.04186H18.9221C19.0657 2.04186 19.1825 2.1587 19.1825 2.30234V6.81836H2.04186V2.30234ZM7.06083 21.9581H2.30234C2.15874 21.9581 2.04186 21.8412 2.04186 21.6976V15.4287H7.06083V21.9581ZM7.06083 14.3869H2.04186V7.86026H7.06083V14.3869ZM13.1217 21.9581H8.10269V15.4287H13.1217V21.9581ZM13.1217 14.3869H8.10269V7.86026H13.1217V14.3869ZM19.1825 21.6976C19.1825 21.8412 19.0656 21.9581 18.9221 21.9581H14.1635V7.86026H19.1825V21.6976Z" fill="#BFC0C4"/>
<path d="M5.83924 10.6027H5.07225V9.83566C5.07225 9.54795 4.83902 9.31471 4.5513 9.31471C4.26358 9.31471 4.03035 9.54795 4.03035 9.83566V10.6027H3.26335C2.97563 10.6027 2.7424 10.8359 2.7424 11.1236C2.7424 11.4113 2.97563 11.6446 3.26335 11.6446H4.03035V12.4116C4.03035 12.6993 4.26358 12.9326 4.5513 12.9326C4.83902 12.9326 5.07225 12.6993 5.07225 12.4116V11.6446H5.83924C6.12696 11.6446 6.3602 11.4113 6.3602 11.1236C6.3602 10.8359 6.12696 10.6027 5.83924 10.6027Z" fill="#BFC0C4"/>
<path d="M11.9259 10.6027H9.29844C9.01072 10.6027 8.77749 10.8359 8.77749 11.1236C8.77749 11.4113 9.01072 11.6446 9.29844 11.6446H11.9259C12.2135 11.6446 12.4468 11.4113 12.4468 11.1236C12.4468 10.8359 12.2135 10.6027 11.9259 10.6027Z" fill="#BFC0C4"/>
<path d="M5.28802 18.6948L5.91687 18.0659C6.12028 17.8625 6.12028 17.5327 5.91687 17.3292C5.71345 17.1258 5.38358 17.1258 5.18008 17.3292L4.55123 17.958L3.92239 17.3292C3.71897 17.1258 3.3891 17.1258 3.1856 17.3292C2.98219 17.5326 2.98219 17.8624 3.1856 18.0659L3.81449 18.6948L3.18564 19.3236C2.98223 19.5271 2.98223 19.8569 3.18564 20.0603C3.28739 20.1621 3.42068 20.2129 3.55401 20.2129C3.6873 20.2129 3.82068 20.1621 3.92239 20.0603L4.55123 19.4315L5.18008 20.0603C5.28183 20.1621 5.41512 20.2129 5.54845 20.2129C5.68179 20.2129 5.81512 20.1621 5.91682 20.0603C6.12024 19.8569 6.12024 19.5271 5.91682 19.3236L5.28802 18.6948Z" fill="#BFC0C4"/>
<path d="M11.9776 17.3292C11.7741 17.1258 11.4444 17.1258 11.2408 17.3292L9.24637 19.3236C9.04299 19.5271 9.04299 19.8569 9.24641 20.0604C9.34816 20.1621 9.48145 20.213 9.61478 20.213C9.74811 20.213 9.88145 20.1621 9.98315 20.0604L11.9776 18.066C12.181 17.8625 12.181 17.5327 11.9776 17.3292Z" fill="#BFC0C4"/>
<path d="M9.61468 18.1421C9.8601 18.1421 10.0591 17.9431 10.0591 17.6977C10.0591 17.4523 9.8601 17.2533 9.61468 17.2533C9.36925 17.2533 9.1703 17.4523 9.1703 17.6977C9.1703 17.9431 9.36925 18.1421 9.61468 18.1421Z" fill="#BFC0C4"/>
<path d="M11.6094 20.1362C11.8548 20.1362 12.0537 19.9373 12.0537 19.6919C12.0537 19.4465 11.8548 19.2476 11.6094 19.2476C11.364 19.2476 11.1651 19.4465 11.1651 19.6919C11.1651 19.9373 11.364 20.1362 11.6094 20.1362Z" fill="#BFC0C4"/>
<path d="M17.9892 13.4791H15.3264C15.0387 13.4791 14.8054 13.7123 14.8054 14.0001C14.8054 14.2877 15.0387 14.521 15.3264 14.521H17.9892C18.2769 14.521 18.5102 14.2877 18.5102 14.0001C18.5102 13.7123 18.2769 13.4791 17.9892 13.4791Z" fill="#BFC0C4"/>
<path d="M17.9892 15.2974H15.3264C15.0387 15.2974 14.8054 15.5307 14.8054 15.8183C14.8054 16.106 15.0387 16.3393 15.3264 16.3393H17.9892C18.2769 16.3393 18.5102 16.106 18.5102 15.8183C18.5102 15.5307 18.2769 15.2974 17.9892 15.2974Z" fill="#BFC0C4"/>
<path d="M20.2244 2.30234H20.3244H20.2244ZM19.1825 6.81836V6.91836H19.2825V6.81836H19.1825ZM2.04186 6.81836H1.94186V6.91836H2.04186V6.81836ZM7.06083 21.9581V22.0581H7.16083V21.9581H7.06083ZM2.30234 21.9581V21.8581H2.30231L2.30234 21.9581ZM2.04186 15.4287V15.3287H1.94186V15.4287H2.04186ZM7.06083 15.4287H7.16083V15.3287H7.06083V15.4287ZM7.06083 14.3869V14.4869H7.16083V14.3869H7.06083ZM2.04186 14.3869H1.94186V14.4869H2.04186V14.3869ZM2.04186 7.86026V7.76026H1.94186V7.86026H2.04186ZM7.06083 7.86026H7.16083V7.76026H7.06083V7.86026ZM13.1217 21.9581V22.0581H13.2217V21.9581H13.1217ZM8.10269 21.9581H8.00269V22.0581H8.10269V21.9581ZM8.10269 15.4287V15.3287H8.00269V15.4287H8.10269ZM13.1217 15.4287H13.2217V15.3287H13.1217V15.4287ZM13.1217 14.3869V14.4869H13.2217V14.3869H13.1217ZM8.10269 14.3869H8.00269V14.4869H8.10269V14.3869ZM8.10269 7.86026V7.76026H8.00269V7.86026H8.10269ZM13.1217 7.86026H13.2217V7.76026H13.1217V7.86026ZM14.1635 21.9581H14.0635V22.0581H14.1635V21.9581ZM14.1635 7.86026V7.76026H14.0635V7.86026H14.1635ZM19.1825 7.86026H19.2825V7.76026H19.1825V7.86026ZM5.07225 10.6027H4.97225V10.7027H5.07225V10.6027ZM4.03035 10.6027V10.7027H4.13035V10.6027H4.03035ZM4.03035 11.6446H4.13035V11.5446H4.03035V11.6446ZM5.07225 11.6446V11.5446H4.97225V11.6446H5.07225ZM5.28802 18.6948L5.21731 18.6241L5.1466 18.6948L5.21731 18.7655L5.28802 18.6948ZM5.91687 18.0659L5.84616 17.9952L5.91687 18.0659ZM5.91687 17.3292L5.98759 17.2585L5.98757 17.2584L5.91687 17.3292ZM5.18008 17.3292L5.10939 17.2584L5.10937 17.2584L5.18008 17.3292ZM4.55123 17.958L4.48052 18.0287L4.55123 18.0994L4.62194 18.0287L4.55123 17.958ZM3.92239 17.3292L3.9931 17.2584L3.99309 17.2584L3.92239 17.3292ZM3.1856 17.3292L3.11491 17.2584L3.11489 17.2584L3.1856 17.3292ZM3.1856 18.0659L3.11488 18.1366L3.11489 18.1367L3.1856 18.0659ZM3.81449 18.6948L3.8852 18.7655L3.95592 18.6948L3.8852 18.6241L3.81449 18.6948ZM3.18564 19.3236L3.11493 19.2529L3.18564 19.3236ZM3.18564 20.0603L3.11493 20.1311L3.11495 20.1311L3.18564 20.0603ZM3.92239 20.0603L3.9931 20.1311L3.92239 20.0603ZM4.55123 19.4315L4.62194 19.3608L4.55123 19.2901L4.48052 19.3608L4.55123 19.4315ZM5.18008 20.0603L5.10937 20.1311L5.10939 20.1311L5.18008 20.0603ZM5.91682 19.3236L5.84611 19.3944L5.84611 19.3944L5.91682 19.3236ZM11.9776 17.3292L12.0483 17.2585L12.0483 17.2585L11.9776 17.3292ZM11.2408 17.3292L11.1701 17.2585L11.1701 17.2585L11.2408 17.3292ZM9.24637 19.3236L9.17566 19.2529L9.17565 19.2529L9.24637 19.3236ZM9.24641 20.0604L9.17568 20.1311L9.17571 20.1312L9.24641 20.0604ZM9.98315 20.0604L10.0538 20.1312L10.0539 20.1311L9.98315 20.0604ZM11.9776 18.066L12.0483 18.1367L12.0483 18.1367L11.9776 18.066ZM18.5102 14.0001H18.6102H18.5102ZM18.5102 15.8183H18.6102H18.5102ZM18.9221 0.9H2.30234V1.1H18.9221V0.9ZM2.30234 0.9C1.52897 0.9 0.9 1.52902 0.9 2.30234H1.1C1.1 1.63947 1.63943 1.1 2.30234 1.1V0.9ZM0.9 2.30234V21.6976H1.1V2.30234H0.9ZM0.9 21.6976C0.9 22.471 1.52902 23.1 2.30234 23.1V22.9C1.63947 22.9 1.1 22.3605 1.1 21.6976H0.9ZM2.30234 23.1H18.9221V22.9H2.30234V23.1ZM18.9221 23.1C19.6954 23.1 20.3244 22.4709 20.3244 21.6976H20.1244C20.1244 22.3605 19.585 22.9 18.9221 22.9V23.1ZM20.3244 21.6976V2.30234H20.1244V21.6976H20.3244ZM20.3244 2.30234C20.3244 1.52902 19.6954 0.9 18.9221 0.9V1.1C19.585 1.1 20.1244 1.63947 20.1244 2.30234H20.3244ZM2.14186 2.30234C2.14186 2.21396 2.21393 2.14186 2.30234 2.14186V1.94186C2.10346 1.94186 1.94186 2.10352 1.94186 2.30234H2.14186ZM2.30234 2.14186H18.9221V1.94186H2.30234V2.14186ZM18.9221 2.14186C19.0104 2.14186 19.0825 2.21393 19.0825 2.30234H19.2825C19.2825 2.10346 19.1209 1.94186 18.9221 1.94186V2.14186ZM19.0825 2.30234V6.81836H19.2825V2.30234H19.0825ZM19.1825 6.71836H2.04186V6.91836H19.1825V6.71836ZM2.14186 6.81836V2.30234H1.94186V6.81836H2.14186ZM7.06083 21.8581H2.30234V22.0581H7.06083V21.8581ZM2.30231 21.8581C2.21397 21.8581 2.14186 21.786 2.14186 21.6976H1.94186C1.94186 21.8964 2.10351 22.0581 2.30237 22.0581L2.30231 21.8581ZM2.14186 21.6976V15.4287H1.94186V21.6976H2.14186ZM2.04186 15.5287H7.06083V15.3287H2.04186V15.5287ZM6.96083 15.4287V21.9581H7.16083V15.4287H6.96083ZM7.06083 14.2869H2.04186V14.4869H7.06083V14.2869ZM2.14186 14.3869V7.86026H1.94186V14.3869H2.14186ZM2.04186 7.96026H7.06083V7.76026H2.04186V7.96026ZM6.96083 7.86026V14.3869H7.16083V7.86026H6.96083ZM13.1217 21.8581H8.10269V22.0581H13.1217V21.8581ZM8.20269 21.9581V15.4287H8.00269V21.9581H8.20269ZM8.10269 15.5287H13.1217V15.3287H8.10269V15.5287ZM13.0217 15.4287V21.9581H13.2217V15.4287H13.0217ZM13.1217 14.2869H8.10269V14.4869H13.1217V14.2869ZM8.20269 14.3869V7.86026H8.00269V14.3869H8.20269ZM8.10269 7.96026H13.1217V7.76026H8.10269V7.96026ZM13.0217 7.86026V14.3869H13.2217V7.86026H13.0217ZM19.0825 21.6976C19.0825 21.786 19.0104 21.8581 18.9221 21.8581V22.0581C19.1208 22.0581 19.2825 21.8964 19.2825 21.6976H19.0825ZM18.9221 21.8581H14.1635V22.0581H18.9221V21.8581ZM14.2635 21.9581V7.86026H14.0635V21.9581H14.2635ZM14.1635 7.96026H19.1825V7.76026H14.1635V7.96026ZM19.0825 7.86026V21.6976H19.2825V7.86026H19.0825ZM5.83924 10.5027H5.07225V10.7027H5.83924V10.5027ZM5.17225 10.6027V9.83566H4.97225V10.6027H5.17225ZM5.17225 9.83566C5.17225 9.49272 4.89425 9.21471 4.5513 9.21471V9.41471C4.78379 9.41471 4.97225 9.60317 4.97225 9.83566H5.17225ZM4.5513 9.21471C4.20835 9.21471 3.93035 9.49272 3.93035 9.83566H4.13035C4.13035 9.60317 4.31881 9.41471 4.5513 9.41471V9.21471ZM3.93035 9.83566V10.6027H4.13035V9.83566H3.93035ZM4.03035 10.5027H3.26335V10.7027H4.03035V10.5027ZM3.26335 10.5027C2.9204 10.5027 2.6424 10.7807 2.6424 11.1236H2.8424C2.8424 10.8912 3.03087 10.7027 3.26335 10.7027V10.5027ZM2.6424 11.1236C2.6424 11.4665 2.9204 11.7446 3.26335 11.7446V11.5446C3.03087 11.5446 2.8424 11.3561 2.8424 11.1236H2.6424ZM3.26335 11.7446H4.03035V11.5446H3.26335V11.7446ZM3.93035 11.6446V12.4116H4.13035V11.6446H3.93035ZM3.93035 12.4116C3.93035 12.7545 4.20835 13.0326 4.5513 13.0326V12.8326C4.31881 12.8326 4.13035 12.6441 4.13035 12.4116H3.93035ZM4.5513 13.0326C4.89425 13.0326 5.17225 12.7545 5.17225 12.4116H4.97225C4.97225 12.6441 4.78379 12.8326 4.5513 12.8326V13.0326ZM5.17225 12.4116V11.6446H4.97225V12.4116H5.17225ZM5.07225 11.7446H5.83924V11.5446H5.07225V11.7446ZM5.83924 11.7446C6.1822 11.7446 6.4602 11.4665 6.4602 11.1236H6.2602C6.2602 11.3561 6.07173 11.5446 5.83924 11.5446V11.7446ZM6.4602 11.1236C6.4602 10.7807 6.1822 10.5027 5.83924 10.5027V10.7027C6.07173 10.7027 6.2602 10.8912 6.2602 11.1236H6.4602ZM11.9259 10.5027H9.29844V10.7027H11.9259V10.5027ZM9.29844 10.5027C8.95549 10.5027 8.67749 10.7807 8.67749 11.1236H8.87749C8.87749 10.8912 9.06596 10.7027 9.29844 10.7027V10.5027ZM8.67749 11.1236C8.67749 11.4665 8.95549 11.7446 9.29844 11.7446V11.5446C9.06596 11.5446 8.87749 11.3561 8.87749 11.1236H8.67749ZM9.29844 11.7446H11.9259V11.5446H9.29844V11.7446ZM11.9259 11.7446C12.2688 11.7446 12.5468 11.4665 12.5468 11.1236H12.3468C12.3468 11.3561 12.1583 11.5446 11.9259 11.5446V11.7446ZM12.5468 11.1236C12.5468 10.7807 12.2688 10.5027 11.9259 10.5027V10.7027C12.1583 10.7027 12.3468 10.8912 12.3468 11.1236H12.5468ZM5.35873 18.7655L5.98758 18.1367L5.84616 17.9952L5.21731 18.6241L5.35873 18.7655ZM5.98758 18.1367C6.23005 17.8942 6.23003 17.501 5.98759 17.2585L5.84614 17.3999C6.01053 17.5643 6.01051 17.8309 5.84616 17.9952L5.98758 18.1367ZM5.98757 17.2584C5.7451 17.016 5.35193 17.016 5.10939 17.2584L5.25077 17.3999C5.41523 17.2355 5.68181 17.2356 5.84616 17.3999L5.98757 17.2584ZM5.10937 17.2584L4.48052 17.8873L4.62194 18.0287L5.25079 17.3999L5.10937 17.2584ZM4.62194 17.8873L3.9931 17.2584L3.85168 17.3999L4.48052 18.0287L4.62194 17.8873ZM3.99309 17.2584C3.75062 17.016 3.35745 17.016 3.11491 17.2584L3.25629 17.3999C3.42075 17.2355 3.68733 17.2356 3.85168 17.3999L3.99309 17.2584ZM3.11489 17.2584C2.87242 17.5009 2.87244 17.8941 3.11488 18.1366L3.25633 17.9952C3.09194 17.8308 3.09196 17.5642 3.25631 17.3999L3.11489 17.2584ZM3.11489 18.1367L3.74378 18.7655L3.8852 18.6241L3.25631 17.9952L3.11489 18.1367ZM3.74378 18.6241L3.11493 19.2529L3.25635 19.3944L3.8852 18.7655L3.74378 18.6241ZM3.11493 19.2529C2.87247 19.4954 2.87247 19.8886 3.11493 20.1311L3.25635 19.9896C3.09199 19.8253 3.09199 19.5587 3.25635 19.3944L3.11493 19.2529ZM3.11495 20.1311C3.23619 20.2523 3.39523 20.3129 3.55401 20.3129V20.1129C3.44613 20.1129 3.3386 20.0718 3.25634 19.9896L3.11495 20.1311ZM3.55401 20.3129C3.71274 20.3129 3.87188 20.2523 3.9931 20.1311L3.85168 19.9896C3.76948 20.0718 3.66187 20.1129 3.55401 20.1129V20.3129ZM3.9931 20.1311L4.62194 19.5022L4.48052 19.3608L3.85168 19.9896L3.9931 20.1311ZM4.48052 19.5022L5.10937 20.1311L5.25079 19.9896L4.62194 19.3608L4.48052 19.5022ZM5.10939 20.1311C5.23063 20.2523 5.38967 20.3129 5.54845 20.3129V20.1129C5.44057 20.1129 5.33304 20.0718 5.25078 19.9896L5.10939 20.1311ZM5.54845 20.3129C5.70722 20.3129 5.86632 20.2523 5.98753 20.1311L5.84611 19.9896C5.76391 20.0718 5.65635 20.1129 5.54845 20.1129V20.3129ZM5.98753 20.1311C6.23 19.8886 6.23 19.4954 5.98753 19.2529L5.84611 19.3944C6.01047 19.5587 6.01047 19.8253 5.84611 19.9896L5.98753 20.1311ZM5.98754 19.2529L5.35873 18.6241L5.21731 18.7655L5.84611 19.3944L5.98754 19.2529ZM12.0483 17.2585C11.8057 17.0161 11.4127 17.0161 11.1701 17.2585L11.3115 17.3999C11.476 17.2356 11.7425 17.2356 11.9069 17.3999L12.0483 17.2585ZM11.1701 17.2585L9.17566 19.2529L9.31708 19.3944L11.3115 17.3999L11.1701 17.2585ZM9.17565 19.2529C8.93322 19.4954 8.93325 19.8886 9.17568 20.1311L9.31713 19.9897C9.15274 19.8253 9.15277 19.5587 9.31708 19.3943L9.17565 19.2529ZM9.17571 20.1312C9.29695 20.2523 9.456 20.313 9.61478 20.313V20.113C9.5069 20.113 9.39936 20.0719 9.31711 19.9897L9.17571 20.1312ZM9.61478 20.313C9.77357 20.313 9.93266 20.2523 10.0538 20.1312L9.91246 19.9897C9.83024 20.0719 9.72266 20.113 9.61478 20.113V20.313ZM10.0539 20.1311L12.0483 18.1367L11.9069 17.9953L9.91244 19.9897L10.0539 20.1311ZM12.0483 18.1367C12.2908 17.8942 12.2908 17.501 12.0483 17.2585L11.9069 17.3999C12.0712 17.5643 12.0712 17.8309 11.9069 17.9953L12.0483 18.1367ZM9.95906 17.6977C9.95906 17.8879 9.80488 18.0421 9.61468 18.0421V18.2421C9.91533 18.2421 10.1591 17.9984 10.1591 17.6977H9.95906ZM9.61468 18.0421C9.42448 18.0421 9.2703 17.8879 9.2703 17.6977H9.0703C9.0703 17.9984 9.31402 18.2421 9.61468 18.2421V18.0421ZM9.2703 17.6977C9.2703 17.5075 9.42448 17.3533 9.61468 17.3533V17.1533C9.31402 17.1533 9.0703 17.397 9.0703 17.6977H9.2703ZM9.61468 17.3533C9.80488 17.3533 9.95906 17.5075 9.95906 17.6977H10.1591C10.1591 17.397 9.91533 17.1533 9.61468 17.1533V17.3533ZM11.9537 19.6919C11.9537 19.882 11.7996 20.0362 11.6094 20.0362V20.2362C11.91 20.2362 12.1537 19.9925 12.1537 19.6919H11.9537ZM11.6094 20.0362C11.4193 20.0362 11.2651 19.882 11.2651 19.6919H11.0651C11.0651 19.9925 11.3088 20.2362 11.6094 20.2362V20.0362ZM11.2651 19.6919C11.2651 19.5017 11.4193 19.3476 11.6094 19.3476V19.1476C11.3088 19.1476 11.0651 19.3913 11.0651 19.6919H11.2651ZM11.6094 19.3476C11.7996 19.3476 11.9537 19.5017 11.9537 19.6919H12.1537C12.1537 19.3913 11.91 19.1476 11.6094 19.1476V19.3476ZM17.9892 13.3791H15.3264V13.5791H17.9892V13.3791ZM15.3264 13.3791C14.9835 13.3791 14.7054 13.6571 14.7054 14.0001H14.9054C14.9054 13.7676 15.0939 13.5791 15.3264 13.5791V13.3791ZM14.7054 14.0001C14.7054 14.343 14.9835 14.621 15.3264 14.621V14.421C15.094 14.421 14.9054 14.2325 14.9054 14.0001H14.7054ZM15.3264 14.621H17.9892V14.421H15.3264V14.621ZM17.9892 14.621C18.3321 14.621 18.6102 14.343 18.6102 14.0001H18.4102C18.4102 14.2325 18.2217 14.421 17.9892 14.421V14.621ZM18.6102 14.0001C18.6102 13.6571 18.3322 13.3791 17.9892 13.3791V13.5791C18.2217 13.5791 18.4102 13.7676 18.4102 14.0001H18.6102ZM17.9892 15.1974H15.3264V15.3974H17.9892V15.1974ZM15.3264 15.1974C14.9835 15.1974 14.7054 15.4754 14.7054 15.8183H14.9054C14.9054 15.5859 15.094 15.3974 15.3264 15.3974V15.1974ZM14.7054 15.8183C14.7054 16.1612 14.9835 16.4393 15.3264 16.4393V16.2393C15.094 16.2393 14.9054 16.0508 14.9054 15.8183H14.7054ZM15.3264 16.4393H17.9892V16.2393H15.3264V16.4393ZM17.9892 16.4393C18.3321 16.4393 18.6102 16.1612 18.6102 15.8183H18.4102C18.4102 16.0508 18.2217 16.2393 17.9892 16.2393V16.4393ZM18.6102 15.8183C18.6102 15.4754 18.3322 15.1974 17.9892 15.1974V15.3974C18.2217 15.3974 18.4102 15.5859 18.4102 15.8183H18.6102Z" fill="#BFC0C4"/>
</svg>
