<svg width="22" height="22" viewBox="0 0 22 22" fill="none" xmlns="http://www.w3.org/2000/svg">
<circle cx="11" cy="11" r="10.15" stroke="#BFC0C4" stroke-width="1.7"/>
<path d="M8.15615 16.7621C8.05477 16.7621 7.96859 16.7292 7.89763 16.6633C7.8368 16.5865 7.80638 16.4932 7.80638 16.3835V14.2762H6.63541C6.53403 14.2762 6.44786 14.2433 6.37689 14.1775C6.31606 14.1006 6.28564 14.0074 6.28564 13.8976V13.519C6.28564 13.4092 6.31606 13.3214 6.37689 13.2556C6.44786 13.1787 6.53403 13.1403 6.63541 13.1403H7.80638V12.202H6.63541C6.53403 12.202 6.44786 12.169 6.37689 12.1032C6.31606 12.0264 6.28564 11.9331 6.28564 11.8233V11.2636C6.28564 11.1538 6.31606 11.066 6.37689 11.0002C6.44786 10.9234 6.53403 10.8849 6.63541 10.8849H7.80638V5.63338C7.80638 5.51266 7.8368 5.41937 7.89763 5.35352C7.96859 5.27669 8.05477 5.23828 8.15615 5.23828H12.0188C13.1644 5.23828 14.0668 5.5401 14.7257 6.14372C15.3847 6.74735 15.7142 7.61987 15.7142 8.76127C15.7142 9.88073 15.3847 10.7368 14.7257 11.3294C14.0769 11.9111 13.1746 12.202 12.0188 12.202H9.32712V13.1403H12.2621C12.3635 13.1403 12.4446 13.1787 12.5055 13.2556C12.5764 13.3214 12.6119 13.4092 12.6119 13.519V13.8976C12.6119 14.0074 12.5764 14.1006 12.5055 14.1775C12.4446 14.2433 12.3635 14.2762 12.2621 14.2762H9.32712V16.3835C9.32712 16.4932 9.29164 16.5865 9.22067 16.6633C9.1497 16.7292 9.06352 16.7621 8.96214 16.7621H8.15615ZM11.9428 10.8849C12.6829 10.8849 13.2405 10.7039 13.6156 10.3417C14.0009 9.97951 14.1935 9.4527 14.1935 8.76127C14.1935 8.06985 14.0059 7.54304 13.6308 7.18087C13.2557 6.80771 12.693 6.62114 11.9428 6.62114H9.31191V10.8849H11.9428Z" fill="#BFC0C4"/>
</svg>
