<svg width="22" height="22" viewBox="0 0 22 22" fill="none" xmlns="http://www.w3.org/2000/svg">
<path fill-rule="evenodd" clip-rule="evenodd" d="M0 1C0 0.447716 0.447715 0 1 0H9C9.55228 0 10 0.447715 10 1V9C10 9.55228 9.55229 10 9 10H1C0.447716 10 0 9.55229 0 9V1ZM1.5 8.5V1.5H8.5V8.5H1.5Z" fill="#BFC0C4"/>
<path fill-rule="evenodd" clip-rule="evenodd" d="M12 1C12 0.447716 12.4477 0 13 0H21C21.5523 0 22 0.447715 22 1V9C22 9.55228 21.5523 10 21 10H13C12.4477 10 12 9.55229 12 9V1ZM13.5 8.5V1.5H20.5V8.5H13.5Z" fill="#BFC0C4"/>
<path fill-rule="evenodd" clip-rule="evenodd" d="M1 12C0.447715 12 0 12.4477 0 13V21C0 21.5523 0.447716 22 1 22H9C9.55229 22 10 21.5523 10 21V13C10 12.4477 9.55228 12 9 12H1ZM1.5 13.5V20.5H8.5V13.5H1.5Z" fill="#BFC0C4"/>
<path fill-rule="evenodd" clip-rule="evenodd" d="M12 13C12 12.4477 12.4477 12 13 12H21C21.5523 12 22 12.4477 22 13V21C22 21.5523 21.5523 22 21 22H13C12.4477 22 12 21.5523 12 21V13ZM13.5 20.5V13.5H20.5V20.5H13.5Z" fill="#BFC0C4"/>
</svg>
