<svg width="18" height="22" viewBox="0 0 18 22" fill="none" xmlns="http://www.w3.org/2000/svg">
<path d="M16.7688 20.8506C15.7696 18.7752 13.9712 17.1447 11.7912 16.3227V15.0102C12.863 14.9512 14.884 14.6787 16.0694 13.4661C16.2192 13.3117 16.2783 13.0891 16.2238 12.8802C16.1693 12.6713 16.0058 12.5078 15.7969 12.4488C15.7787 12.4442 14.2164 11.9083 14.5298 8.71105C14.666 7.34859 14.6433 6.12236 14.4662 5.06872C14.2618 3.86067 13.8531 2.91148 13.2581 2.24841C12.6132 1.53539 11.7731 1.17206 10.7603 1.17206C10.7194 1.17206 10.6785 1.17206 10.6422 1.17206C10.2562 0.835988 9.41144 0.268293 8.1171 0.268293C7.51307 0.268293 6.88179 0.390915 6.23689 0.640701L6.20964 0.649784C5.70099 0.840529 4.75634 1.19931 3.95703 2.26204C3.02601 3.49734 2.58093 5.32759 2.63543 7.69829C2.68993 10.0735 2.29936 11.2362 1.96328 11.7948C1.68625 12.2535 1.42284 12.3443 1.35471 12.3625C1.12309 12.3443 0.936889 12.4624 0.818808 12.6622C0.696186 12.8666 0.741602 13.1255 0.877848 13.3253C0.932347 13.407 1.25026 13.8339 2.01778 14.2472C2.8943 14.7195 3.98882 14.9875 5.28316 15.042V16.2909C3.13046 17.1084 1.34109 18.7524 0.328319 20.8552C0.237488 21.0459 0.251113 21.2685 0.36011 21.4456C0.473649 21.6227 0.668937 21.7317 0.877848 21.7317H16.2192C16.4282 21.7317 16.628 21.6227 16.737 21.4456C16.846 21.2639 16.8596 21.0414 16.7688 20.8506ZM1.92241 20.5009C2.90338 18.9931 4.37485 17.8532 6.07793 17.3037C6.33226 17.2219 6.50484 16.9858 6.50484 16.7224V14.438C6.50484 14.2745 6.44126 14.1155 6.32318 14.002C6.2051 13.8884 6.05069 13.8203 5.88719 13.8249C4.12052 13.843 3.05326 13.4388 2.47194 13.0937C2.51281 13.0528 2.55823 13.0119 2.60364 12.9665C3.49833 12.0355 3.92069 10.2552 3.86165 7.67104C3.74357 2.89786 5.77365 2.12579 6.63655 1.7988L6.6638 1.78972C7.17245 1.59897 7.6584 1.49906 8.10801 1.49906C9.27974 1.49906 9.87922 2.14396 9.92918 2.203C10.0563 2.36195 10.2516 2.43916 10.456 2.42099C10.5559 2.41191 10.6558 2.40737 10.7512 2.40737C11.4097 2.40737 11.932 2.62536 12.3407 3.07952C13.2036 4.03325 13.5579 6.04516 13.3036 8.59752C13.0492 11.1726 13.8531 12.4624 14.5479 13.0891C13.6124 13.6069 12.2817 13.8021 11.278 13.8021C11.2235 13.8021 11.1917 13.8021 11.1872 13.8021C11.0237 13.7976 10.8602 13.8612 10.7421 13.9747C10.624 14.0883 10.5559 14.2472 10.5559 14.4153V16.7632C10.5559 17.0312 10.7285 17.2628 10.9828 17.3446C12.7086 17.9032 14.1846 19.0295 15.1611 20.51H1.92241V20.5009Z" fill="#BFC0C4"/>
<path fill-rule="evenodd" clip-rule="evenodd" d="M6.14603 0.388181C6.81634 0.129313 7.47836 0 8.1171 0C9.4149 0 10.293 0.537006 10.7403 0.903771H10.7593C11.8437 0.903771 12.7586 1.29615 13.4571 2.06845C14.0961 2.78062 14.5209 3.78337 14.7307 5.02397C14.9127 6.10631 14.9348 7.35734 14.7968 8.73743C14.6445 10.291 14.9512 11.1585 15.2627 11.6291C15.5279 12.0295 15.8086 12.1615 15.8595 12.1854C15.8692 12.19 15.8706 12.1906 15.862 12.1885L15.8699 12.1905C16.1679 12.2747 16.4042 12.509 16.4834 12.8125C16.5616 13.1124 16.4769 13.4314 16.2619 13.6529C15.6245 14.305 14.7734 14.6945 13.9621 14.9285C13.2666 15.1291 12.5848 15.2201 12.0595 15.2612V16.1391C14.2244 17.0048 16.0075 18.6508 17.0105 20.7343L17.011 20.7353C17.1418 21.0099 17.1207 21.3275 16.967 21.5836L16.9655 21.5862C16.8063 21.8448 16.5187 22 16.2192 22H0.877848C0.575234 22 0.295864 21.8425 0.13424 21.5904L0.131577 21.5862C-0.0246279 21.3324 -0.0442362 21.0135 0.0860878 20.7398L0.0866017 20.7388C1.10168 18.6312 2.87472 16.971 5.01487 16.1078V15.2963C3.80069 15.2175 2.75141 14.9473 1.89051 14.4834C1.08447 14.0494 0.734157 13.593 0.65541 13.4753C0.482181 13.2205 0.395589 12.8469 0.588285 12.5249C0.739247 12.27 0.992562 12.0893 1.31549 12.0923C1.33872 12.0822 1.37434 12.0634 1.41897 12.0297C1.49777 11.9702 1.61072 11.8595 1.73358 11.6561C2.03311 11.1581 2.4211 10.053 2.36721 7.70444C2.31203 5.304 2.7605 3.40401 3.74261 2.10077M6.14603 0.388181L6.1248 0.395259L6.11544 0.398574C5.59513 0.593687 4.58962 0.974659 3.74261 2.10077M8.1171 0.536585C7.5497 0.536585 6.95122 0.651739 6.33379 0.890883L6.32183 0.895516L6.2992 0.902737C5.80135 1.08947 4.92072 1.42711 4.17144 2.42331C3.29163 3.59067 2.84984 5.3513 2.90365 7.69212C2.95875 10.0936 2.56577 11.3138 2.19317 11.9331C1.8808 12.4503 1.56009 12.5854 1.42384 12.6217L1.37949 12.6335L1.33373 12.6299C1.2225 12.6212 1.12579 12.6701 1.04979 12.7987L1.04887 12.8002C0.997205 12.8863 1.0009 13.0295 1.09952 13.1741L1.10109 13.1764C1.13293 13.2242 1.41876 13.62 2.14498 14.011C2.97695 14.4593 4.02934 14.7207 5.29445 14.7739L5.55145 14.7848V16.476L5.37841 16.5417C3.29073 17.3345 1.55362 18.9299 0.570339 20.971C0.519589 21.0779 0.526794 21.2029 0.587319 21.3029C0.652943 21.4037 0.763418 21.4634 0.877848 21.4634H16.2192C16.337 21.4634 16.4486 21.4012 16.5077 21.3063C16.5712 21.1995 16.5772 21.0729 16.5268 20.9665C15.5581 18.9547 13.8132 17.3719 11.6966 16.5737L11.5229 16.5083V14.7563L11.7765 14.7423C12.3008 14.7134 13.0522 14.6324 13.8134 14.4129C14.5767 14.1928 15.3293 13.8392 15.8772 13.2788C15.9616 13.1916 15.9949 13.0657 15.9642 12.9479C15.9344 12.8336 15.8437 12.7408 15.7239 12.7069C15.6313 12.6797 15.1948 12.4985 14.8153 11.9253C14.4195 11.3275 14.1017 10.3285 14.2628 8.68488C14.3972 7.34016 14.3739 6.13806 14.2016 5.1132C14.0028 3.93802 13.6094 3.0418 13.0587 2.42789C12.4675 1.77446 11.7012 1.44036 10.7603 1.44036H10.5418L10.466 1.37442C10.1123 1.06648 9.32771 0.536585 8.1171 0.536585ZM8.10801 1.76735C7.69753 1.76735 7.24382 1.85874 6.758 2.04093L6.7487 2.04441L6.72654 2.0516C6.3049 2.21141 5.64862 2.4643 5.09863 3.22482C4.54372 3.99215 4.07171 5.31378 4.12986 7.6644C4.1867 10.152 3.80532 11.9833 2.9136 13.024C3.49784 13.2989 4.44439 13.5711 5.88231 13.5566C6.12597 13.5506 6.34689 13.6526 6.50914 13.8086C6.68301 13.9758 6.77313 14.206 6.77313 14.438V16.7224C6.77313 17.1035 6.52424 17.4419 6.16032 17.559C4.67325 18.0388 3.36758 18.9859 2.43014 20.2417H14.6418C13.7085 19.0174 12.4026 18.0861 10.9002 17.5998C10.5375 17.483 10.2876 17.15 10.2876 16.7632V14.4153C10.2876 14.1747 10.3851 13.9458 10.5562 13.7813C10.7248 13.6192 10.9561 13.5285 11.1906 13.5339L11.1946 13.534L11.1872 13.8021L11.1872 13.5339H11.1906H11.2771C12.1445 13.5339 13.2446 13.3833 14.0952 13.0128C14.1858 13.1149 14.2775 13.2064 14.3683 13.2883L14.5479 13.0891L14.418 12.8544C14.3155 12.9111 14.2075 12.9639 14.0952 13.0128C13.4212 12.2528 12.806 10.9055 13.0366 8.57115C13.162 7.31257 13.1362 6.19663 12.9768 5.28526C12.8166 4.36929 12.5257 3.68386 12.1418 3.25952C11.7891 2.86761 11.3417 2.67566 10.7512 2.67566C10.6642 2.67566 10.5723 2.67981 10.4803 2.68818C10.1946 2.71358 9.91044 2.60597 9.72318 2.37495L9.72435 2.37628L9.92918 2.203L9.71968 2.3706L9.72318 2.37495C9.72318 2.37495 9.71999 2.37139 9.71705 2.36823C9.71206 2.36287 9.70493 2.35544 9.69565 2.34623C9.67709 2.32781 9.65033 2.30269 9.61535 2.27319C9.54535 2.21416 9.44318 2.13821 9.30866 2.06325C9.04074 1.91396 8.64248 1.76735 8.10801 1.76735ZM2.41206 12.7786C3.22519 11.9306 3.65219 10.2503 3.59344 7.67744C3.53354 5.25502 4.01752 3.80409 4.66383 2.91038C5.31227 2.01372 6.09855 1.71576 6.54024 1.54838L6.55164 1.54407L6.57429 1.53674C7.10414 1.33856 7.62071 1.23076 8.10801 1.23076C9.38551 1.23076 10.0534 1.93448 10.134 2.0297L10.1388 2.03533C10.2059 2.11922 10.311 2.16453 10.4322 2.15375C10.54 2.14396 10.6475 2.13908 10.7512 2.13908C11.4776 2.13908 12.0752 2.38356 12.5399 2.89978C13.0188 3.42917 13.3364 4.22645 13.5054 5.19281C13.6752 6.16385 13.6994 7.3302 13.5706 8.62389C13.3234 11.1259 14.1044 12.3277 14.7276 12.8899L15.0069 13.1418L14.6779 13.3239C13.6859 13.8728 12.3034 14.0704 11.278 14.0704H11.1797C11.0886 14.0679 10.9946 14.1041 10.9281 14.1681C10.863 14.2307 10.8242 14.3197 10.8242 14.4153V16.7632C10.8242 16.9122 10.9192 17.0423 11.0649 17.0891C12.8483 17.6664 14.3748 18.8306 15.385 20.3623L15.6594 20.7783H1.65411V20.4214L1.69752 20.3546C2.71133 18.7964 4.23256 17.6172 5.99555 17.0484C6.14013 17.0019 6.23655 16.868 6.23655 16.7224V14.438C6.23655 14.3429 6.19951 14.2553 6.13722 14.1954C6.06388 14.1248 5.97696 14.0908 5.89464 14.093L5.88995 14.0932C4.07974 14.1118 2.96311 13.6973 2.33496 13.3244L2.03809 13.1481L2.28222 12.9039C2.30467 12.8815 2.32793 12.8594 2.34876 12.8397L2.35143 12.8371C2.3731 12.8166 2.3928 12.7979 2.41206 12.7786Z" fill="#BFC0C4"/>
</svg>
