<svg width="24" height="24" viewBox="0 0 24 24" fill="none" xmlns="http://www.w3.org/2000/svg">
<path fill-rule="evenodd" clip-rule="evenodd" d="M2 1C1.44772 1 1 1.44772 1 2V10C1 10.5523 1.44772 11 2 11H10C10.5523 11 11 10.5523 11 10V6.75H19C19.1381 6.75 19.25 6.86193 19.25 7V11.7602L18.2803 10.8301C17.9874 10.5315 17.5126 10.5315 17.2197 10.8301C16.9268 11.1286 16.9268 11.6126 17.2197 11.9112L19.25 14.1668V17C19.25 17.1381 19.1381 17.25 19 17.25H10.9441C10.5823 14.8444 8.50652 13 6 13C3.23858 13 1 15.2386 1 18C1 20.7614 3.23858 23 6 23C8.50652 23 10.5823 21.1556 10.9441 18.75H19C19.9665 18.75 20.75 17.9665 20.75 17V14.1668L22.7803 11.9112C23.0732 11.6126 23.0732 11.1286 22.7803 10.8301C22.4874 10.5315 22.0126 10.5315 21.7197 10.8301L20.75 11.8184V7C20.75 6.0335 19.9665 5.25 19 5.25H11V2C11 1.44772 10.5523 1 10 1H2ZM2.5 2.5V9.5H9.5V2.5H2.5ZM9.5 18C9.5 19.933 7.933 21.5 6 21.5C4.067 21.5 2.5 19.933 2.5 18C2.5 16.067 4.067 14.5 6 14.5C7.933 14.5 9.5 16.067 9.5 18Z" fill="#BFC0C4" stroke="#BFC0C4" stroke-width="0.3"/>
</svg>
