<svg width="24" height="24" viewBox="0 0 24 24" fill="none" xmlns="http://www.w3.org/2000/svg">
<path fill-rule="evenodd" clip-rule="evenodd" d="M5.09631 0.850098C4.65765 0.850098 4.30177 1.20576 4.30177 1.64463C4.30177 1.9103 4.30578 2.17481 4.3131 2.43794H1.64451C1.20566 2.43794 0.849976 2.79363 0.849976 3.23248C0.849976 6.14498 1.61093 8.89972 3.00039 10.9879C4.36022 13.0318 6.18014 14.2309 8.16453 14.3684C8.58094 14.8148 9.02066 15.1861 9.47954 15.4777V18.1092H8.54827C7.15822 18.1092 6.02775 19.2399 6.02775 20.6297V21.5678C5.63812 21.6188 5.33739 21.9522 5.33739 22.3556C5.33739 22.7944 5.69308 23.1501 6.13193 23.1501H17.8682C18.307 23.1501 18.6627 22.7944 18.6627 22.3556C18.6627 21.9522 18.362 21.6188 17.9724 21.5678V20.6297C17.9724 19.2399 16.8419 18.1092 15.4519 18.1092H14.5206V15.4777C14.9795 15.1863 15.4193 14.8148 15.8358 14.3684C17.82 14.2309 19.6399 13.0318 20.9999 10.9879C22.3894 8.89972 23.1501 6.14497 23.1501 3.23248C23.1501 2.79363 22.7945 2.43794 22.3556 2.43794H19.687C19.6943 2.17481 19.6983 1.9103 19.6983 1.64463C19.6983 1.20576 19.3425 0.850098 18.9038 0.850098H5.09631ZM7.82909 11.0526C6.6748 8.74416 5.99692 5.71118 5.90236 2.43917H18.0978C18.003 5.71119 17.3251 8.74433 16.171 11.0526C15.7823 11.8301 15.3583 12.4882 14.9102 13.0215C14.877 13.0539 14.8465 13.0893 14.8194 13.1273C14.3698 13.642 13.8984 14.0294 13.4165 14.2855C13.3841 14.2992 13.3537 14.315 13.3254 14.3316C12.89 14.5474 12.4462 14.6574 12.0001 14.6574C11.5542 14.6574 11.1106 14.5474 10.6754 14.3321C10.6463 14.3148 10.6158 14.2991 10.5836 14.2853C10.1016 14.0293 9.63021 13.6417 9.18038 13.127C9.15341 13.0893 9.12337 13.0541 9.09024 13.0216C8.64194 12.4883 8.2179 11.8302 7.82909 11.0526ZM4.32336 10.1077C3.23517 8.4724 2.58197 6.33771 2.45994 4.02701H4.40146C4.64558 6.93056 5.3351 9.61803 6.40782 11.7633C6.50855 11.9648 6.61201 12.1599 6.71798 12.3486C5.83888 11.9104 5.01947 11.154 4.32336 10.1077ZM17.5923 11.7633C18.665 9.61802 19.3544 6.93055 19.5987 4.02701H21.5402C21.4181 6.33771 20.7649 8.47241 19.6767 10.1077C18.9806 11.154 18.1612 11.9104 17.2821 12.3486C17.3881 12.1599 17.4916 11.9648 17.5923 11.7633ZM11.0686 18.1092V16.1451C11.3745 16.2119 11.6854 16.2465 12.0001 16.2465C12.3148 16.2465 12.6256 16.2119 12.9315 16.1451V18.1092H11.0686ZM7.61682 20.6297C7.61682 20.1164 8.03476 19.6983 8.54827 19.6983H15.4519C15.9654 19.6983 16.3833 20.1164 16.3833 20.6297V21.5612H7.61682V20.6297Z" fill="#BFC0C4"/>
</svg>
