<svg width="18" height="23" viewBox="0 0 18 23" fill="none" xmlns="http://www.w3.org/2000/svg">
<path d="M17.127 5.96864H3.72762C2.48602 5.96864 1.47098 4.95814 1.47098 3.712C1.47098 2.47039 2.48149 1.45536 3.72762 1.45536H17.1315C17.4669 1.45536 17.7342 1.18347 17.7342 0.852678C17.7342 0.517353 17.4623 0.25 17.1315 0.25H3.72762C1.8199 0.25 0.265625 1.80427 0.265625 3.712V18.788C0.265625 20.6957 1.8199 22.25 3.72762 22.25H17.1315C17.4669 22.25 17.7342 21.9781 17.7342 21.6473V6.57132C17.7297 6.24053 17.4623 5.96864 17.127 5.96864ZM16.5243 21.0446H3.72762C2.48602 21.0446 1.47098 20.0341 1.47098 18.788V6.34022C2.07819 6.86133 2.86666 7.17853 3.72762 7.17853H16.5243V21.0446Z" fill="#BFC0C4" stroke="#BFC0C4" stroke-width="0.5"/>
<path d="M3.91811 3.16406C3.58278 3.16406 3.31543 3.43595 3.31543 3.76674C3.31543 4.09753 3.58731 4.36942 3.91811 4.36942H15.2376C15.5729 4.36942 15.8403 4.09753 15.8403 3.76674C15.8403 3.43595 15.5684 3.16406 15.2376 3.16406H3.91811Z" fill="#BFC0C4" stroke="#BFC0C4" stroke-width="0.5"/>
<path d="M6.03853 18.4073C6.1065 18.43 6.17447 18.4436 6.24244 18.4436C6.49167 18.4436 6.72277 18.2895 6.80887 18.0448L7.54296 15.9921H10.3706C10.3932 15.9921 10.4204 15.9921 10.4431 15.9875L11.1772 18.0448C11.2632 18.2895 11.4989 18.4436 11.7436 18.4436C11.8115 18.4436 11.8795 18.43 11.9475 18.4073C12.2602 18.294 12.4233 17.9496 12.31 17.637L9.56397 9.9381C9.55944 9.91998 9.55037 9.90185 9.54131 9.88372C9.53678 9.87466 9.53225 9.8656 9.52772 9.85654C9.52319 9.84747 9.51866 9.83841 9.51412 9.82935C9.50959 9.82028 9.50053 9.81122 9.496 9.79763C9.49147 9.7931 9.48693 9.78403 9.4824 9.7795C9.47787 9.77044 9.46881 9.76138 9.45975 9.75231C9.45521 9.74778 9.45068 9.73872 9.44162 9.73419C9.43709 9.72512 9.42803 9.72059 9.41896 9.71153C9.4099 9.70247 9.40537 9.69794 9.39631 9.68887C9.39178 9.68434 9.38271 9.67981 9.37818 9.67075C9.36912 9.66168 9.36006 9.65715 9.35099 9.64809C9.34646 9.64356 9.3374 9.63903 9.33287 9.6345C9.3238 9.62996 9.31474 9.6209 9.30568 9.61637C9.29662 9.61184 9.28755 9.60731 9.27849 9.60278C9.26943 9.59824 9.26036 9.59371 9.2513 9.58918C9.23318 9.58012 9.21505 9.57106 9.19692 9.56652H9.19239C9.17427 9.56199 9.15614 9.55746 9.13802 9.55293C9.12895 9.55293 9.12442 9.5484 9.11536 9.5484C9.10177 9.54387 9.0927 9.54387 9.07911 9.53934C9.07005 9.53934 9.06098 9.53934 9.05192 9.5348C9.04286 9.5348 9.02926 9.53027 9.0202 9.53027C9.01114 9.53027 9.00207 9.53027 8.99301 9.53027C8.98395 9.53027 8.97489 9.53027 8.96129 9.53027C8.95223 9.53027 8.93863 9.53027 8.92957 9.5348C8.92051 9.5348 8.91145 9.5348 8.90238 9.53934C8.88879 9.53934 8.87973 9.54387 8.86613 9.5484C8.85707 9.5484 8.85254 9.55293 8.84347 9.55293C8.82535 9.55746 8.80722 9.56199 8.79363 9.56652H8.7891C8.77097 9.57106 8.75285 9.58012 8.73472 9.58918C8.72566 9.59371 8.7166 9.59824 8.70753 9.60278C8.69847 9.60731 8.68941 9.61184 8.68034 9.61637C8.67128 9.6209 8.66222 9.62996 8.64862 9.6345C8.64409 9.63903 8.63503 9.64356 8.6305 9.64809C8.62144 9.65715 8.61237 9.66168 8.60331 9.67075C8.59878 9.67528 8.58972 9.67981 8.58518 9.68887C8.57612 9.69794 8.57159 9.70247 8.56253 9.71153C8.55346 9.72059 8.54893 9.72512 8.53987 9.73419C8.53534 9.73872 8.53081 9.74778 8.52174 9.75231C8.51268 9.76138 8.50815 9.77044 8.49909 9.7795C8.49456 9.78403 8.49002 9.7931 8.48549 9.79763C8.48096 9.80669 8.4719 9.81575 8.46737 9.82482C8.46284 9.83388 8.4583 9.84294 8.45377 9.852C8.44924 9.86107 8.44471 9.87013 8.44018 9.87919C8.43112 9.89732 8.42205 9.91544 8.41752 9.93357L5.66242 17.6324C5.56273 17.9496 5.72586 18.294 6.03853 18.4073ZM8.99754 11.9319L10.0171 14.7867H7.97344L8.99754 11.9319Z" fill="#BFC0C4" stroke="#BFC0C4" stroke-width="0.5"/>
</svg>
