<svg width="23" height="23" viewBox="0 0 23 23" fill="none" xmlns="http://www.w3.org/2000/svg">
<path d="M20.9252 9.29559L19.4512 9.04554C19.2977 8.54982 19.1003 8.07165 18.859 7.61542L19.7276 6.40025C20.0961 5.8826 20.0391 5.17631 19.5872 4.72885L18.2799 3.42156C18.0343 3.17589 17.7096 3.0399 17.3631 3.0399C17.0911 3.0399 16.8323 3.12325 16.6129 3.28118L15.3934 4.14978C14.9196 3.89973 14.4239 3.69355 13.9106 3.54L13.6649 2.08356C13.5596 1.45624 13.0201 1 12.384 1H10.5371C9.90098 1 9.3614 1.45624 9.25611 2.08356L9.00167 3.5751C8.51034 3.72864 8.03217 3.93044 7.57594 4.1761L6.36954 3.3075C6.1502 3.14957 5.88699 3.06622 5.615 3.06622C5.26844 3.06622 4.93942 3.20221 4.69814 3.44788L3.38646 4.75517C2.939 5.20263 2.87759 5.90892 3.24608 6.42657L4.12346 7.65929C3.88218 8.11991 3.68916 8.59808 3.54 9.0938L2.08356 9.33946C1.45624 9.44475 1 9.98433 1 10.6204V12.4673C1 13.1034 1.45624 13.643 2.08356 13.7483L3.5751 14.0027C3.72864 14.494 3.93044 14.9722 4.1761 15.4285L3.31189 16.6305C2.94339 17.1481 3.00042 17.8544 3.45227 18.3019L4.75956 19.6091C5.00522 19.8548 5.32985 19.9908 5.67642 19.9908C5.9484 19.9908 6.20723 19.9075 6.42657 19.7495L7.65929 18.8722C8.10236 19.1047 8.56737 19.2933 9.04554 19.4424L9.29121 20.9164C9.39649 21.5438 9.93608 22 10.5722 22H12.4234C13.0595 22 13.5991 21.5438 13.7044 20.9164L13.9545 19.4424C14.4502 19.2889 14.9283 19.0915 15.3846 18.8502L16.5998 19.7188C16.8191 19.8767 17.0823 19.9601 17.3543 19.9601C17.7009 19.9601 18.0255 19.8241 18.2712 19.5784L19.5784 18.2712C20.0259 17.8237 20.0873 17.1174 19.7188 16.5998L18.8502 15.3802C19.0915 14.9196 19.2933 14.4414 19.4425 13.9501L20.9164 13.7044C21.5438 13.5991 22 13.0595 22 12.4234V10.5766C22.0088 9.94046 21.5525 9.40088 20.9252 9.29559ZM20.8243 12.4234C20.8243 12.4805 20.7848 12.5287 20.7278 12.5375L18.8853 12.8446C18.6528 12.8841 18.4686 13.0552 18.4115 13.2789C18.2448 13.9238 17.9904 14.5423 17.6482 15.117C17.5298 15.3188 17.5385 15.5688 17.6745 15.7619L18.7581 17.2885C18.7888 17.3324 18.7844 17.3982 18.7449 17.4376L17.4376 18.7449C17.4069 18.7756 17.3762 18.78 17.3543 18.78C17.328 18.78 17.306 18.7713 17.2885 18.7581L15.7662 17.6745C15.5776 17.5385 15.3232 17.5298 15.1214 17.6482C14.5467 17.9904 13.9281 18.2448 13.2833 18.4115C13.0552 18.4686 12.8841 18.6572 12.849 18.8853L12.5375 20.7278C12.5287 20.7848 12.4805 20.8243 12.4234 20.8243H10.5766C10.5195 20.8243 10.4713 20.7848 10.4625 20.7278L10.1554 18.8853C10.1159 18.6528 9.94485 18.4686 9.72112 18.4115C9.0938 18.2492 8.48841 17.9992 7.9225 17.6745C7.83038 17.6219 7.72509 17.5956 7.62419 17.5956C7.50575 17.5956 7.38291 17.6307 7.28201 17.7052L5.74661 18.7976C5.72467 18.8107 5.70274 18.8195 5.6808 18.8195C5.66326 18.8195 5.62816 18.8151 5.59745 18.7844L4.29016 17.4771C4.25068 17.4376 4.24629 17.3762 4.277 17.328L5.35617 15.8145C5.49217 15.6215 5.50094 15.367 5.38249 15.1652C5.04032 14.5949 4.77711 13.9764 4.6104 13.3315C4.54899 13.1078 4.36474 12.9367 4.13662 12.8972L2.28097 12.5814C2.22394 12.5726 2.18446 12.5243 2.18446 12.4673V10.6204C2.18446 10.5634 2.22394 10.5151 2.28097 10.5064L4.1103 10.1993C4.3428 10.1598 4.53144 9.98872 4.58847 9.7606C4.75078 9.11573 5.00084 8.49279 5.33863 7.91811C5.45707 7.71632 5.44391 7.46626 5.30792 7.27763L4.21558 5.74222C4.18488 5.69835 4.18926 5.63255 4.22874 5.59306L5.53604 4.28577C5.56674 4.25507 5.59745 4.25068 5.61939 4.25068C5.64571 4.25068 5.66764 4.25945 5.68519 4.27261L7.19866 5.35179C7.39169 5.48778 7.64613 5.49655 7.84792 5.37811C8.41822 5.03593 9.03677 4.77272 9.68164 4.60602C9.90537 4.5446 10.0765 4.36035 10.1159 4.13223L10.4318 2.27658C10.4406 2.21955 10.4888 2.18007 10.5459 2.18007H12.3927C12.4498 2.18007 12.498 2.21955 12.5068 2.27658L12.8139 4.10591C12.8534 4.33842 13.0244 4.52705 13.2526 4.58408C13.915 4.75078 14.5467 5.00961 15.1345 5.35617C15.3363 5.47462 15.5864 5.46585 15.7794 5.32985L17.2929 4.24191C17.3148 4.22874 17.3367 4.21997 17.3587 4.21997C17.3762 4.21997 17.4113 4.22436 17.442 4.25507L18.7493 5.56236C18.7888 5.60184 18.7932 5.66325 18.7625 5.71151L17.6789 7.23376C17.5429 7.42239 17.5342 7.67683 17.6526 7.87863C17.9948 8.45331 18.2492 9.07186 18.4159 9.71673C18.4729 9.94485 18.6616 10.1159 18.8897 10.151L20.7322 10.4625C20.7892 10.4713 20.8287 10.5195 20.8287 10.5766V12.4234H20.8243Z" fill="#BFC0C4" stroke="#BFC0C4" stroke-width="0.5"/>
<path d="M11.5004 6.96509C8.99988 6.96509 6.96875 8.99621 6.96875 11.4967C6.96875 13.9973 8.99988 16.0284 11.5004 16.0284C14.0009 16.0284 16.032 13.9973 16.032 11.4967C16.032 8.99621 14.0009 6.96509 11.5004 6.96509ZM11.5004 14.8439C9.65352 14.8439 8.15321 13.3436 8.15321 11.4967C8.15321 9.64986 9.65352 8.14955 11.5004 8.14955C13.3473 8.14955 14.8476 9.64986 14.8476 11.4967C14.8476 13.3436 13.3473 14.8439 11.5004 14.8439Z" fill="#BFC0C4" stroke="#BFC0C4" stroke-width="0.5"/>
</svg>
