<svg width="23" height="23" viewBox="0 0 23 23" fill="none" xmlns="http://www.w3.org/2000/svg">
<path d="M22.2414 19.216V19.2157V14.2716C22.2414 13.8283 21.8849 13.4645 21.4398 13.4645C20.9949 13.4645 20.6383 13.828 20.6383 14.2714V19.2154C20.6373 20.0019 20.0067 20.6353 19.2333 20.6362H3.75804C2.98467 20.6353 2.35407 20.0019 2.3531 19.2155C2.3531 19.2155 2.3531 19.2154 2.3531 19.2154V4.70537C2.3531 4.70534 2.3531 4.70531 2.3531 4.70528C2.35407 3.91869 2.98459 3.28555 3.75794 3.28457C3.75797 3.28457 3.75801 3.28457 3.75804 3.28457L8.65489 3.28457C9.09984 3.28457 9.45643 2.92112 9.45643 2.47774C9.45643 2.03435 9.09984 1.6709 8.65489 1.6709L3.75774 1.6709L3.75745 1.6709C2.09501 1.6728 0.751876 3.03224 0.75 4.7048V4.70508L0.75 19.2157L0.75 19.216C0.751876 20.8885 2.09501 22.248 3.75746 22.2499H3.75774H19.2336H19.2339C20.8964 22.248 22.2395 20.8885 22.2414 19.216Z" fill="#BFC0C4" stroke="#BFC0C4" stroke-width="0.5"/>
<path d="M10.5809 9.91588L18.6342 1.78519L21.2314 4.40733L13.1782 12.538L10.5809 9.91588Z" fill="#BFC0C4"/>
<path d="M9.26691 13.8646L12.1371 13.062L10.0619 10.9669L9.26691 13.8646Z" fill="#BFC0C4"/>
<path d="M21.9495 0.407024C21.4107 -0.135675 20.5383 -0.135675 19.9995 0.407024L19.4145 0.997575L22.0118 3.61971L22.5967 3.02916C23.1345 2.48516 23.1345 1.60444 22.5967 1.06044L21.9495 0.407024Z" fill="#BFC0C4"/>
</svg>
