<svg width="22" height="22" viewBox="0 0 22 22" fill="none" xmlns="http://www.w3.org/2000/svg">
<circle cx="11" cy="11" r="10.15" stroke="#BFC0C4" stroke-width="1.7"/>
<path d="M11.5498 13.8877H10.082L9.96777 4.70312H11.6729L11.5498 13.8877ZM9.90625 16.6826C9.90625 16.4189 9.98535 16.1992 10.1436 16.0234C10.3076 15.8418 10.5479 15.751 10.8643 15.751C11.1807 15.751 11.4209 15.8418 11.585 16.0234C11.749 16.1992 11.8311 16.4189 11.8311 16.6826C11.8311 16.9463 11.749 17.166 11.585 17.3418C11.4209 17.5117 11.1807 17.5967 10.8643 17.5967C10.5479 17.5967 10.3076 17.5117 10.1436 17.3418C9.98535 17.166 9.90625 16.9463 9.90625 16.6826Z" fill="#BFC0C4"/>
</svg>
