<svg width="20" height="24" viewBox="0 0 20 24" fill="none" xmlns="http://www.w3.org/2000/svg">
<path d="M18.3743 6.71864H4.56732C3.28794 6.71864 2.24202 5.70814 2.24202 4.462C2.24202 3.22039 3.28327 2.20536 4.56732 2.20536H18.379C18.7245 2.20536 19 1.93347 19 1.60268C19 1.26735 18.7198 1 18.379 1H4.56732C2.60156 1 1 2.55427 1 4.462V19.538C1 21.4457 2.60156 23 4.56732 23H18.379C18.7245 23 19 22.7281 19 22.3973V7.32132C18.9953 6.99053 18.7198 6.71864 18.3743 6.71864ZM17.7533 21.7946H4.56732C3.28794 21.7946 2.24202 20.7841 2.24202 19.538V7.09022C2.8677 7.61133 3.68016 7.92853 4.56732 7.92853H17.7533V21.7946Z" fill="#BFC0C4" stroke="#BFC0C4" stroke-width="0.5"/>
<path d="M4.76359 3.91357C4.41806 3.91357 4.14258 4.18546 4.14258 4.51625C4.14258 4.84704 4.42273 5.11893 4.76359 5.11893H16.4274C16.7729 5.11893 17.0484 4.84704 17.0484 4.51625C17.0484 4.18546 16.7683 3.91357 16.4274 3.91357H4.76359Z" fill="#BFC0C4" stroke="#BFC0C4" stroke-width="0.5"/>
</svg>
