<svg width="24" height="16" viewBox="0 0 24 16" fill="none" xmlns="http://www.w3.org/2000/svg">
<path d="M21.4989 6.27718C20.5608 5.33902 19.2708 4.77612 17.8401 4.77612C17.6759 4.77612 17.5117 4.77612 17.3475 4.79957C16.855 3.72068 16.081 2.82942 15.1429 2.17271C14.064 1.42217 12.774 1 11.4136 1C9.79531 1 8.3177 1.58635 7.14499 2.57143C6.11301 3.46269 5.36247 4.65885 5.03412 6.0661C3.97868 6.18337 3.04051 6.65245 2.33689 7.35608C1.51599 8.17697 1 9.30277 1 10.5693C1 11.8124 1.51599 12.9616 2.33689 13.7825C3.15778 14.58 4.28358 15.0959 5.55011 15.0959H17.8401C19.2708 15.0959 20.5608 14.5096 21.4989 13.5949C22.4371 12.6567 23 11.3667 23 9.93603C23 8.50533 22.4136 7.21535 21.4989 6.27718ZM20.5608 12.7036C19.8337 13.4307 18.8486 13.8529 17.7697 13.8529H5.55011C4.63539 13.8529 3.79104 13.4776 3.20469 12.8678C2.59488 12.258 2.21962 11.4371 2.21962 10.5224C2.21962 9.63113 2.59488 8.81023 3.18124 8.20043C3.79104 7.59062 4.61194 7.21535 5.52665 7.21535C5.62047 7.21535 5.71429 7.1919 5.78465 7.14499H5.8081C5.94883 7.05117 6.04264 6.91045 6.0661 6.72281C6.25373 5.40938 6.9339 4.28358 7.87207 3.48614C8.81023 2.6887 10.0299 2.19616 11.3433 2.19616C12.4691 2.19616 13.5245 2.54797 14.3923 3.15778C15.0959 3.65032 15.6823 4.28358 16.081 5.05757C15.9403 5.10448 15.7996 5.17484 15.6588 5.22175C15.0021 5.52665 14.4158 5.94883 13.9232 6.51173C13.7122 6.76972 13.7356 7.14499 13.9701 7.35608C14.2281 7.56716 14.6034 7.54371 14.8145 7.30917C15.1898 6.88699 15.6354 6.55863 16.1514 6.32409C16.6439 6.08955 17.2068 5.97228 17.7697 5.97228C18.8721 5.97228 19.8571 6.41791 20.5608 7.12153C21.2878 7.84861 21.71 8.83369 21.71 9.91258C21.71 11.0149 21.2644 12 20.5608 12.7036Z" fill="#BFC0C4" stroke="#BFC0C4" stroke-width="0.6"/>
</svg>
