<svg width="24" height="23" viewBox="0 0 24 23" fill="none" xmlns="http://www.w3.org/2000/svg">
<path d="M19.1106 12.3039H10.9461V4.13937C10.9461 3.80944 10.6822 3.5455 10.3522 3.5455C5.19663 3.5455 1 7.74214 1 12.8978C1 18.0534 5.19663 22.25 10.3522 22.25C15.5079 22.25 19.7045 18.0534 19.7045 12.8978C19.7045 12.5722 19.4362 12.3039 19.1106 12.3039ZM10.3522 21.0623C5.85208 21.0623 2.18773 17.3979 2.18773 12.8978C2.18773 8.59554 5.53096 5.05875 9.75838 4.75522V12.8978C9.75838 13.2277 10.0223 13.4916 10.3522 13.4916H18.4948C18.1912 17.719 14.6545 21.0623 10.3522 21.0623Z" fill="#BFC0C4"/>
<path d="M22.9958 9.57146C22.987 7.30158 22.1556 5.11528 20.6555 3.41287C18.8783 1.40253 16.3269 0.25 13.6435 0.25C13.3136 0.25 13.0497 0.513939 13.0497 0.843863V9.60225C13.0497 9.93217 13.3136 10.1961 13.6435 10.1961H22.4019C22.7318 10.1961 22.9958 9.93217 22.9958 9.60225C22.9958 9.59345 22.9958 9.58465 22.9958 9.57146ZM14.2374 9.01278V1.46412C16.3577 1.61809 18.346 2.59906 19.7625 4.20469C20.9502 5.54638 21.6541 7.23559 21.7861 9.01278H14.2374Z" fill="#BFC0C4"/>
<path fill-rule="evenodd" clip-rule="evenodd" d="M12.7997 0.843863C12.7997 0.375868 13.1755 0 13.6435 0C16.3987 0 19.0183 1.1834 20.8428 3.24729C22.3829 4.99507 23.2367 7.24004 23.2458 9.57049L23.2458 9.57153V9.60158C23.2458 10.0696 22.8699 10.4461 22.4019 10.4461H13.6435C13.1755 10.4461 12.7997 10.0702 12.7997 9.60225V0.843863ZM13.6435 0.5C13.4517 0.5 13.2997 0.652011 13.2997 0.843863V9.60225C13.2997 9.7941 13.4517 9.94611 13.6435 9.94611H22.4019C22.5938 9.94611 22.7458 9.7941 22.7458 9.60225V9.57343L22.7458 9.57242C22.7371 7.36329 21.9279 5.23506 20.4679 3.57815C18.7381 1.62156 16.255 0.5 13.6435 0.5ZM13.9874 1.19531L14.2555 1.21478C16.441 1.37347 18.4902 2.38452 19.95 4.0393C21.1743 5.4224 21.8994 7.16336 22.0354 8.99427L22.0553 9.26278H13.9874V1.19531ZM14.4874 1.73755V8.76278H21.5123C21.3364 7.13834 20.6664 5.60292 19.5753 4.3704C18.2621 2.8818 16.4415 1.94678 14.4874 1.73755ZM0.75 12.8978C0.75 7.60407 5.05856 3.2955 10.3522 3.2955C10.8202 3.2955 11.1961 3.67137 11.1961 4.13937V12.0539H19.1106C19.5742 12.0539 19.9545 12.4342 19.9545 12.8978C19.9545 18.1914 15.6459 22.5 10.3522 22.5C5.05856 22.5 0.75 18.1914 0.75 12.8978ZM10.3522 3.7955C5.33471 3.7955 1.25 7.88021 1.25 12.8978C1.25 17.9153 5.33471 22 10.3522 22C15.3698 22 19.4545 17.9153 19.4545 12.8978C19.4545 12.7103 19.2981 12.5539 19.1106 12.5539H10.6961V4.13937C10.6961 3.94751 10.5441 3.7955 10.3522 3.7955ZM10.0084 4.48663V12.8978C10.0084 13.0896 10.1604 13.2416 10.3522 13.2416H18.7634L18.7441 13.5095C18.4313 17.8668 14.7865 21.3123 10.3522 21.3123C5.71401 21.3123 1.93773 17.536 1.93773 12.8978C1.93773 8.46352 5.38316 4.81872 9.74048 4.50587L10.0084 4.48663ZM9.50838 5.02839C5.53837 5.4493 2.43773 8.81887 2.43773 12.8978C2.43773 17.2598 5.99015 20.8123 10.3522 20.8123C14.4311 20.8123 17.8007 17.7116 18.2216 13.7416H10.3522C9.88425 13.7416 9.50838 13.3657 9.50838 12.8978V5.02839Z" fill="#BFC0C4"/>
</svg>
