<svg width="25" height="22" viewBox="0 0 25 22" fill="none" xmlns="http://www.w3.org/2000/svg">
<path d="M5.89526 10.2095H0.790454C0.353896 10.2095 0 10.5635 0 11V21.2095C0 21.6461 0.353896 22 0.790454 22H5.89526C6.33177 22 6.68572 21.6461 6.68572 21.2095V11C6.68567 10.5634 6.33177 10.2095 5.89526 10.2095ZM5.10481 20.4191H1.58086V11.7904H5.10481V20.4191Z" fill="#BFC0C4"/>
<path d="M14.6724 0H9.56768C9.13117 0 8.77723 0.353848 8.77723 0.790454V21.2095C8.77723 21.6461 9.13112 22 9.56768 22H14.6725C15.109 22 15.4629 21.6461 15.4629 21.2095V0.790406C15.4629 0.353848 15.109 0 14.6724 0ZM13.882 20.4191H10.3581V1.58086H13.882V20.4191Z" fill="#BFC0C4"/>
<path d="M23.4496 5.10471H18.3449C17.9084 5.10471 17.5544 5.45861 17.5544 5.89517V21.2095C17.5544 21.646 17.9083 22 18.3449 22H23.4497C23.8862 22 24.2401 21.6461 24.2401 21.2095V5.89517C24.2401 5.45866 23.8862 5.10471 23.4496 5.10471ZM22.6592 20.4191H19.1353V6.68562H22.6592V20.4191Z" fill="#BFC0C4"/>
</svg>
