<svg width="19" height="26" viewBox="0 0 19 26" fill="none" xmlns="http://www.w3.org/2000/svg">
<path d="M11 1H3.00002C1.89719 1 1 1.89719 1 3.00002V17.4C1 18.5028 1.89719 19.4001 3.00002 19.4001H10.2V18.6001H3.00002C2.33842 18.6001 1.80002 18.0616 1.80002 17.4V3.00002C1.80002 2.33842 2.33842 1.80002 3.00002 1.80002H11C11.6616 1.80002 12.2 2.33842 12.2 3.00002V14.6001H13V3.00002C13 1.89719 12.1028 1 11 1Z" fill="#29006C"/>
<path d="M16.8364 11.6544L12.9124 6.75035L12.2872 7.25037L16.2112 12.154C16.7204 12.79 17.0004 13.5892 17 14.404V24.2H11.148C9.08165 24.2 7.40006 22.5188 7.40006 20.452V19H6.60004V20.452C6.60004 22.9596 8.64046 25 11.148 25H17.4C17.6213 25 17.8 24.8212 17.8 24.6V14.4044C17.8005 13.4092 17.4585 12.4324 16.8364 11.6544Z" fill="#29006C"/>
<path d="M7.79844 10.4333C8.07922 10.4413 8.34046 10.5581 8.53283 10.7621L13.9085 16.4741L14.4913 15.9257L9.11483 10.2133C8.77522 9.85367 8.31561 9.64771 7.82122 9.63369C7.32162 9.61691 6.85644 9.79888 6.50121 10.1345C6.49681 10.1389 6.46479 10.1693 6.46081 10.1737C5.77723 10.8593 5.7312 11.9353 6.35482 12.6785L9.80006 16.7465V17.9841C9.79963 20.1945 11.1897 22.1997 13.2597 22.9749L13.5405 22.2257C11.7812 21.5669 10.5997 19.8625 10.6 17.9841V16.6001C10.6 16.5057 10.5664 16.4137 10.5052 16.3413L6.96645 12.1625C6.61245 11.7409 6.63847 11.1285 7.04647 10.7201C7.25042 10.5273 7.51681 10.4317 7.79844 10.4333Z" fill="#29006C"/>
<path d="M10.6 1.80013H9.80002V11.8001H10.6V1.80013Z" fill="#29006C"/>
<path d="M8.60003 14.1999H7.80001V18.9999H8.60003V14.1999Z" fill="#29006C"/>
<path d="M8.60003 1.40003H7.80001V10.2H8.60003V1.40003Z" fill="#29006C"/>
<path d="M5.80002 14.1999H3.40001C3.17923 14.1999 3.00003 14.3787 3.00003 14.5999V16.9999C3.00003 17.2211 3.17923 17.3999 3.40001 17.3999H5.80002C6.02081 17.3999 6.20001 17.2211 6.20001 16.9999V14.5999C6.20001 14.3787 6.02081 14.1999 5.80002 14.1999ZM5.40004 16.5999H3.80005V14.9999H5.40004V16.5999Z" fill="#29006C"/>
<path d="M10.2 19.4001V19.6501H10.45V19.4001H10.2ZM10.2 18.6001H10.45V18.3501H10.2V18.6001ZM12.2 14.6001H11.95V14.8501H12.2V14.6001ZM13 14.6001V14.8501H13.25V14.6001H13ZM16.8364 11.6544L17.0317 11.4983L17.0316 11.4982L16.8364 11.6544ZM12.9124 6.75035L13.1076 6.59416L12.9515 6.39901L12.7563 6.55511L12.9124 6.75035ZM12.2872 7.25037L12.1311 7.05513L11.9358 7.21132L12.092 7.40657L12.2872 7.25037ZM16.2112 12.154L16.016 12.3102L16.016 12.3102L16.2112 12.154ZM17 14.404L16.75 14.4039V14.404H17ZM17 24.2V24.45H17.25V24.2H17ZM7.40006 19H7.65006V18.75H7.40006V19ZM6.60004 19V18.75H6.35004V19H6.60004ZM17.8 14.4044L17.55 14.4043V14.4044H17.8ZM7.79844 10.4333L7.80557 10.1834L7.79989 10.1833L7.79844 10.4333ZM8.53283 10.7621L8.71489 10.5908L8.71472 10.5906L8.53283 10.7621ZM13.9085 16.4741L13.7264 16.6455L13.8977 16.8275L14.0798 16.6562L13.9085 16.4741ZM14.4913 15.9257L14.6626 16.1078L14.8447 15.9365L14.6733 15.7544L14.4913 15.9257ZM9.11483 10.2133L9.29688 10.042L9.2966 10.0417L9.11483 10.2133ZM7.82122 9.63369L7.81283 9.88355L7.81414 9.88359L7.82122 9.63369ZM6.50121 10.1345L6.32945 9.95271L6.32444 9.95773L6.50121 10.1345ZM6.46081 10.1737L6.63806 10.3504L6.64624 10.3414L6.46081 10.1737ZM6.35482 12.6785L6.16331 12.8392L6.16405 12.8401L6.35482 12.6785ZM9.80006 16.7465H10.0501V16.6549L9.99083 16.5849L9.80006 16.7465ZM9.80006 17.9841L10.0501 17.9842V17.9841H9.80006ZM13.2597 22.9749L13.172 23.209L13.4061 23.2967L13.4938 23.0626L13.2597 22.9749ZM13.5405 22.2257L13.7746 22.3134L13.8623 22.0793L13.6281 21.9916L13.5405 22.2257ZM10.6 17.9841L10.85 17.9842V17.9841H10.6ZM10.5052 16.3413L10.6962 16.1799L10.696 16.1798L10.5052 16.3413ZM6.96645 12.1625L6.77499 12.3233L6.77567 12.3241L6.96645 12.1625ZM7.04647 10.7201L6.87466 10.5384L6.86961 10.5434L7.04647 10.7201ZM9.80002 1.80013V1.55013H9.55002V1.80013H9.80002ZM10.6 1.80013H10.85V1.55013H10.6V1.80013ZM10.6 11.8001V12.0501H10.85V11.8001H10.6ZM9.80002 11.8001H9.55002V12.0501H9.80002V11.8001ZM7.80001 14.1999V13.9499H7.55001V14.1999H7.80001ZM8.60003 14.1999H8.85003V13.9499H8.60003V14.1999ZM8.60003 18.9999V19.2499H8.85003V18.9999H8.60003ZM7.80001 18.9999H7.55001V19.2499H7.80001V18.9999ZM7.80001 1.40003V1.15003H7.55001V1.40003H7.80001ZM8.60003 1.40003H8.85003V1.15003H8.60003V1.40003ZM8.60003 10.2V10.45H8.85003V10.2H8.60003ZM7.80001 10.2H7.55001V10.45H7.80001V10.2ZM6.20001 14.5999H5.95001H6.20001ZM5.40004 16.5999V16.8499H5.65004V16.5999H5.40004ZM3.80005 16.5999H3.55005V16.8499H3.80005V16.5999ZM3.80005 14.9999V14.7499H3.55005V14.9999H3.80005ZM5.40004 14.9999H5.65004V14.7499H5.40004V14.9999ZM11 0.75H3.00002V1.25H11V0.75ZM3.00002 0.75C1.75912 0.75 0.75 1.75912 0.75 3.00002H1.25C1.25 2.03526 2.03526 1.25 3.00002 1.25V0.75ZM0.75 3.00002V17.4H1.25V3.00002H0.75ZM0.75 17.4C0.75 18.6409 1.75911 19.6501 3.00002 19.6501V19.1501C2.03526 19.1501 1.25 18.3648 1.25 17.4H0.75ZM3.00002 19.6501H10.2V19.1501H3.00002V19.6501ZM10.45 19.4001V18.6001H9.95002V19.4001H10.45ZM10.2 18.3501H3.00002V18.8501H10.2V18.3501ZM3.00002 18.3501C2.47649 18.3501 2.05002 17.9236 2.05002 17.4H1.55002C1.55002 18.1997 2.20035 18.8501 3.00002 18.8501V18.3501ZM2.05002 17.4V3.00002H1.55002V17.4H2.05002ZM2.05002 3.00002C2.05002 2.4765 2.47649 2.05002 3.00002 2.05002V1.55002C2.20035 1.55002 1.55002 2.20035 1.55002 3.00002H2.05002ZM3.00002 2.05002H11V1.55002H3.00002V2.05002ZM11 2.05002C11.5236 2.05002 11.95 2.4765 11.95 3.00002H12.45C12.45 2.20035 11.7997 1.55002 11 1.55002V2.05002ZM11.95 3.00002V14.6001H12.45V3.00002H11.95ZM12.2 14.8501H13V14.3501H12.2V14.8501ZM13.25 14.6001V3.00002H12.75V14.6001H13.25ZM13.25 3.00002C13.25 1.75912 12.2409 0.75 11 0.75V1.25C11.9647 1.25 12.75 2.03526 12.75 3.00002H13.25ZM17.0316 11.4982L13.1076 6.59416L12.7172 6.90655L16.6412 11.8106L17.0316 11.4982ZM12.7563 6.55511L12.1311 7.05513L12.4433 7.44561L13.0686 6.9456L12.7563 6.55511ZM12.092 7.40657L16.016 12.3102L16.4064 11.9978L12.4824 7.09417L12.092 7.40657ZM16.016 12.3102C16.4897 12.9018 16.7504 13.6459 16.75 14.4039L17.25 14.4041C17.2504 13.5325 16.9511 12.6782 16.4064 11.9977L16.016 12.3102ZM16.75 14.404V24.2H17.25V14.404H16.75ZM17 23.95H11.148V24.45H17V23.95ZM11.148 23.95C9.21971 23.95 7.65006 22.3807 7.65006 20.452H7.15006C7.15006 22.6568 8.9436 24.45 11.148 24.45V23.95ZM7.65006 20.452V19H7.15006V20.452H7.65006ZM7.40006 18.75H6.60004V19.25H7.40006V18.75ZM6.35004 19V20.452H6.85004V19H6.35004ZM6.35004 20.452C6.35004 23.0976 8.50239 25.25 11.148 25.25V24.75C8.77854 24.75 6.85004 22.8215 6.85004 20.452H6.35004ZM11.148 25.25H17.4V24.75H11.148V25.25ZM17.4 25.25C17.7593 25.25 18.05 24.9593 18.05 24.6H17.55C17.55 24.6831 17.4832 24.75 17.4 24.75V25.25ZM18.05 24.6V14.4044H17.55V24.6H18.05ZM18.05 14.4045C18.0505 13.3525 17.6892 12.3206 17.0317 11.4983L16.6412 11.8105C17.2277 12.5441 17.5504 13.4659 17.55 14.4043L18.05 14.4045ZM7.7913 10.6832C8.00605 10.6894 8.20432 10.7781 8.35095 10.9336L8.71472 10.5906C8.47659 10.3381 8.15239 10.1933 7.80557 10.1834L7.7913 10.6832ZM8.35078 10.9334L13.7264 16.6455L14.0905 16.3028L8.71489 10.5908L8.35078 10.9334ZM14.0798 16.6562L14.6626 16.1078L14.32 15.7437L13.7372 16.2921L14.0798 16.6562ZM14.6733 15.7544L9.29688 10.042L8.93279 10.3846L14.3092 16.0971L14.6733 15.7544ZM9.2966 10.0417C8.91147 9.63383 8.38903 9.39969 7.8283 9.38379L7.81414 9.88359C8.2422 9.89572 8.63898 10.0735 8.93307 10.3849L9.2966 10.0417ZM7.82961 9.38383C7.26201 9.36477 6.73232 9.5722 6.32952 9.95279L6.67291 10.3162C6.98055 10.0256 7.38123 9.86905 7.81283 9.88355L7.82961 9.38383ZM6.32444 9.95773C6.32562 9.95655 6.32517 9.957 6.32047 9.96152C6.31739 9.96448 6.31193 9.96971 6.30767 9.9738C6.30308 9.97821 6.29804 9.98306 6.29375 9.98724C6.29164 9.9893 6.28928 9.99161 6.28705 9.99383C6.28593 9.99494 6.28451 9.99637 6.28296 9.99795C6.28183 9.99911 6.27885 10.0022 6.27538 10.006L6.64624 10.3414C6.64327 10.3447 6.641 10.347 6.64078 10.3472C6.64014 10.3478 6.63982 10.3482 6.63997 10.348C6.64027 10.3477 6.6411 10.3469 6.64261 10.3454C6.64559 10.3425 6.64958 10.3387 6.65403 10.3344C6.65883 10.3298 6.66245 10.3263 6.66674 10.3222C6.66862 10.3204 6.67049 10.3186 6.67209 10.3171C6.67323 10.316 6.6757 10.3136 6.67799 10.3113L6.32444 9.95773ZM6.28377 9.99718C5.50862 10.7746 5.45659 11.997 6.16331 12.8392L6.54633 12.5178C6.0058 11.8736 6.04584 10.944 6.63785 10.3502L6.28377 9.99718ZM6.16405 12.8401L9.60928 16.9081L9.99083 16.5849L6.5456 12.5169L6.16405 12.8401ZM9.55006 16.7465V17.9841H10.0501V16.7465H9.55006ZM9.55006 17.9841C9.54961 20.2987 11.0043 22.3973 13.172 23.209L13.3474 22.7408C11.375 22.0022 10.0497 20.0903 10.0501 17.9842L9.55006 17.9841ZM13.4938 23.0626L13.7746 22.3134L13.3064 22.138L13.0256 22.8872L13.4938 23.0626ZM13.6281 21.9916C11.9665 21.3694 10.8497 19.7583 10.85 17.9842L10.35 17.9841C10.3496 19.9667 11.5959 21.7645 13.4528 22.4598L13.6281 21.9916ZM10.85 17.9841V16.6001H10.35V17.9841H10.85ZM10.85 16.6001C10.85 16.4466 10.7955 16.2975 10.6962 16.1799L10.3143 16.5027C10.3373 16.53 10.35 16.5648 10.35 16.6001H10.85ZM10.696 16.1798L7.15723 12.0009L6.77567 12.3241L10.3145 16.5029L10.696 16.1798ZM7.15791 12.0017C6.88966 11.6823 6.90426 11.2162 7.22333 10.8968L6.86961 10.5434C6.37267 11.0408 6.33524 11.7995 6.77499 12.3233L7.15791 12.0017ZM7.2182 10.9018C7.37116 10.7572 7.57368 10.682 7.79698 10.6833L7.79989 10.1833C7.45995 10.1814 7.12969 10.2974 6.87473 10.5384L7.2182 10.9018ZM9.80002 2.05013H10.6V1.55013H9.80002V2.05013ZM10.35 1.80013V11.8001H10.85V1.80013H10.35ZM10.6 11.5501H9.80002V12.0501H10.6V11.5501ZM10.05 11.8001V1.80013H9.55002V11.8001H10.05ZM7.80001 14.4499H8.60003V13.9499H7.80001V14.4499ZM8.35003 14.1999V18.9999H8.85003V14.1999H8.35003ZM8.60003 18.7499H7.80001V19.2499H8.60003V18.7499ZM8.05001 18.9999V14.1999H7.55001V18.9999H8.05001ZM7.80001 1.65003H8.60003V1.15003H7.80001V1.65003ZM8.35003 1.40003V10.2H8.85003V1.40003H8.35003ZM8.60003 9.95003H7.80001V10.45H8.60003V9.95003ZM8.05001 10.2V1.40003H7.55001V10.2H8.05001ZM5.80002 13.9499H3.40001V14.4499H5.80002V13.9499ZM3.40001 13.9499C3.04133 13.9499 2.75003 14.2405 2.75003 14.5999H3.25003C3.25003 14.517 3.31713 14.4499 3.40001 14.4499V13.9499ZM2.75003 14.5999V16.9999H3.25003V14.5999H2.75003ZM2.75003 16.9999C2.75003 17.3594 3.04133 17.6499 3.40001 17.6499V17.1499C3.31713 17.1499 3.25003 17.0829 3.25003 16.9999H2.75003ZM3.40001 17.6499H5.80002V17.1499H3.40001V17.6499ZM5.80002 17.6499C6.15871 17.6499 6.45001 17.3594 6.45001 16.9999H5.95001C5.95001 17.0829 5.88291 17.1499 5.80002 17.1499V17.6499ZM6.45001 16.9999V14.5999H5.95001V16.9999H6.45001ZM6.45001 14.5999C6.45001 14.2405 6.15871 13.9499 5.80002 13.9499V14.4499C5.88291 14.4499 5.95001 14.517 5.95001 14.5999H6.45001ZM5.40004 16.3499H3.80005V16.8499H5.40004V16.3499ZM4.05005 16.5999V14.9999H3.55005V16.5999H4.05005ZM3.80005 15.2499H5.40004V14.7499H3.80005V15.2499ZM5.15004 14.9999V16.5999H5.65004V14.9999H5.15004Z" fill="#29006C"/>
</svg>
