<svg width="24" height="21" viewBox="0 0 24 21" fill="none" xmlns="http://www.w3.org/2000/svg">
<path d="M15.0805 7.34907C16.8293 7.34907 18.247 5.93139 18.247 4.18259C18.247 2.43379 16.8293 1.01611 15.0805 1.01611C13.3317 1.01611 11.9141 2.43379 11.9141 4.18259C11.9141 5.93139 13.3317 7.34907 15.0805 7.34907Z" stroke="#BFC0C4" stroke-width="1.8" stroke-linecap="round" stroke-linejoin="round"/>
<path d="M11.3873 10.515H12.338C12.1611 9.76416 11.7359 9.09497 11.1313 8.61584C10.5267 8.1367 9.77801 7.87567 9.00656 7.875H4.43363C3.52297 7.875 2.64962 8.23676 2.00569 8.88069C1.36176 9.52462 1 10.398 1 11.3086C1 12.2193 1.36176 13.0926 2.00569 13.7366C2.64962 14.3805 3.52297 14.7423 4.43363 14.7423H7.1601C7.1601 13.6211 7.60546 12.5459 8.39822 11.7532C9.19097 10.9604 10.2662 10.515 11.3873 10.515V10.515Z" stroke="#BFC0C4" stroke-width="1.8" stroke-linecap="round" stroke-linejoin="round"/>
<path d="M6.72007 5.58863C7.17451 5.59019 7.61918 5.45675 7.99768 5.20525C8.37618 4.95374 8.67146 4.5955 8.84609 4.17595C9.02071 3.75639 9.06681 3.29443 8.97854 2.84865C8.89026 2.40286 8.67159 1.99333 8.35025 1.67199C8.02891 1.35065 7.61938 1.13198 7.17359 1.0437C6.72781 0.955428 6.26585 1.00153 5.84629 1.17615C5.42674 1.35077 5.0685 1.64606 4.81699 2.02456C4.56549 2.40306 4.43205 2.84773 4.43361 3.30217C4.43361 3.90858 4.6745 4.49015 5.1033 4.91894C5.53209 5.34774 6.11366 5.58863 6.72007 5.58863V5.58863Z" stroke="#BFC0C4" stroke-width="1.8" stroke-linecap="round" stroke-linejoin="round"/>
<path d="M18.7732 10.5151H11.3874C9.05274 10.5151 7.16016 12.4077 7.16016 14.7423V15.7952C7.16016 18.1298 9.05274 20.0224 11.3874 20.0224H18.7732C21.1078 20.0224 23.0004 18.1298 23.0004 15.7952V14.7423C23.0004 12.4077 21.1078 10.5151 18.7732 10.5151Z" stroke="#BFC0C4" stroke-width="1.8" stroke-linecap="round" stroke-linejoin="round"/>
</svg>
