<svg width="23" height="26" viewBox="0 0 23 26" fill="none" xmlns="http://www.w3.org/2000/svg">
<path fill-rule="evenodd" clip-rule="evenodd" d="M11.3096 25.9729C11.3251 25.9771 11.3561 25.9847 11.3716 25.9877C11.4129 25.9962 11.4559 26.0004 11.4989 26C11.6331 26 11.7638 25.9606 11.8774 25.887L22.5764 19.8401C22.7037 19.7686 22.8103 19.6586 22.8843 19.5227C22.9583 19.3865 22.9978 19.2295 22.9978 19.0695V6.99776C23.0013 6.95502 22.9996 6.91228 22.9996 6.86954C22.9927 6.75612 22.9652 6.64567 22.9222 6.54369C22.8774 6.44212 22.8155 6.35156 22.7398 6.27666C22.6641 6.20218 22.5764 6.14505 22.4817 6.10865L11.8378 0.0901381C11.7328 0.0308924 11.6176 0 11.4989 0C11.3819 0 11.2666 0.0308924 11.1617 0.0901381L0.517725 6.10865C0.326763 6.18186 0.168489 6.33844 0.0790297 6.54369C0.0188166 6.68122 -0.00698902 6.83272 0.00161285 6.98295V19.0695C0.00161285 19.2295 0.0411814 19.3865 0.115158 19.5227C0.189134 19.6586 0.295797 19.7686 0.423104 19.8401L11.1204 25.8853C11.1789 25.9238 11.2425 25.9534 11.3096 25.9729ZM12.2593 23.7482L21.4788 18.5376V8.31936L12.2593 13.511V23.7482ZM20.5205 6.92836L11.5006 12.0028L2.47895 6.92751L11.4989 1.82138L20.5205 6.92836ZM1.5207 8.3181V18.5376L10.7402 23.7495V13.5101L1.5207 8.3181Z" fill="#BFC0C4"/>
</svg>
