<svg width="23" height="21" viewBox="0 0 23 21" fill="none" xmlns="http://www.w3.org/2000/svg">
<path d="M8.41599 14.5955C8.15496 14.3997 7.78951 14.4519 7.59374 14.7129C6.61487 16.0094 5.12264 16.7533 3.4999 16.7533H0.831506C0.505217 16.7533 0.244186 17.0144 0.244186 17.3407C0.244186 17.6669 0.505217 17.928 0.831506 17.928H3.50425C4.50922 17.928 5.47069 17.6974 6.35819 17.2449C7.20654 16.8142 7.95918 16.1834 8.53345 15.4177C8.72487 15.161 8.67702 14.7912 8.41599 14.5955Z" fill="#BFC0C4"/>
<path fill-rule="evenodd" clip-rule="evenodd" d="M7.39839 14.5664C7.67508 14.1975 8.19358 14.1234 8.5625 14.4001C8.93321 14.6781 8.99959 15.2011 8.7292 15.5637C8.1325 16.3593 7.3505 17.015 6.46892 17.4626C5.5469 17.9326 4.54747 18.1722 3.50425 18.1722H0.831506C0.370355 18.1722 0 17.8018 0 17.3407C0 16.8795 0.370355 16.5091 0.831506 16.5091H3.4999C5.04593 16.5091 6.46559 15.8019 7.39839 14.5664ZM8.26947 14.7908C8.11633 14.676 7.90395 14.7063 7.78909 14.8594C6.76415 16.2169 5.19936 16.9975 3.4999 16.9975H0.831506C0.640079 16.9975 0.488372 17.1492 0.488372 17.3407C0.488372 17.5321 0.640079 17.6838 0.831506 17.6838H3.50425C4.4709 17.6838 5.39433 17.4622 6.24728 17.0274C7.0622 16.6137 7.78607 16.0071 8.33783 15.2716C8.45014 15.1208 8.42077 14.9043 8.26947 14.7908Z" fill="#BFC0C4"/>
<path d="M12.0272 6.33818C12.1359 6.42084 12.2621 6.45999 12.3883 6.45999C12.5623 6.45999 12.7363 6.38168 12.8538 6.23376C13.8326 4.97211 15.3075 4.24993 16.8997 4.24993H20.3149L18.492 6.07279C18.2615 6.30337 18.2615 6.67317 18.492 6.90374C18.6051 7.01686 18.7574 7.07776 18.9053 7.07776C19.0532 7.07776 19.2055 7.02121 19.3186 6.90374L22.1465 4.07591C22.377 3.84533 22.377 3.47553 22.1465 3.24496L19.3186 0.417119C19.0881 0.186541 18.7183 0.186541 18.4877 0.417119C18.2571 0.647697 18.2571 1.01749 18.4877 1.24807L20.3105 3.07094H16.8954C14.9377 3.07094 13.1235 3.95844 11.9184 5.51158C11.727 5.77261 11.7705 6.13805 12.0272 6.33818Z" fill="#BFC0C4"/>
<path fill-rule="evenodd" clip-rule="evenodd" d="M18.315 0.244454C18.641 -0.0814845 19.1654 -0.0814845 19.4913 0.244454L22.3191 3.07229C22.6451 3.39823 22.6451 3.92263 22.3191 4.24857L19.4928 7.07494C19.3302 7.24272 19.1135 7.32195 18.9053 7.32195C18.6923 7.32195 18.478 7.23507 18.3194 7.07641C17.9934 6.75047 17.9934 6.22607 18.3194 5.90013L19.7254 4.49411H16.8997C15.383 4.49411 13.9794 5.18134 13.0467 6.38345L13.045 6.38563C12.88 6.5934 12.6348 6.70418 12.3883 6.70418C12.2108 6.70418 12.0322 6.64875 11.8794 6.53259L11.877 6.53076C11.5123 6.24643 11.4549 5.7307 11.7215 5.36717L11.7254 5.36183C12.9767 3.74914 14.8621 2.82675 16.8954 2.82675H19.721L18.315 1.42073C17.9891 1.0948 17.9891 0.570392 18.315 0.244454ZM19.146 0.589784C19.0107 0.454567 18.7956 0.454567 18.6603 0.589784C18.5251 0.725001 18.5251 0.940186 18.6603 1.0754L20.9001 3.31512H16.8954C15.0144 3.31512 13.2725 4.16657 12.1136 5.65835C11.9997 5.81624 12.0292 6.02913 12.1761 6.14468C12.2405 6.19321 12.3139 6.21581 12.3883 6.21581C12.4894 6.21581 12.5919 6.1703 12.6618 6.08284C13.6869 4.76241 15.2324 4.00574 16.8997 4.00574H20.9044L18.6647 6.24546C18.5295 6.38068 18.5295 6.59586 18.6647 6.73108C18.7323 6.79865 18.8225 6.83358 18.9053 6.83358C18.9923 6.83358 19.0793 6.80027 19.1427 6.73437L19.1459 6.73105L21.9738 3.90324C22.109 3.76802 22.109 3.55284 21.9738 3.41762L19.146 0.589784Z" fill="#BFC0C4"/>
<path d="M18.346 14.0995C18.1154 13.8689 17.7456 13.8689 17.5151 14.0995C17.2845 14.3301 17.2845 14.6999 17.5151 14.9305L19.3379 16.7533H15.9228C13.0993 16.7533 10.8022 14.4563 10.8022 11.6328V9.37049C10.8022 5.89878 7.97872 3.07529 4.50701 3.07529H0.857518C0.531229 3.07529 0.270198 3.33632 0.270198 3.66261C0.270198 3.9889 0.531229 4.24993 0.857518 4.24993H4.50701C7.33049 4.24993 9.62757 6.547 9.62757 9.37049V11.6328C9.62757 15.1045 12.4511 17.928 15.9228 17.928H19.3379L17.5151 19.7508C17.2845 19.9814 17.2845 20.3512 17.5151 20.5818C17.6282 20.6949 17.7804 20.7558 17.9284 20.7558C18.0763 20.7558 18.2285 20.6993 18.3417 20.5818L21.1695 17.754C21.4001 17.5234 21.4001 17.1536 21.1695 16.923L18.346 14.0995Z" fill="#BFC0C4"/>
<path fill-rule="evenodd" clip-rule="evenodd" d="M0.0260123 3.66261C0.0260123 3.20146 0.396369 2.8311 0.857518 2.8311H4.50701C8.11358 2.8311 11.0464 5.76392 11.0464 9.37049V11.6328C11.0464 14.3214 13.2341 16.5091 15.9228 16.5091H18.7484L17.3424 15.1031C17.0165 14.7772 17.0165 14.2528 17.3424 13.9268C17.6683 13.6009 18.1927 13.6009 18.5187 13.9268L21.3422 16.7503C21.6681 17.0763 21.6681 17.6007 21.3422 17.9266L18.5158 20.753C18.3532 20.9208 18.1365 21 17.9284 21C17.7153 21 17.5011 20.9131 17.3424 20.7545C17.0165 20.4285 17.0165 19.9041 17.3424 19.5782L18.7484 18.1722H15.9228C12.3162 18.1722 9.38338 15.2393 9.38338 11.6328V9.37049C9.38338 6.68186 7.19563 4.49411 4.50701 4.49411H0.857518C0.396369 4.49411 0.0260123 4.12376 0.0260123 3.66261ZM0.857518 3.31947C0.66609 3.31947 0.514384 3.47118 0.514384 3.66261C0.514384 3.85404 0.66609 4.00574 0.857518 4.00574H4.50701C7.46535 4.00574 9.87175 6.41214 9.87175 9.37049V11.6328C9.87175 14.9696 12.5859 17.6838 15.9228 17.6838H19.9274L17.6877 19.9235C17.5525 20.0587 17.5525 20.2739 17.6877 20.4091C17.7553 20.4767 17.8456 20.5116 17.9284 20.5116C18.0153 20.5116 18.1023 20.4783 18.1658 20.4124L18.169 20.4091L20.9968 17.5813C21.1321 17.4461 21.1321 17.2309 20.9968 17.0957L18.1733 14.2722C18.0381 14.137 17.8229 14.137 17.6877 14.2722C17.5525 14.4074 17.5525 14.6226 17.6877 14.7578L19.9274 16.9975H15.9228C12.9644 16.9975 10.558 14.5911 10.558 11.6328V9.37049C10.558 6.03364 7.84386 3.31947 4.50701 3.31947H0.857518Z" fill="#BFC0C4"/>
</svg>
