<svg width="23" height="22" viewBox="0 0 23 22" fill="none" xmlns="http://www.w3.org/2000/svg">
<path d="M22.0417 17.6956H19.4896C19.0747 16.3173 17.8058 15.3044 16.2917 15.3044C14.7775 15.3044 13.5096 16.3173 13.0937 17.6956H0.958318C0.429318 17.6956 0 18.1242 0 18.6522C0 19.1802 0.429318 19.6087 0.958318 19.6087H13.0937C13.5086 20.987 14.7775 22 16.2916 22C17.8058 22 19.0737 20.987 19.4896 19.6087H22.0416C22.5716 19.6087 23 19.1802 23 18.6522C23 18.1242 22.5716 17.6956 22.0417 17.6956ZM16.2917 20.087C15.4991 20.087 14.8542 19.4433 14.8542 18.6522C14.8542 17.8611 15.4991 17.2174 16.2917 17.2174C17.0842 17.2174 17.7292 17.8611 17.7292 18.6522C17.7292 19.4433 17.0842 20.087 16.2917 20.087Z" fill="#BFC0C4"/>
<path d="M22.0417 2.39129H19.4896C19.0737 1.01296 17.8058 0 16.2917 0C14.7775 0 13.5096 1.01296 13.0937 2.39129H0.958318C0.429318 2.39129 0 2.8198 0 3.3478C0 3.8758 0.429318 4.30431 0.958318 4.30431H13.0937C13.5096 5.68269 14.7775 6.69565 16.2917 6.69565C17.8059 6.69565 19.0737 5.68269 19.4896 4.30435H22.0417C22.5716 4.30435 23 3.87585 23 3.34785C23 2.81984 22.5716 2.39129 22.0417 2.39129ZM16.2917 4.78259C15.4991 4.78259 14.8542 4.13886 14.8542 3.3478C14.8542 2.55674 15.4991 1.91302 16.2917 1.91302C17.0842 1.91302 17.7292 2.55674 17.7292 3.3478C17.7292 4.13886 17.0842 4.78259 16.2917 4.78259Z" fill="#BFC0C4"/>
<path d="M22.0417 10.0435H9.90631C9.49037 8.66516 8.2225 7.6522 6.70836 7.6522C5.19423 7.6522 3.92631 8.66516 3.51042 10.0435H0.958318C0.429318 10.0435 0 10.472 0 11C0 11.528 0.429318 11.9565 0.958318 11.9565H3.51037C3.92631 13.3348 5.19418 14.3478 6.70832 14.3478C8.22246 14.3478 9.49038 13.3348 9.90626 11.9565H22.0416C22.5716 11.9565 23 11.528 23 11C23 10.472 22.5716 10.0435 22.0417 10.0435ZM6.70832 12.4348C5.91576 12.4348 5.27082 11.7911 5.27082 11C5.27082 10.2089 5.91576 9.56522 6.70832 9.56522C7.50087 9.56522 8.14582 10.2089 8.14582 11C8.14582 11.7911 7.50087 12.4348 6.70832 12.4348Z" fill="#BFC0C4"/>
</svg>
