<svg width="20" height="23" viewBox="0 0 20 23" fill="none" xmlns="http://www.w3.org/2000/svg">
<path d="M10.1924 10.1536C10.7473 10.1536 11.255 10.2478 11.7155 10.4362C12.1877 10.6245 12.5891 10.8894 12.9197 11.2309C13.2621 11.5605 13.5277 11.9608 13.7166 12.4318C13.9056 12.891 14 13.3972 14 13.9506C14 14.504 13.8996 15.0161 13.6989 15.4871C13.4982 15.958 13.2149 16.3701 12.8489 16.7233C12.4947 17.0647 12.0697 17.3355 11.5738 17.5357C11.0779 17.7358 10.5289 17.8359 9.92679 17.8359C9.37189 17.8359 8.86422 17.7476 8.40377 17.571C7.94332 17.3944 7.5419 17.1648 7.19952 16.8822C6.86894 16.5879 6.60329 16.2524 6.40258 15.8756C6.39217 15.8554 6.38197 15.8352 6.37197 15.815C6.0853 15.2344 6.59822 14.657 7.24715 14.657H7.69278C7.96092 14.657 8.1924 14.8531 8.33293 15.0809C8.42738 15.2222 8.55135 15.3576 8.70483 15.4871C8.85832 15.6048 9.03541 15.7049 9.23612 15.7873C9.44863 15.8579 9.67886 15.8933 9.92679 15.8933C10.5053 15.8933 10.9717 15.7166 11.3259 15.3634C11.6919 14.9985 11.8748 14.5275 11.8748 13.9506C11.8748 13.3737 11.6919 12.9086 11.3259 12.5554C10.9717 12.1904 10.5053 12.0079 9.92679 12.0079C9.60802 12.0079 9.33647 12.0727 9.11215 12.2022C8.88783 12.3199 8.70483 12.4495 8.56315 12.5907L8.53693 12.6173C8.25436 12.909 7.89895 13.1559 7.49229 13.1559C6.85366 13.1559 6.35623 12.6033 6.42487 11.9701L6.86679 7.89372C6.94525 7.16999 7.55794 6.62149 8.28791 6.62149H12.1848C12.7472 6.62149 13.2031 7.07614 13.2031 7.63697C13.2031 8.1978 12.7472 8.65245 12.1848 8.65245H9.43702C9.05869 8.65245 8.73906 8.93231 8.69013 9.30642L8.51003 10.6834C8.66351 10.5892 8.8347 10.5009 9.0236 10.4185C9.17709 10.3596 9.35418 10.3008 9.55489 10.2419C9.7556 10.183 9.96812 10.1536 10.1924 10.1536Z" fill="#BFC0C4"/>
<path fill-rule="evenodd" clip-rule="evenodd" d="M17.2477 0.882416C18.723 0.898111 19.93 2.05875 19.9994 3.52852L20 3.54169L19.9997 20.37C19.9997 21.8522 18.6581 22.8824 17.2447 22.8824H2.755C1.34163 22.8824 0 21.8522 0 20.37V3.52845C0.0693478 2.05873 1.27666 0.898127 2.752 0.882432L2.755 0.882401L17.2477 0.882416ZM18.2593 3.55483V20.3788C18.2565 20.5948 18.1495 20.7787 17.9658 20.9175C17.7758 21.061 17.5127 21.147 17.2447 21.147H2.755C2.48695 21.147 2.22386 21.061 2.03388 20.9175C1.84769 20.7769 1.7403 20.5899 1.7403 20.3701V3.55489C1.79295 3.03148 2.22936 2.62876 2.75772 2.61795L17.2419 2.6179C17.7702 2.62875 18.2067 3.03145 18.2593 3.55483Z" fill="#BFC0C4"/>
</svg>
