<svg width="42" height="20" viewBox="0 0 42 20" fill="none" xmlns="http://www.w3.org/2000/svg">
<path d="M2 8.75C1.30964 8.75 0.75 9.30964 0.75 10C0.75 10.6904 1.30964 11.25 2 11.25V8.75ZM40.8839 10.8839C41.372 10.3957 41.372 9.60427 40.8839 9.11612L32.9289 1.16117C32.4408 0.67301 31.6493 0.67301 31.1612 1.16117C30.673 1.64932 30.673 2.44078 31.1612 2.92893L38.2322 10L31.1612 17.0711C30.673 17.5592 30.673 18.3507 31.1612 18.8388C31.6493 19.327 32.4408 19.327 32.9289 18.8388L40.8839 10.8839ZM2 11.25H40V8.75H2V11.25Z" fill="#481E8C"/>
</svg>
