<svg width="19" height="12" viewBox="0 0 19 12" fill="none" xmlns="http://www.w3.org/2000/svg">
<path d="M18.4588 5.28138C17.4864 3.69108 16.179 2.41327 14.5367 1.44801C12.8943 0.482706 11.16 0 9.33352 0C7.50708 0 5.77269 0.482524 4.13029 1.44801C2.48785 2.41327 1.18049 3.69108 0.20826 5.28138C0.0694323 5.52441 0 5.76401 0 6.00018C0 6.23635 0.0694323 6.47596 0.20826 6.71891C1.18049 8.30929 2.48785 9.5872 4.13029 10.5522C5.77269 11.5177 7.50708 12 9.33352 12C11.16 12 12.8943 11.5193 14.5367 10.5575C16.179 9.5957 17.4866 8.31611 18.4588 6.71891C18.5976 6.47596 18.667 6.23646 18.667 6.00018C18.667 5.76401 18.5976 5.52441 18.4588 5.28138ZM7.09895 2.43232C7.72045 1.81082 8.46523 1.49996 9.33341 1.49996C9.47223 1.49996 9.59038 1.54871 9.68765 1.64587C9.78477 1.74307 9.83359 1.86117 9.83359 2.00004C9.83359 2.13901 9.78477 2.25704 9.68786 2.35409C9.59074 2.4514 9.47253 2.5 9.33366 2.5C8.73646 2.5 8.22588 2.71191 7.80232 3.13543C7.37861 3.55922 7.16689 4.06958 7.16689 4.66678C7.16689 4.80582 7.11814 4.92378 7.02098 5.02105C6.92367 5.1184 6.80568 5.16696 6.66681 5.16696C6.52784 5.16696 6.40981 5.11829 6.31254 5.02105C6.21523 4.92378 6.16663 4.80568 6.16663 4.66678C6.16663 3.79878 6.47749 3.05385 7.09895 2.43232ZM13.8597 9.40145C12.4673 10.245 10.9586 10.667 9.33352 10.667C7.70848 10.667 6.1998 10.2453 4.80743 9.40145C3.41506 8.55765 2.25704 7.42393 1.33344 6.00018C2.38901 4.36121 3.71195 3.1354 5.30225 2.32304C4.87865 3.04517 4.66678 3.82651 4.66678 4.66674C4.66678 5.95162 5.12347 7.05031 6.0366 7.96366C6.94972 8.87701 8.04882 9.33348 9.33352 9.33348C10.6183 9.33348 11.7171 8.87675 12.6304 7.96366C13.5438 7.05057 14.0003 5.95162 14.0003 4.66674C14.0003 3.82651 13.7884 3.04506 13.3647 2.32304C14.955 3.1354 16.278 4.36132 17.3335 6.00018C16.4101 7.42393 15.2522 8.55765 13.8597 9.40145Z" fill="#29006C"/>
</svg>
