<svg width="50" height="50" viewBox="0 0 50 50" fill="none" xmlns="http://www.w3.org/2000/svg">
<path d="M25 0C11.2154 0 0 11.2144 0 25C0 38.7856 11.2154 50 25 50C38.7846 50 50 38.7856 50 25C50 11.2144 38.7846 0 25 0ZM25 48.0769C12.276 48.0769 1.92308 37.724 1.92308 25C1.92308 12.276 12.276 1.92308 25 1.92308C37.724 1.92308 48.0769 12.276 48.0769 25C48.0769 37.724 37.724 48.0769 25 48.0769Z" fill="#B4B3BB"/>
<path d="M37.019 24.0385H25.9614V13.4615C25.9614 12.9298 25.5306 12.5 24.9998 12.5C24.469 12.5 24.0383 12.9298 24.0383 13.4615V24.0385H12.9806C12.4498 24.0385 12.019 24.4683 12.019 25C12.019 25.5317 12.4498 25.9615 12.9806 25.9615H24.0383V37.5C24.0383 38.0317 24.469 38.4615 24.9998 38.4615C25.5306 38.4615 25.9614 38.0317 25.9614 37.5V25.9615H37.019C37.5498 25.9615 37.9806 25.5317 37.9806 25C37.9806 24.4683 37.5498 24.0385 37.019 24.0385Z" fill="#B4B3BB"/>
</svg>
