<svg width="7" height="10" viewBox="0 0 7 10" fill="none" xmlns="http://www.w3.org/2000/svg">
<path d="M6.15996 2.56035C6.15996 2.87769 6.10863 3.14835 6.00596 3.37235C5.91263 3.58702 5.79129 3.78302 5.64196 3.96035C5.50196 4.13769 5.34329 4.30102 5.16596 4.45035C4.99796 4.59969 4.83929 4.76302 4.68996 4.94035C4.54063 5.11769 4.40996 5.31835 4.29796 5.54235C4.19529 5.75702 4.13929 6.02302 4.12996 6.34035H2.16996C2.16996 5.94835 2.21663 5.61235 2.30996 5.33235C2.40329 5.04302 2.51996 4.79569 2.65996 4.59035C2.79996 4.38502 2.94929 4.20769 3.10796 4.05835C3.27596 3.90902 3.42996 3.76902 3.56996 3.63835C3.70996 3.49835 3.82663 3.36302 3.91996 3.23235C4.01329 3.10169 4.05996 2.94769 4.05996 2.77035C4.05996 2.52769 3.97596 2.32702 3.80796 2.16835C3.64929 2.00969 3.42996 1.93035 3.14996 1.93035C2.90729 1.93035 2.69263 2.03302 2.50596 2.23835C2.32863 2.43435 2.23996 2.72835 2.23996 3.12035L0.209961 2.98035C0.284628 2.10302 0.578628 1.40768 1.09196 0.894351C1.61463 0.371685 2.30063 0.110352 3.14996 0.110352C3.62596 0.110352 4.04596 0.175685 4.40996 0.306352C4.78329 0.437018 5.10063 0.614352 5.36196 0.838352C5.62329 1.06235 5.81929 1.32369 5.94996 1.62235C6.08996 1.91169 6.15996 2.22435 6.15996 2.56035ZM2.16996 8.02035C2.16996 7.74035 2.27263 7.49769 2.47796 7.29235C2.69263 7.07769 2.93996 6.97035 3.21996 6.97035C3.49996 6.97035 3.74263 7.07769 3.94796 7.29235C4.16263 7.49769 4.26996 7.74035 4.26996 8.02035C4.26996 8.30035 4.16263 8.54769 3.94796 8.76235C3.74263 8.96769 3.49996 9.07035 3.21996 9.07035C2.93996 9.07035 2.69263 8.96769 2.47796 8.76235C2.27263 8.54769 2.16996 8.30035 2.16996 8.02035Z" fill="#161718" fill-opacity="0.4"/>
</svg>
