<svg width="50" height="48" viewBox="0 0 50 48" fill="none" xmlns="http://www.w3.org/2000/svg">
<path d="M23.064 1.9475C23.6576 0.0941501 26.2799 0.0941463 26.8735 1.94749L31.2515 15.6181C31.5167 16.4463 32.2867 17.0081 33.1562 17.0081H47.3848C49.3152 17.0081 50.1254 19.4726 48.5715 20.618L37.0108 29.1397C36.32 29.649 36.031 30.5422 36.2928 31.3596L40.6968 45.1112C41.2886 46.9589 39.1671 48.4823 37.6054 47.3311L26.1554 38.891C25.4498 38.3709 24.4877 38.3709 23.7821 38.891L12.3321 47.3311C10.7704 48.4823 8.64895 46.9589 9.24069 45.1112L13.6447 31.3596C13.9065 30.5422 13.6175 29.649 12.9267 29.1397L1.366 20.618C-0.187896 19.4726 0.622255 17.0081 2.55269 17.0081H16.7813C17.6508 17.0081 18.4208 16.4463 18.686 15.6181L23.064 1.9475Z" fill="#DBDBE1"/>
</svg>
