<svg width="41" height="40" viewBox="0 0 41 40" fill="none" xmlns="http://www.w3.org/2000/svg">
<path d="M18.8896 1.46062C19.3348 0.07061 21.3016 0.0706091 21.7467 1.46062L25.489 13.146C25.6879 13.7671 26.2653 14.1885 26.9175 14.1885H39.0734C40.5212 14.1885 41.1289 16.0368 39.9634 16.8959L30.092 24.1724C29.5738 24.5544 29.3571 25.2243 29.5535 25.8373L33.3152 37.5834C33.759 38.9692 32.1679 40.1117 30.9966 39.2483L21.2082 32.033C20.679 31.6429 19.9574 31.6429 19.4282 32.033L9.63974 39.2483C8.46844 40.1117 6.87738 38.9692 7.32119 37.5834L11.0829 25.8373C11.2792 25.2243 11.0625 24.5544 10.5444 24.1724L0.672934 16.8959C-0.492488 16.0368 0.115129 14.1885 1.56295 14.1885H13.7188C14.371 14.1885 14.9485 13.7671 15.1474 13.146L18.8896 1.46062Z" fill="#FDCC0A"/>
</svg>
