<svg width="12" height="13" viewBox="0 0 12 13" fill="none" xmlns="http://www.w3.org/2000/svg">
<path d="M10.9505 8.46307C10.8285 8.35627 10.7134 8.25538 10.661 8.16122C10.6563 8.15257 10.6511 8.14383 10.6453 8.13407L10.6426 8.12961C10.4298 7.78918 10.348 6.91771 10.2988 6.39498C10.2915 6.31666 10.2845 6.24159 10.2774 6.1714C10.2766 6.16374 10.2757 6.15612 10.2747 6.14832L10.2741 6.14404C10.1598 5.34485 9.87576 4.192 9.17134 3.23844C8.68955 2.58643 8.09252 2.14224 7.39405 1.91562C7.30143 1.39589 6.84614 1 6.30012 1C5.75392 1 5.29847 1.39619 5.2061 1.91626C4.51405 2.14292 3.90328 2.59645 3.4289 3.23869C2.72448 4.19204 2.44039 5.34485 2.32615 6.14413L2.32555 6.14841C2.32456 6.1562 2.32362 6.16383 2.32285 6.17136C2.3157 6.24253 2.30859 6.31807 2.30114 6.39712C2.25219 6.91784 2.17032 7.78939 1.95766 8.12961L1.95488 8.13411C1.95072 8.141 1.94674 8.14786 1.94075 8.15839C1.88688 8.25525 1.77169 8.35623 1.64973 8.46316C1.32775 8.74535 0.657841 9.33261 1.21243 10.3625C1.32595 10.5735 1.54537 10.7045 1.785 10.7045H3.32977C3.3934 11.4294 4.00344 12 4.74456 12C5.48569 12 6.09569 11.4294 6.15936 10.7045H10.8151C11.0545 10.7045 11.2738 10.5736 11.3877 10.3626C11.9422 9.33279 11.2725 8.74552 10.9505 8.46307ZM4.74461 11.3577C4.35818 11.3577 4.03753 11.0743 3.97732 10.7045H5.51189C5.45168 11.0743 5.13103 11.3577 4.74461 11.3577ZM10.8223 10.0578C10.8208 10.0605 10.8181 10.0622 10.8152 10.0622H1.78509C1.78222 10.0622 1.77948 10.0606 1.77811 10.058C1.48773 9.51876 1.70642 9.2677 2.07324 8.94614C2.23104 8.80783 2.39419 8.66476 2.50013 8.4742L2.50454 8.46658C2.77376 8.03267 2.8645 7.26846 2.94073 6.4572C2.94801 6.37956 2.95499 6.3054 2.96201 6.23542L2.9624 6.23221C3.06645 5.50634 3.3215 4.46495 3.94555 3.62037C4.38756 3.02193 4.94022 2.63632 5.58812 2.47415L5.8313 2.4133V2.11106C5.8313 1.85259 6.0416 1.64229 6.30008 1.64229C6.55855 1.64229 6.76885 1.85259 6.76885 2.11106V2.41313L7.01199 2.47402C7.65993 2.63632 8.21264 3.02197 8.65465 3.62024C9.27869 4.46503 9.5337 5.50629 9.63775 6.23221L9.63818 6.23568C9.64516 6.30471 9.65206 6.37832 9.65946 6.4572C9.7359 7.2706 9.82694 8.0366 10.0958 8.46684L10.098 8.47056C10.2062 8.66519 10.3694 8.80809 10.5272 8.94623C10.8939 9.26774 11.1125 9.51885 10.8223 10.0578Z" fill="white" stroke="white" stroke-width="0.5"/>
</svg>
