<svg width="38" height="26" viewBox="0 0 38 26" fill="none" xmlns="http://www.w3.org/2000/svg">
<path d="M14.7319 13.1855C14.5337 13.2793 14.3242 13.3262 14.103 13.3262H12.0952V10.0078H14.103C14.3242 10.0078 14.5337 10.0547 14.7319 10.1484C14.9297 10.2402 15.104 10.3633 15.2554 10.5137C15.4067 10.666 15.5293 10.8398 15.6221 11.0391C15.7153 11.2363 15.7617 11.4453 15.7617 11.666C15.7617 11.8887 15.7153 12.0977 15.6221 12.2949C15.5293 12.4922 15.4067 12.668 15.2554 12.8184C15.104 12.9707 14.9297 13.0918 14.7319 13.1855Z" fill="#471F8A"/>
<path fill-rule="evenodd" clip-rule="evenodd" d="M5 0C2.23877 0 0 2.23828 0 5V21C0 23.7617 2.23877 26 5 26H33C35.7612 26 38 23.7617 38 21V5C38 2.23828 35.7612 0 33 0H5ZM14.5986 8.03125C14.52 8.02148 14.4409 8.01367 14.3608 8.00977C14.2759 8.00391 14.1899 8 14.103 8H10V19H12.0952V15.334H14.103C14.627 15.334 15.1157 15.2402 15.5698 15.0547C16.0239 14.8555 16.4194 14.5938 16.7573 14.2676C17.1064 13.9316 17.374 13.541 17.5605 13.0977C17.7583 12.6445 17.8569 12.168 17.8569 11.666C17.8569 11.166 17.7583 10.6953 17.5605 10.252C17.374 9.79883 17.1064 9.4082 16.7573 9.08203C16.4194 8.74414 16.0239 8.48242 15.5698 8.29688L15.4551 8.25L15.3433 8.20898C15.104 8.12305 14.856 8.06445 14.5986 8.03125ZM21.6099 14.0234L25.5381 19H27.9829L23.6177 13.4121L27.7207 8H25.2764L21.6099 12.8887V8H19.5146V19H21.6099V14.0234Z" fill="#471F8A"/>
</svg>
