<svg width="8" height="9" viewBox="0 0 8 9" fill="none" xmlns="http://www.w3.org/2000/svg">
<path d="M0.348633 4.52246H1.40137V0.181641H4.34082C4.74186 0.181641 5.111 0.252279 5.44824 0.393555C5.79004 0.530273 6.08626 0.719401 6.33691 0.960938C6.59212 1.19792 6.78809 1.48047 6.9248 1.80859C7.06608 2.13216 7.13672 2.47624 7.13672 2.84082C7.13672 3.2054 7.06608 3.55176 6.9248 3.87988C6.78809 4.20345 6.59212 4.486 6.33691 4.72754C6.08626 4.96452 5.79004 5.15365 5.44824 5.29492C5.111 5.43164 4.74186 5.5 4.34082 5.5H2.52246V6.62109H5.18164V7.59863H2.52246V9H1.40137V7.59863H0.348633V6.62109H1.40137V5.5H0.348633V4.52246ZM4.34082 4.52246C4.83757 4.52246 5.24089 4.36523 5.55078 4.05078C5.86523 3.73633 6.02246 3.33301 6.02246 2.84082C6.02246 2.34408 5.86751 1.94076 5.55762 1.63086C5.24772 1.31641 4.84212 1.15918 4.34082 1.15918H2.52246V4.52246H4.34082Z" fill="#7C7B85"/>
</svg>
