<?xml version="1.0"?>
<svg xmlns="http://www.w3.org/2000/svg" id="Layer_1" data-name="Layer 1" viewBox="0 0 512 512" width="512" height="512"><title>Diskette</title><path d="M355,45H145V166H355Zm-48,95a7,7,0,0,1-7,7H268a7,7,0,0,1-7-7V73a7,7,0,0,1,7-7h32a7,7,0,0,1,7,7Z"/><rect x="275" y="80" width="18" height="52"/><rect x="145" y="321" width="210" height="39"/><rect x="145" y="374" width="210" height="93"/><path d="M425.727,467c18.2,0,33.273-14.458,33.273-32.654v-328.2L407.949,45H369V172.684c0,3.866-2.834,7.316-6.7,7.316H138.208A7.456,7.456,0,0,1,131,172.684V45H86.273C68.077,45,53,59.458,53,77.654V434.346C53,452.542,68.077,467,86.273,467H131V313.907A7.1,7.1,0,0,1,138.208,307H362.3a6.671,6.671,0,0,1,6.7,6.907V467Z"/></svg>
