<svg width="10" height="10" viewBox="0 0 10 10" fill="none" xmlns="http://www.w3.org/2000/svg">
<path d="M5.00618 0C5.60011 0 6.08158 0.481474 6.08158 1.0754V4.00488H8.99878C9.55174 4.00488 10 4.45315 10 5.0061C10 5.55906 9.55174 6.00733 8.99878 6.00733H6.08158V8.9246C6.08158 9.51853 5.60011 10 5.00618 10C4.41225 10 3.93078 9.51853 3.93078 8.9246V6.00733H1.00122C0.448262 6.00733 0 5.55906 0 5.0061C0 4.45315 0.448262 4.00488 1.00122 4.00488H3.93078V1.0754C3.93078 0.481474 4.41225 0 5.00618 0Z" fill="#29006C"/>
</svg>
