<svg width="4" height="2" viewBox="0 0 4 2" fill="none" xmlns="http://www.w3.org/2000/svg">
<path d="M1.76907 0.0821848C1.83323 0.0271958 1.91695 0 2.00004 0C2.08308 0 2.16675 0.0271457 2.23093 0.0821424L3.90308 1.51568C4.0323 1.62646 4.03232 1.80703 3.90308 1.91779C3.77526 2.02735 3.56898 2.02735 3.44114 1.91779L2.00003 0.682301L0.558878 1.91782C0.431078 2.02739 0.224769 2.02739 0.0969627 1.91782C-0.032333 1.80707 -0.0323121 1.62649 0.0969725 1.51571L1.76907 0.0821848Z" fill="#29006C"/>
<path d="M1.76907 1.91782C1.83323 1.9728 1.91695 2 2.00004 2C2.08308 2 2.16675 1.97285 2.23093 1.91786L3.90308 0.484321C4.0323 0.373538 4.03232 0.192972 3.90308 0.0822131C3.77526 -0.0273518 3.56898 -0.0273467 3.44114 0.0822062L2.00003 1.3177L0.558878 0.0821775C0.431078 -0.0273932 0.224769 -0.0273913 0.0969627 0.0821761C-0.032333 0.192931 -0.0323121 0.373512 0.0969725 0.484293L1.76907 1.91782Z" fill="#29006C"/>
</svg>
