<svg width="50" height="50" viewBox="0 0 50 50" fill="none" xmlns="http://www.w3.org/2000/svg">
<circle cx="25" cy="25" r="24.5" stroke="#B4B3BB" stroke-linejoin="round" stroke-dasharray="3 3"/>
<path d="M35.2978 22.2807H14.7022C14.2885 22.2807 13.964 22.7047 14.0032 23.1951L14.8091 33.2442C14.8435 33.6728 15.1461 34 15.508 34H34.4919C34.8538 34 35.1565 33.6728 35.1909 33.2443L35.9968 23.1951C36.036 22.7052 35.712 22.2807 35.2978 22.2807Z" fill="#7C7B85"/>
<path d="M33.9776 17.8842H24.0314V16.835C24.0314 16.3739 23.717 16 23.3293 16H16.0266C15.6388 16 15.3245 16.3739 15.3245 16.835V20.6106H34.6797V18.7192C34.6797 18.2581 34.3653 17.8842 33.9776 17.8842Z" fill="#7C7B85"/>
</svg>
