<svg width="50" height="50" viewBox="0 0 50 50" fill="none" xmlns="http://www.w3.org/2000/svg">
<circle cx="25" cy="25" r="24.5" stroke="#B4B3BB" stroke-linejoin="round" stroke-dasharray="3 3"/>
<path d="M35.9493 16.5507C35.5821 16.1836 35.1409 16 34.6251 16H15.875C15.3594 16 14.9181 16.1835 14.5507 16.5507C14.1835 16.9179 14 17.3592 14 17.8749V32.1249C14 32.6407 14.1835 33.082 14.5507 33.4492C14.9181 33.8164 15.3594 34 15.875 34H34.6254C35.1409 34 35.5822 33.8164 35.9494 33.4492C36.3166 33.0821 36.5003 32.6407 36.5003 32.1249V17.8749C36.5003 17.3592 36.3166 16.9179 35.9493 16.5507ZM35 32.1249C35 32.2266 34.9631 32.3142 34.8889 32.3887C34.8146 32.4626 34.7267 32.4997 34.6251 32.4997H15.875C15.7735 32.4997 15.6856 32.4626 15.6114 32.3887C15.5372 32.3143 15.5001 32.2266 15.5001 32.1249V17.8747C15.5001 17.7732 15.5371 17.6855 15.6114 17.6111C15.6856 17.5371 15.7736 17.4999 15.875 17.4999H34.6254C34.7268 17.4999 34.8147 17.5371 34.8889 17.6111C34.9628 17.6855 35 17.7732 35 17.8747V32.1249Z" fill="#7C7B85"/>
<path d="M19.2505 23.5C19.8756 23.5 20.4068 23.2814 20.8443 22.8438C21.2817 22.4063 21.5005 21.8751 21.5005 21.2502C21.5005 20.6251 21.2816 20.0939 20.8443 19.6563C20.4068 19.2189 19.8755 19.0001 19.2505 19.0001C18.6255 19.0001 18.0943 19.2189 17.6567 19.6563C17.2194 20.0939 17.0006 20.625 17.0006 21.2502C17.0006 21.8751 17.2192 22.4064 17.6567 22.8438C18.0943 23.2813 18.6255 23.5 19.2505 23.5Z" fill="#7C7B85"/>
<path d="M22.6247 26.8749L20.7497 25L16.9997 28.7499V31H33.4998V25.75L28.6248 20.8749L22.6247 26.8749Z" fill="#7C7B85"/>
</svg>
