<svg width="23" height="16" viewBox="0 0 23 16" fill="none" xmlns="http://www.w3.org/2000/svg">
<path d="M20.2893 0.199723L15.3492 3.53664V0.975224C15.3492 0.4373 14.8587 0.00133067 14.2535 0.00133067H1.09563C0.490466 0.00133067 0 0.4373 0 0.975224V15.0259C0 15.5637 0.490466 15.9996 1.09563 15.9996H14.2535C14.8587 15.9996 15.3492 15.5637 15.3492 15.0259V12.4643L20.2893 15.8012C21.0041 16.284 22.0479 15.8339 22.0479 15.0259V0.975224C22.0479 0.171572 21.0098 -0.287033 20.2893 0.199723ZM13.1579 14.052H2.19126V1.94912H13.1579V14.052ZM19.8567 13.0625L15.3492 10.018V5.98317L19.8567 2.93842V13.0625Z" fill="#481E8C"/>
</svg>
