<svg width="20" height="11" viewBox="0 0 20 11" fill="none" xmlns="http://www.w3.org/2000/svg">
<path d="M19.1776 9.93421C19.1543 9.8839 19.1325 9.84216 19.1123 9.80873C18.7778 9.20627 18.1385 8.46681 17.195 7.59011L17.175 7.57004L17.1651 7.56019L17.155 7.5501H17.1448C16.7166 7.14187 16.4454 6.86738 16.3319 6.72685C16.1241 6.45915 16.0775 6.18818 16.1911 5.91362C16.2713 5.70618 16.5727 5.2681 17.0945 4.59877C17.369 4.24405 17.5864 3.95975 17.7469 3.74556C18.9048 2.20629 19.4067 1.22268 19.2527 0.794338L19.1929 0.69424C19.1527 0.633977 19.049 0.578847 18.8819 0.52857C18.7144 0.478397 18.5003 0.4701 18.2393 0.503537L15.3483 0.523507C15.3015 0.506912 15.2346 0.508458 15.1475 0.52857C15.0605 0.548681 15.017 0.558772 15.017 0.558772L14.9667 0.58391L14.9267 0.614112C14.8932 0.634082 14.8564 0.669207 14.8162 0.719414C14.7763 0.769445 14.7428 0.828161 14.7161 0.895069C14.4014 1.70482 14.0435 2.45768 13.6419 3.15362C13.3943 3.56861 13.1669 3.92825 12.9592 4.23276C12.7518 4.53717 12.5778 4.76145 12.4373 4.90522C12.2967 5.04912 12.1698 5.16441 12.0558 5.2515C11.942 5.33862 11.8551 5.37544 11.7949 5.36197C11.7347 5.3485 11.6779 5.33514 11.6241 5.32178C11.5305 5.26152 11.4552 5.17956 11.3984 5.07584C11.3414 4.97213 11.303 4.84158 11.2829 4.68431C11.2629 4.52694 11.2511 4.39158 11.2477 4.27777C11.2446 4.1641 11.246 4.00331 11.2528 3.79588C11.2598 3.58833 11.2629 3.44791 11.2629 3.37428C11.2629 3.11994 11.2679 2.84391 11.2778 2.54611C11.288 2.24831 11.2961 2.01236 11.303 1.83853C11.3098 1.66453 11.313 1.48043 11.313 1.28636C11.313 1.09228 11.3012 0.940072 11.2778 0.829602C11.2548 0.719273 11.2194 0.612178 11.1727 0.508353C11.1258 0.404634 11.0571 0.3244 10.9669 0.267443C10.8766 0.210555 10.7643 0.165411 10.6307 0.131869C10.2759 0.0516004 9.82424 0.00817886 9.27537 0.0014283C8.0307 -0.0119322 7.23094 0.0684415 6.87625 0.242444C6.73572 0.315962 6.60855 0.416412 6.49485 0.543477C6.37436 0.690759 6.35755 0.771133 6.44453 0.784353C6.84612 0.84451 7.13042 0.988416 7.29774 1.21593L7.35804 1.33649C7.40494 1.42348 7.45177 1.57747 7.49864 1.79827C7.54544 2.01907 7.57564 2.26332 7.58893 2.53088C7.62233 3.01949 7.62233 3.43774 7.58893 3.78568C7.55542 4.13376 7.52378 4.40473 7.49358 4.59881C7.46338 4.79288 7.41823 4.95015 7.35804 5.07057C7.29774 5.19103 7.25763 5.26465 7.23751 5.29137C7.21744 5.31809 7.2007 5.33493 7.18741 5.34154C7.10043 5.37487 7.00996 5.39186 6.91633 5.39186C6.82257 5.39186 6.70886 5.34495 6.57504 5.25122C6.44126 5.15748 6.30242 5.02873 6.15851 4.86475C6.01461 4.70073 5.85231 4.47153 5.67156 4.17711C5.49095 3.88268 5.30355 3.53471 5.10947 3.1332L4.9489 2.84201C4.84852 2.65468 4.7114 2.38191 4.5374 2.02396C4.36329 1.66586 4.2094 1.31947 4.07561 0.984865C4.02214 0.844334 3.9418 0.737345 3.83474 0.663722L3.7845 0.63352C3.7511 0.606799 3.69748 0.578425 3.62393 0.548188C3.55027 0.517987 3.47341 0.496328 3.39303 0.483003L0.642569 0.502974C0.361506 0.502974 0.170803 0.566647 0.0703886 0.693817L0.0302017 0.753975C0.0101258 0.787481 0 0.840994 0 0.914652C0 0.988276 0.0200759 1.07863 0.0602628 1.18562C0.46178 2.1293 0.898422 3.03939 1.37019 3.91605C1.84195 4.79271 2.25191 5.49888 2.59981 6.03393C2.94778 6.56937 3.30246 7.07471 3.66387 7.54971C4.02527 8.02489 4.26449 8.3294 4.38154 8.46318C4.49872 8.59721 4.59077 8.69741 4.65767 8.76432L4.90868 9.0052C5.06928 9.16584 5.30513 9.35823 5.61632 9.58237C5.92759 9.80665 6.27218 10.0274 6.65029 10.2451C7.02846 10.4624 7.4684 10.6398 7.97037 10.7769C8.47227 10.9142 8.96077 10.9693 9.43595 10.9427H10.5904C10.8245 10.9225 11.0019 10.8489 11.1224 10.7218L11.1624 10.6715C11.1892 10.6316 11.2144 10.5695 11.2376 10.486C11.2611 10.4024 11.2727 10.3102 11.2727 10.21C11.2659 9.92229 11.2878 9.66299 11.3378 9.43214C11.3879 9.20135 11.4449 9.02735 11.5087 8.91016C11.5724 8.79308 11.6444 8.69429 11.7244 8.61419C11.8047 8.53392 11.8618 8.4853 11.8954 8.46856C11.9287 8.45172 11.9553 8.4403 11.9754 8.43344C12.136 8.37993 12.325 8.43175 12.5427 8.58916C12.7602 8.74643 12.9643 8.94061 13.1551 9.17139C13.3459 9.40239 13.575 9.66155 13.8427 9.94926C14.1105 10.2371 14.3446 10.451 14.5453 10.5918L14.746 10.7122C14.88 10.7926 15.054 10.8662 15.2682 10.9331C15.482 11 15.6693 11.0167 15.8302 10.9833L18.3999 10.9432C18.654 10.9432 18.8518 10.9011 18.9921 10.8176C19.1327 10.734 19.2162 10.6418 19.2431 10.5416C19.27 10.4412 19.2714 10.3274 19.2482 10.2001C19.2244 10.0732 19.2009 9.98438 19.1776 9.93421Z" fill="white"/>
</svg>
