<svg width="18" height="20" viewBox="0 0 18 20" fill="none" xmlns="http://www.w3.org/2000/svg">
<path d="M12.457 8.73438C12.457 8.34604 12.1422 8.03125 11.7539 8.03125H4.51172C4.12339 8.03125 3.8086 8.34604 3.8086 8.73438C3.8086 9.12271 4.12339 9.4375 4.51172 9.4375H11.7539C12.1422 9.4375 12.457 9.12271 12.457 8.73438Z" fill="#481E8C"/>
<path d="M4.51172 10.8438C4.12339 10.8438 3.8086 11.1585 3.8086 11.5469C3.8086 11.9352 4.12339 12.25 4.51172 12.25H8.91016C9.29849 12.25 9.61328 11.9352 9.61328 11.5469C9.61328 11.1585 9.29849 10.8438 8.91016 10.8438H4.51172Z" fill="#481E8C"/>
<path d="M6.16407 17.5938H3.8125C3.03709 17.5938 2.40625 16.9629 2.40625 16.1875V3.8125C2.40625 3.03709 3.03709 2.40625 3.8125 2.40625H12.457C13.2324 2.40625 13.8633 3.03709 13.8633 3.8125V8.13672C13.8633 8.52505 14.1781 8.83984 14.5664 8.83984C14.9547 8.83984 15.2695 8.52505 15.2695 8.13672V3.8125C15.2695 2.26169 14.0078 1 12.457 1H3.8125C2.26169 1 1 2.26169 1 3.8125V16.1875C1 17.7383 2.26169 19 3.8125 19H6.16407C6.5524 19 6.86719 18.6852 6.86719 18.2969C6.86719 17.9085 6.5524 17.5938 6.16407 17.5938Z" fill="#481E8C"/>
<path d="M16.5149 11.1803C15.6925 10.3578 14.3543 10.3578 13.5324 11.1797L9.67213 15.0314C9.59015 15.1132 9.52968 15.214 9.496 15.3248L8.65531 18.0925C8.58078 18.3379 8.64571 18.6043 8.8248 18.7879C8.95895 18.9254 9.1412 19 9.32813 19C9.39067 19 9.45381 18.9916 9.51579 18.9744L12.3538 18.1883C12.4706 18.156 12.577 18.094 12.6628 18.0083L16.515 14.1634C17.3374 13.341 17.3374 12.0028 16.5149 11.1803ZM11.8002 16.8825L10.3724 17.278L10.7903 15.9023L13.395 13.3034L14.3895 14.298L11.8002 16.8825ZM15.5211 13.1686L15.3849 13.3046L14.3905 12.3102L14.5263 12.1747C14.8004 11.9005 15.2465 11.9005 15.5206 12.1747C15.7948 12.4488 15.7948 12.8949 15.5211 13.1686Z" fill="#481E8C"/>
<path d="M11.7539 5.21875H4.51172C4.12339 5.21875 3.8086 5.53354 3.8086 5.92188C3.8086 6.31021 4.12339 6.625 4.51172 6.625H11.7539C12.1422 6.625 12.457 6.31021 12.457 5.92188C12.457 5.53354 12.1422 5.21875 11.7539 5.21875Z" fill="#481E8C"/>
<path d="M12.457 8.73438C12.457 8.34604 12.1422 8.03125 11.7539 8.03125H4.51172C4.12339 8.03125 3.8086 8.34604 3.8086 8.73438C3.8086 9.12271 4.12339 9.4375 4.51172 9.4375H11.7539C12.1422 9.4375 12.457 9.12271 12.457 8.73438Z" stroke="#481E8C" stroke-width="0.3"/>
<path d="M4.51172 10.8438C4.12339 10.8438 3.8086 11.1585 3.8086 11.5469C3.8086 11.9352 4.12339 12.25 4.51172 12.25H8.91016C9.29849 12.25 9.61328 11.9352 9.61328 11.5469C9.61328 11.1585 9.29849 10.8438 8.91016 10.8438H4.51172Z" stroke="#481E8C" stroke-width="0.3"/>
<path d="M6.16407 17.5938H3.8125C3.03709 17.5938 2.40625 16.9629 2.40625 16.1875V3.8125C2.40625 3.03709 3.03709 2.40625 3.8125 2.40625H12.457C13.2324 2.40625 13.8633 3.03709 13.8633 3.8125V8.13672C13.8633 8.52505 14.1781 8.83984 14.5664 8.83984C14.9547 8.83984 15.2695 8.52505 15.2695 8.13672V3.8125C15.2695 2.26169 14.0078 1 12.457 1H3.8125C2.26169 1 1 2.26169 1 3.8125V16.1875C1 17.7383 2.26169 19 3.8125 19H6.16407C6.5524 19 6.86719 18.6852 6.86719 18.2969C6.86719 17.9085 6.5524 17.5938 6.16407 17.5938Z" stroke="#481E8C" stroke-width="0.3"/>
<path d="M16.5149 11.1803C15.6925 10.3578 14.3543 10.3578 13.5324 11.1797L9.67213 15.0314C9.59015 15.1132 9.52968 15.214 9.496 15.3248L8.65531 18.0925C8.58078 18.3379 8.64571 18.6043 8.8248 18.7879C8.95895 18.9254 9.1412 19 9.32813 19C9.39067 19 9.45381 18.9916 9.51579 18.9744L12.3538 18.1883C12.4706 18.156 12.577 18.094 12.6628 18.0083L16.515 14.1634C17.3374 13.341 17.3374 12.0028 16.5149 11.1803ZM11.8002 16.8825L10.3724 17.278L10.7903 15.9023L13.395 13.3034L14.3895 14.298L11.8002 16.8825ZM15.5211 13.1686L15.3849 13.3046L14.3905 12.3102L14.5263 12.1747C14.8004 11.9005 15.2465 11.9005 15.5206 12.1747C15.7948 12.4488 15.7948 12.8949 15.5211 13.1686Z" stroke="#481E8C" stroke-width="0.3"/>
<path d="M11.7539 5.21875H4.51172C4.12339 5.21875 3.8086 5.53354 3.8086 5.92188C3.8086 6.31021 4.12339 6.625 4.51172 6.625H11.7539C12.1422 6.625 12.457 6.31021 12.457 5.92188C12.457 5.53354 12.1422 5.21875 11.7539 5.21875Z" stroke="#481E8C" stroke-width="0.3"/>
</svg>
